<?xml version="1.0" encoding="UTF-8" standalone="no"?>
<svg
   xmlns:dc="http://purl.org/dc/elements/1.1/"
   xmlns:cc="http://creativecommons.org/ns#"
   xmlns:rdf="http://www.w3.org/1999/02/22-rdf-syntax-ns#"
   xmlns:svg="http://www.w3.org/2000/svg"
   xmlns="http://www.w3.org/2000/svg"
   xmlns:sodipodi="http://sodipodi.sourceforge.net/DTD/sodipodi-0.dtd"
   xmlns:inkscape="http://www.inkscape.org/namespaces/inkscape"
   version="1.1"
   id="svg2"
   xml:space="preserve"
   width="599.28003"
   height="210.05333"
   viewBox="0 0 599.28003 210.05333"
   sodipodi:docname="ACERA_Logo_Final.eps"><metadata
     id="metadata8"><rdf:RDF><cc:Work
         rdf:about=""><dc:format>image/svg+xml</dc:format><dc:type
           rdf:resource="http://purl.org/dc/dcmitype/StillImage" /></cc:Work></rdf:RDF></metadata><defs
     id="defs6" /><sodipodi:namedview
     pagecolor="#ffffff"
     bordercolor="#666666"
     borderopacity="1"
     objecttolerance="10"
     gridtolerance="10"
     guidetolerance="10"
     inkscape:pageopacity="0"
     inkscape:pageshadow="2"
     inkscape:window-width="640"
     inkscape:window-height="480"
     id="namedview4" /><g
     id="g10"
     inkscape:groupmode="layer"
     inkscape:label="ink_ext_XXXXXX"
     transform="matrix(1.3333333,0,0,-1.3333333,0,210.05333)"><g
       id="g12"
       transform="scale(0.1)"><path
         d="M 381.41,525.621 V 544.77 H 486.422 V 525.621 H 443.688 V 349.199 H 424.141 V 525.621 H 381.41"
         style="fill:#5a2a94;fill-opacity:1;fill-rule:nonzero;stroke:none"
         id="path14" /><path
         d="m 511.051,549.691 h 18.234 V 467.93 c 7.387,9.922 15.504,17.351 24.367,22.261 8.864,4.93 18.457,7.379 28.793,7.379 10.598,0 20,-2.738 28.211,-8.238 8.203,-5.5 14.266,-12.871 18.172,-22.133 3.906,-9.269 5.86,-23.777 5.86,-43.539 v -74.461 h -18.239 v 69.012 c 0,16.66 -0.648,27.777 -1.953,33.371 -2.258,9.566 -6.367,16.77 -12.308,21.59 -5.954,4.84 -13.75,7.25 -23.395,7.25 -11.023,0 -20.906,-3.723 -29.637,-11.16 -8.726,-7.453 -14.484,-16.672 -17.258,-27.66 -1.742,-7.09 -2.613,-20.211 -2.613,-39.352 v -53.051 h -18.234 v 200.492"
         style="fill:#5a2a94;fill-opacity:1;fill-rule:nonzero;stroke:none"
         id="path16" /><path
         d="m 793.121,436.148 c -2.441,9.934 -5.98,17.864 -10.637,23.801 -4.656,5.93 -10.808,10.723 -18.457,14.352 -7.656,3.64 -15.703,5.461 -24.132,5.461 -13.922,0 -25.875,-4.571 -35.872,-13.703 -7.312,-6.637 -12.832,-16.61 -16.574,-29.911 z m 0,-38.949 15.367,-8.238 c -5.043,-10.109 -10.867,-18.262 -17.472,-24.461 -6.606,-6.211 -14.039,-10.93 -22.305,-14.16 -8.258,-3.238 -17.602,-4.86 -28.035,-4.86 -23.121,0 -41.203,7.739 -54.25,23.2 -13.035,15.468 -19.555,32.949 -19.555,52.449 0,18.351 5.516,34.703 16.563,49.051 13.988,18.269 32.726,27.39 56.207,27.39 24.16,0 43.461,-9.351 57.89,-28.05 10.258,-13.211 15.477,-29.688 15.649,-49.45 H 685.629 c 0.344,-16.8 5.605,-30.57 15.781,-41.32 10.172,-10.738 22.742,-16.121 37.703,-16.121 7.215,0 14.242,1.281 21.067,3.84 6.824,2.562 12.633,5.961 17.41,10.203 4.781,4.238 9.961,11.078 15.531,20.527"
         style="fill:#5a2a94;fill-opacity:1;fill-rule:nonzero;stroke:none"
         id="path18" /><path
         d="m 915.316,349.199 27.442,195.571 h 3.117 l 77.905,-160.469 77.16,160.469 h 3.07 l 27.59,-195.571 h -18.79 l -18.94,139.871 -67.76,-139.871 h -4.9 l -68.562,140.93 -18.824,-140.93 h -18.508"
         style="fill:#5a2a94;fill-opacity:1;fill-rule:nonzero;stroke:none"
         id="path20" /><path
         d="m 1234.59,479.621 c -10.15,0 -19.52,-2.551 -28.11,-7.633 -8.59,-5.09 -15.42,-12.25 -20.49,-21.449 -5.08,-9.199 -7.62,-18.949 -7.62,-29.207 0,-10.191 2.57,-19.934 7.68,-29.211 5.12,-9.301 12,-16.539 20.62,-21.723 8.64,-5.179 17.9,-7.769 27.79,-7.769 9.97,0 19.43,2.57 28.37,7.711 8.94,5.129 15.81,12.082 20.63,20.84 4.81,8.761 7.22,18.64 7.22,29.609 0,16.742 -5.4,30.731 -16.21,41.973 -10.8,11.238 -24.09,16.859 -39.88,16.859 z m 72.9,14.231 V 349.199 h -17.98 v 24.871 c -7.64,-9.488 -16.22,-16.629 -25.74,-21.41 -9.5,-4.789 -19.9,-7.18 -31.2,-7.18 -20.06,0 -37.2,7.418 -51.39,22.282 -14.2,14.84 -21.31,32.898 -21.31,54.168 0,20.82 7.17,38.629 21.5,53.441 14.33,14.801 31.57,22.199 51.73,22.199 11.63,0 22.16,-2.519 31.59,-7.582 9.43,-5.047 17.69,-12.617 24.82,-22.726 v 26.59 h 17.98"
         style="fill:#5a2a94;fill-opacity:1;fill-rule:nonzero;stroke:none"
         id="path22" /><path
         d="m 1419.79,478.031 -11.72,-12.359 c -9.76,9.66 -19.3,14.476 -28.61,14.476 -5.92,0 -11,-1.988 -15.22,-5.976 -4.23,-3.992 -6.34,-8.641 -6.34,-13.961 0,-4.691 1.74,-9.172 5.23,-13.422 3.48,-4.348 10.79,-9.437 21.93,-15.289 13.58,-7.18 22.81,-14.09 27.68,-20.738 4.79,-6.731 7.18,-14.313 7.18,-22.731 0,-11.883 -4.08,-21.941 -12.27,-30.191 -8.18,-8.238 -18.4,-12.36 -30.66,-12.36 -8.18,0 -15.98,1.821 -23.42,5.45 -7.44,3.64 -13.59,8.64 -18.46,15.031 l 11.46,13.289 c 9.31,-10.719 19.2,-16.09 29.65,-16.09 7.31,0 13.53,2.399 18.67,7.18 5.13,4.789 7.7,10.422 7.7,16.89 0,5.321 -1.69,10.051 -5.08,14.219 -3.4,4.082 -11.06,9.223 -22.99,15.422 -12.8,6.738 -21.5,13.391 -26.11,19.938 -4.62,6.57 -6.93,14.05 -6.93,22.48 0,10.981 3.68,20.121 11.03,27.383 7.35,7.258 16.65,10.898 27.87,10.898 13.05,0 26.19,-6.511 39.41,-19.539"
         style="fill:#5a2a94;fill-opacity:1;fill-rule:nonzero;stroke:none"
         id="path24" /><path
         d="m 1523.37,478.031 -11.72,-12.359 c -9.76,9.66 -19.3,14.476 -28.61,14.476 -5.93,0 -11,-1.988 -15.22,-5.976 -4.23,-3.992 -6.34,-8.641 -6.34,-13.961 0,-4.691 1.74,-9.172 5.23,-13.422 3.48,-4.348 10.79,-9.437 21.93,-15.289 13.58,-7.18 22.81,-14.09 27.69,-20.738 4.78,-6.731 7.18,-14.313 7.18,-22.731 0,-11.883 -4.1,-21.941 -12.28,-30.191 -8.17,-8.238 -18.4,-12.36 -30.66,-12.36 -8.18,0 -15.99,1.821 -23.42,5.45 -7.44,3.64 -13.6,8.64 -18.47,15.031 l 11.47,13.289 c 9.31,-10.719 19.2,-16.09 29.65,-16.09 7.31,0 13.53,2.399 18.67,7.18 5.13,4.789 7.7,10.422 7.7,16.89 0,5.321 -1.7,10.051 -5.09,14.219 -3.39,4.082 -11.06,9.223 -22.98,15.422 -12.8,6.738 -21.5,13.391 -26.12,19.938 -4.61,6.57 -6.91,14.05 -6.91,22.48 0,10.981 3.67,20.121 11.02,27.383 7.36,7.258 16.64,10.898 27.87,10.898 13.05,0 26.19,-6.511 39.41,-19.539"
         style="fill:#5a2a94;fill-opacity:1;fill-rule:nonzero;stroke:none"
         id="path26" /><path
         d="m 1624.01,479.621 c -10.15,0 -19.52,-2.551 -28.1,-7.633 -8.61,-5.09 -15.43,-12.25 -20.5,-21.449 -5.08,-9.199 -7.62,-18.949 -7.62,-29.207 0,-10.191 2.56,-19.934 7.68,-29.211 5.12,-9.301 11.99,-16.539 20.62,-21.723 8.64,-5.179 17.9,-7.769 27.79,-7.769 9.98,0 19.43,2.57 28.37,7.711 8.94,5.129 15.81,12.082 20.63,20.84 4.81,8.761 7.22,18.64 7.22,29.609 0,16.742 -5.4,30.731 -16.2,41.973 -10.8,11.238 -24.1,16.859 -39.89,16.859 z m 72.89,14.231 V 349.199 h -17.97 v 24.871 c -7.65,-9.488 -16.22,-16.629 -25.74,-21.41 -9.51,-4.789 -19.91,-7.18 -31.2,-7.18 -20.07,0 -37.19,7.418 -51.39,22.282 -14.2,14.84 -21.3,32.898 -21.3,54.168 0,20.82 7.16,38.629 21.49,53.441 14.33,14.801 31.57,22.199 51.73,22.199 11.63,0 22.16,-2.519 31.59,-7.582 9.43,-5.047 17.69,-12.617 24.82,-22.726 v 26.59 h 17.97"
         style="fill:#5a2a94;fill-opacity:1;fill-rule:nonzero;stroke:none"
         id="path28" /><path
         d="m 1875.54,463.801 -14.47,-9.172 c -12.5,16.93 -29.54,25.391 -51.14,25.391 -17.26,0 -31.6,-5.668 -43.02,-17 -11.4,-11.329 -17.11,-25.09 -17.11,-41.29 0,-10.539 2.63,-20.46 7.89,-29.742 5.24,-9.308 12.45,-16.519 21.59,-21.648 9.15,-5.141 19.41,-7.711 30.77,-7.711 20.83,0 37.83,8.473 51.02,25.402 l 14.47,-9.711 c -6.78,-10.41 -15.88,-18.488 -27.3,-24.23 -11.42,-5.738 -24.43,-8.61 -39.02,-8.61 -22.41,0 -41,7.27 -55.76,21.809 -14.78,14.531 -22.15,32.223 -22.15,53.043 0,14.008 3.46,27.008 10.36,39.02 6.9,12.007 16.39,21.386 28.47,28.117 12.07,6.73 25.57,10.101 40.51,10.101 9.38,0 18.44,-1.461 27.16,-4.379 8.73,-2.929 16.15,-6.742 22.22,-11.441 6.08,-4.699 11.25,-10.68 15.51,-17.949"
         style="fill:#5a2a94;fill-opacity:1;fill-rule:nonzero;stroke:none"
         id="path30" /><path
         d="m 1910.58,549.691 h 18.24 V 467.93 c 7.37,9.922 15.5,17.351 24.36,22.261 8.86,4.93 18.46,7.379 28.79,7.379 10.6,0 20,-2.738 28.22,-8.238 8.2,-5.5 14.25,-12.871 18.17,-22.133 3.91,-9.269 5.86,-23.777 5.86,-43.539 v -74.461 h -18.24 v 69.012 c 0,16.66 -0.65,27.777 -1.96,33.371 -2.25,9.566 -6.36,16.77 -12.31,21.59 -5.95,4.84 -13.74,7.25 -23.39,7.25 -11.02,0 -20.91,-3.723 -29.64,-11.16 -8.72,-7.453 -14.48,-16.672 -17.25,-27.66 -1.75,-7.09 -2.61,-20.211 -2.61,-39.352 v -53.051 h -18.24 v 200.492"
         style="fill:#5a2a94;fill-opacity:1;fill-rule:nonzero;stroke:none"
         id="path32" /><path
         d="m 2070.97,493.852 h 18.23 v -67.543 c 0,-16.477 0.88,-27.829 2.61,-34.028 2.61,-8.859 7.59,-15.871 14.95,-21.011 7.34,-5.129 16.11,-7.711 26.29,-7.711 10.17,0 18.81,2.511 25.9,7.511 7.09,5.012 11.98,11.59 14.67,19.75 1.83,5.578 2.75,17.418 2.75,35.489 v 67.543 h 18.62 v -70.993 c 0,-19.937 -2.27,-34.968 -6.84,-45.07 -4.55,-10.109 -11.42,-18.008 -20.58,-23.73 -9.16,-5.719 -20.65,-8.579 -34.46,-8.579 -13.81,0 -25.34,2.86 -34.58,8.579 -9.26,5.722 -16.17,13.703 -20.73,23.921 -4.55,10.25 -6.83,25.649 -6.83,46.211 v 69.661"
         style="fill:#5a2a94;fill-opacity:1;fill-rule:nonzero;stroke:none"
         id="path34" /><path
         d="m 2306.78,478.031 -11.72,-12.359 c -9.77,9.66 -19.3,14.476 -28.61,14.476 -5.93,0 -11.01,-1.988 -15.22,-5.976 -4.23,-3.992 -6.35,-8.641 -6.35,-13.961 0,-4.691 1.75,-9.172 5.23,-13.422 3.48,-4.348 10.79,-9.437 21.93,-15.289 13.59,-7.18 22.81,-14.09 27.69,-20.738 4.78,-6.731 7.17,-14.313 7.17,-22.731 0,-11.883 -4.08,-21.941 -12.26,-30.191 -8.18,-8.238 -18.4,-12.36 -30.67,-12.36 -8.18,0 -15.98,1.821 -23.41,5.45 -7.44,3.64 -13.6,8.64 -18.47,15.031 l 11.46,13.289 c 9.32,-10.719 19.2,-16.09 29.65,-16.09 7.31,0 13.54,2.399 18.68,7.18 5.12,4.789 7.7,10.422 7.7,16.89 0,5.321 -1.7,10.051 -5.09,14.219 -3.4,4.082 -11.06,9.223 -22.99,15.422 -12.79,6.738 -21.49,13.391 -26.11,19.938 -4.61,6.57 -6.92,14.05 -6.92,22.48 0,10.981 3.68,20.121 11.03,27.383 7.35,7.258 16.64,10.898 27.86,10.898 13.05,0 26.19,-6.511 39.42,-19.539"
         style="fill:#5a2a94;fill-opacity:1;fill-rule:nonzero;stroke:none"
         id="path36" /><path
         d="m 2458.44,436.148 c -2.44,9.934 -5.98,17.864 -10.64,23.801 -4.66,5.93 -10.81,10.723 -18.45,14.352 -7.67,3.64 -15.71,5.461 -24.13,5.461 -13.93,0 -25.89,-4.571 -35.87,-13.703 -7.33,-6.637 -12.85,-16.61 -16.59,-29.911 z m 0,-38.949 15.35,-8.238 c -5.03,-10.109 -10.85,-18.262 -17.45,-24.461 -6.61,-6.211 -14.04,-10.93 -22.31,-14.16 -8.25,-3.238 -17.6,-4.86 -28.03,-4.86 -23.14,0 -41.22,7.739 -54.26,23.2 -13.03,15.468 -19.55,32.949 -19.55,52.449 0,18.351 5.52,34.703 16.56,49.051 13.99,18.269 32.73,27.39 56.19,27.39 24.18,0 43.49,-9.351 57.9,-28.05 10.27,-13.211 15.49,-29.688 15.65,-49.45 h -127.53 c 0.34,-16.8 5.59,-30.57 15.76,-41.32 10.18,-10.738 22.74,-16.121 37.7,-16.121 7.22,0 14.25,1.281 21.08,3.84 6.81,2.562 12.64,5.961 17.4,10.203 4.79,4.238 9.97,11.078 15.54,20.527"
         style="fill:#5a2a94;fill-opacity:1;fill-rule:nonzero;stroke:none"
         id="path38" /><path
         d="m 2528.4,547.559 h 18.23 v -53.707 h 28.92 v -16.09 h -28.92 V 349.199 h -18.23 v 128.563 h -24.88 v 16.09 h 24.88 v 53.707"
         style="fill:#5a2a94;fill-opacity:1;fill-rule:nonzero;stroke:none"
         id="path40" /><path
         d="m 2618.82,547.559 h 18.23 v -53.707 h 28.92 v -16.09 h -28.92 V 349.199 h -18.23 v 128.563 h -24.89 v 16.09 h 24.89 v 53.707"
         style="fill:#5a2a94;fill-opacity:1;fill-rule:nonzero;stroke:none"
         id="path42" /><path
         d="m 2764.6,478.031 -11.73,-12.359 c -9.74,9.66 -19.29,14.476 -28.61,14.476 -5.91,0 -10.99,-1.988 -15.22,-5.976 -4.22,-3.992 -6.33,-8.641 -6.33,-13.961 0,-4.691 1.75,-9.172 5.22,-13.422 3.5,-4.348 10.8,-9.437 21.94,-15.289 13.59,-7.18 22.82,-14.09 27.68,-20.738 4.78,-6.731 7.18,-14.313 7.18,-22.731 0,-11.883 -4.09,-21.941 -12.27,-30.191 -8.17,-8.238 -18.39,-12.36 -30.65,-12.36 -8.19,0 -16,1.821 -23.43,5.45 -7.45,3.64 -13.59,8.64 -18.48,15.031 l 11.49,13.289 c 9.3,-10.719 19.19,-16.09 29.64,-16.09 7.3,0 13.52,2.399 18.67,7.18 5.13,4.789 7.69,10.422 7.69,16.89 0,5.321 -1.69,10.051 -5.08,14.219 -3.39,4.082 -11.06,9.223 -22.97,15.422 -12.8,6.738 -21.51,13.391 -26.13,19.938 -4.61,6.57 -6.91,14.05 -6.91,22.48 0,10.981 3.68,20.121 11.03,27.383 7.35,7.258 16.63,10.898 27.86,10.898 13.04,0 26.18,-6.511 39.41,-19.539"
         style="fill:#5a2a94;fill-opacity:1;fill-rule:nonzero;stroke:none"
         id="path44" /><path
         d="m 2853.98,385.629 16.28,9.973 c 11.47,-21.532 24.72,-32.301 39.75,-32.301 6.43,0 12.47,1.531 18.12,4.578 5.64,3.07 9.93,7.16 12.88,12.301 2.96,5.14 4.44,10.59 4.44,16.351 0,6.559 -2.17,12.981 -6.52,19.278 -5.99,8.691 -16.94,19.14 -32.83,31.382 -15.98,12.321 -25.93,21.219 -29.84,26.719 -6.78,9.219 -10.16,19.192 -10.16,29.91 0,8.512 2,16.27 6,23.27 3.98,7 9.62,12.519 16.87,16.551 7.24,4.031 15.13,6.05 23.64,6.05 9.04,0 17.49,-2.281 25.35,-6.851 7.85,-4.57 16.17,-12.961 24.95,-25.192 l -15.64,-12.097 c -7.21,9.75 -13.36,16.168 -18.44,19.281 -5.07,3.098 -10.61,4.648 -16.61,4.648 -7.73,0 -14.05,-2.39 -18.96,-7.179 -4.9,-4.789 -7.35,-10.68 -7.35,-17.68 0,-4.262 0.86,-8.383 2.6,-12.371 1.73,-3.988 4.91,-8.328 9.51,-13.02 2.52,-2.48 10.77,-9 24.75,-19.55 16.6,-12.489 27.97,-23.61 34.14,-33.371 6.17,-9.75 9.25,-19.539 9.25,-29.379 0,-14.168 -5.27,-26.5 -15.83,-36.961 -10.55,-10.457 -23.38,-15.68 -38.5,-15.68 -11.64,0 -22.2,3.16 -31.66,9.5 -9.47,6.34 -18.2,16.961 -26.19,31.84"
         style="fill:#5a2a94;fill-opacity:1;fill-rule:nonzero;stroke:none"
         id="path46" /><path
         d="m 3141.26,463.801 -14.47,-9.172 c -12.48,16.93 -29.53,25.391 -51.15,25.391 -17.25,0 -31.59,-5.668 -42.99,-17 -11.42,-11.329 -17.11,-25.09 -17.11,-41.29 0,-10.539 2.6,-20.46 7.87,-29.742 5.23,-9.308 12.45,-16.519 21.59,-21.648 9.15,-5.141 19.41,-7.711 30.78,-7.711 20.82,0 37.82,8.473 51.01,25.402 l 14.47,-9.711 c -6.78,-10.41 -15.88,-18.488 -27.29,-24.23 -11.42,-5.738 -24.44,-8.61 -39.03,-8.61 -22.41,0 -40.99,7.27 -55.76,21.809 -14.77,14.531 -22.15,32.223 -22.15,53.043 0,14.008 3.45,27.008 10.36,39.02 6.9,12.007 16.39,21.386 28.47,28.117 12.07,6.73 25.57,10.101 40.52,10.101 9.37,0 18.42,-1.461 27.16,-4.379 8.74,-2.929 16.13,-6.742 22.22,-11.441 6.07,-4.699 11.24,-10.68 15.5,-17.949"
         style="fill:#5a2a94;fill-opacity:1;fill-rule:nonzero;stroke:none"
         id="path48" /><path
         d="m 3176.31,549.691 h 18.25 V 467.93 c 7.38,9.922 15.5,17.351 24.36,22.261 8.86,4.93 18.44,7.379 28.79,7.379 10.6,0 20,-2.738 28.21,-8.238 8.21,-5.5 14.27,-12.871 18.17,-22.133 3.92,-9.269 5.87,-23.777 5.87,-43.539 v -74.461 h -18.25 v 69.012 c 0,16.66 -0.65,27.777 -1.94,33.371 -2.27,9.566 -6.36,16.77 -12.33,21.59 -5.94,4.84 -13.73,7.25 -23.38,7.25 -11.02,0 -20.91,-3.723 -29.64,-11.16 -8.73,-7.453 -14.48,-16.672 -17.26,-27.66 -1.74,-7.09 -2.6,-20.211 -2.6,-39.352 v -53.051 h -18.25 v 200.492"
         style="fill:#5a2a94;fill-opacity:1;fill-rule:nonzero;stroke:none"
         id="path50" /><path
         d="m 3406.06,479.359 c -15.15,0 -28.19,-5.718 -39.08,-17.148 -10.9,-11.441 -16.34,-25.262 -16.34,-41.481 0,-10.449 2.49,-20.21 7.45,-29.25 4.97,-9.039 11.68,-16.011 20.13,-20.941 8.45,-4.91 17.75,-7.379 27.84,-7.379 10.12,0 19.4,2.469 27.87,7.379 8.44,4.93 15.15,11.902 20.12,20.941 4.97,9.04 7.46,18.801 7.46,29.25 0,16.219 -5.47,30.04 -16.42,41.481 -10.93,11.43 -23.95,17.148 -39.03,17.148 z m 0.07,18.211 c 21.85,0 39.94,-8.058 54.3,-24.191 13.05,-14.707 19.59,-32.129 19.59,-52.25 0,-20.207 -6.9,-37.867 -20.69,-52.981 -13.8,-15.109 -31.53,-22.668 -53.2,-22.668 -21.74,0 -39.53,7.559 -53.31,22.668 -13.79,15.114 -20.68,32.774 -20.68,52.981 0,20.031 6.51,37.402 19.58,52.121 14.35,16.211 32.5,24.32 54.41,24.32"
         style="fill:#5a2a94;fill-opacity:1;fill-rule:nonzero;stroke:none"
         id="path52" /><path
         d="m 3580.77,479.359 c -15.15,0 -28.2,-5.718 -39.08,-17.148 -10.91,-11.441 -16.35,-25.262 -16.35,-41.481 0,-10.449 2.49,-20.21 7.44,-29.25 4.98,-9.039 11.69,-16.011 20.15,-20.941 8.45,-4.91 17.74,-7.379 27.84,-7.379 10.12,0 19.4,2.469 27.86,7.379 8.44,4.93 15.16,11.902 20.13,20.941 4.97,9.04 7.46,18.801 7.46,29.25 0,16.219 -5.48,30.04 -16.42,41.481 -10.93,11.43 -23.95,17.148 -39.03,17.148 z m 0.06,18.211 c 21.86,0 39.95,-8.058 54.31,-24.191 13.04,-14.707 19.58,-32.129 19.58,-52.25 0,-20.207 -6.9,-37.867 -20.69,-52.981 -13.8,-15.109 -31.52,-22.668 -53.2,-22.668 -21.74,0 -39.52,7.559 -53.3,22.668 -13.79,15.114 -20.69,32.774 -20.69,52.981 0,20.031 6.52,37.402 19.59,52.121 14.35,16.211 32.5,24.32 54.4,24.32"
         style="fill:#5a2a94;fill-opacity:1;fill-rule:nonzero;stroke:none"
         id="path54" /><path
         d="m 3685.73,549.691 h 18.24 V 349.199 h -18.24 v 200.492"
         style="fill:#5a2a94;fill-opacity:1;fill-rule:nonzero;stroke:none"
         id="path56" /><path
         d="m 3882.77,479.359 c -15.15,0 -28.19,-5.718 -39.08,-17.148 -10.9,-11.441 -16.35,-25.262 -16.35,-41.481 0,-10.449 2.49,-20.21 7.46,-29.25 4.97,-9.039 11.67,-16.011 20.14,-20.941 8.44,-4.91 17.74,-7.379 27.83,-7.379 10.13,0 19.4,2.469 27.87,7.379 8.44,4.93 15.15,11.902 20.12,20.941 4.97,9.04 7.46,18.801 7.46,29.25 0,16.219 -5.48,30.04 -16.42,41.481 -10.93,11.43 -23.95,17.148 -39.03,17.148 z m 0.07,18.211 c 21.85,0 39.94,-8.058 54.31,-24.191 13.04,-14.707 19.58,-32.129 19.58,-52.25 0,-20.207 -6.91,-37.867 -20.69,-52.981 -13.8,-15.109 -31.52,-22.668 -53.2,-22.668 -21.75,0 -39.52,7.559 -53.31,22.668 -13.79,15.114 -20.68,32.774 -20.68,52.981 0,20.031 6.52,37.402 19.58,52.121 14.35,16.211 32.5,24.32 54.41,24.32"
         style="fill:#5a2a94;fill-opacity:1;fill-rule:nonzero;stroke:none"
         id="path58" /><path
         d="m 4048.83,549.691 v -18.222 c -6.67,2.929 -12.41,4.39 -17.19,4.39 -3.56,0 -6.51,-0.73 -8.87,-2.187 -2.34,-1.473 -3.81,-3.152 -4.42,-5.051 -0.62,-1.91 -0.91,-6.992 -0.91,-15.23 l -0.01,-19.539 h 29.59 v -16.09 h -29.61 l -0.11,-128.563 h -18.24 v 128.563 h -18.62 v 16.09 h 18.62 v 22.597 c 0,10.371 0.94,17.77 2.81,22.199 1.87,4.434 5.03,8 9.51,10.711 4.47,2.7 9.88,4.051 16.23,4.051 5.9,0 12.98,-1.238 21.22,-3.719"
         style="fill:#5a2a94;fill-opacity:1;fill-rule:nonzero;stroke:none"
         id="path60" /><path
         d="m 0,89.3398 16.2813,9.9688 C 27.7461,77.7695 40.9961,67 56.0273,67 c 6.418,0 12.4532,1.5391 18.0977,4.5898 5.6523,3.0586 9.9531,7.1485 12.9063,12.3008 2.9492,5.1407 4.4296,10.5899 4.4296,16.3474 0,6.563 -2.1796,12.981 -6.5195,19.274 -5.9844,8.699 -16.9375,19.16 -32.8281,31.379 -15.9844,12.32 -25.9297,21.218 -29.832,26.718 -6.7813,9.223 -10.168,19.192 -10.168,29.911 0,8.519 2.0039,16.269 5.9961,23.269 3.9922,7 9.6211,12.52 16.8711,16.551 7.25,4.031 15.1328,6.051 23.6484,6.051 9.0313,0 17.4805,-2.282 25.3359,-6.852 7.8633,-4.551 16.1832,-12.961 24.9572,-25.187 L 93.2813,209.25 c -7.211,9.762 -13.3477,16.172 -18.4336,19.281 -5.0821,3.098 -10.6172,4.66 -16.6094,4.66 -7.7344,0 -14.0547,-2.402 -18.957,-7.179 -4.9102,-4.793 -7.3555,-10.68 -7.3555,-17.692 0,-4.25 0.8594,-8.379 2.6015,-12.359 1.7383,-3.981 4.9024,-8.332 9.5118,-13.031 2.5156,-2.481 10.7656,-8.989 24.75,-19.539 16.5937,-12.5 27.9648,-23.621 34.1369,-33.371 6.168,-9.75 9.246,-19.551 9.246,-29.379 0,-14.1801 -5.277,-26.5121 -15.8243,-36.9691 -10.5547,-10.4414 -23.3946,-15.6836 -38.5,-15.6836 -11.6446,0 -22.1914,3.1719 -31.6641,9.5 C 16.7188,63.832 7.99219,74.4492 0,89.3398"
         style="fill:#5a2a94;fill-opacity:1;fill-rule:nonzero;stroke:none"
         id="path62" /><path
         d="m 287.281,167.512 -14.465,-9.18 c -12.492,16.938 -29.539,25.387 -51.14,25.387 -17.266,0 -31.602,-5.66 -43.016,-16.989 -11.41,-11.339 -17.105,-25.101 -17.105,-41.3 0,-10.532 2.625,-20.461 7.871,-29.7386 5.246,-9.3008 12.449,-16.5117 21.601,-21.6523 9.149,-5.1407 19.407,-7.6993 30.774,-7.6993 20.82,0 37.828,8.461 51.015,25.3907 l 14.465,-9.711 c -6.773,-10.4101 -15.879,-18.4804 -27.297,-24.2187 -11.425,-5.75 -24.425,-8.6211 -39.023,-8.6211 -22.41,0 -40.996,7.2812 -55.758,21.8086 -14.773,14.543 -22.152,32.2227 -22.152,53.0507 0,14 3.453,27.012 10.355,39.012 6.91,12.008 16.399,21.39 28.469,28.121 12.074,6.726 25.582,10.098 40.52,10.098 9.382,0 18.441,-1.45 27.168,-4.379 8.726,-2.922 16.132,-6.731 22.21,-11.442 6.082,-4.699 11.25,-10.679 15.508,-17.937"
         style="fill:#5a2a94;fill-opacity:1;fill-rule:nonzero;stroke:none"
         id="path64" /><path
         d="m 319.59,197.551 h 18.246 V 52.9102 H 319.59 Z m 9.058,59.558 c 4.157,0 7.696,-1.5 10.633,-4.519 2.946,-3.008 4.414,-6.641 4.414,-10.899 0,-4.171 -1.468,-7.75 -4.414,-10.769 -2.937,-3.012 -6.476,-4.524 -10.633,-4.524 -4.07,0 -7.57,1.512 -10.507,4.524 -2.946,3.019 -4.414,6.598 -4.414,10.769 0,4.258 1.468,7.891 4.414,10.899 2.937,3.019 6.437,4.519 10.507,4.519"
         style="fill:#5a2a94;fill-opacity:1;fill-rule:nonzero;stroke:none"
         id="path66" /><path
         d="m 495.09,139.859 c -2.442,9.922 -5.985,17.86 -10.637,23.801 -4.652,5.93 -10.808,10.719 -18.457,14.352 -7.656,3.629 -15.703,5.449 -24.137,5.449 -13.918,0 -25.871,-4.563 -35.867,-13.691 -7.316,-6.649 -12.832,-16.622 -16.574,-29.911 z m 0,-38.961 15.363,-8.2378 C 505.414,82.5508 499.59,74.3984 492.984,68.1992 486.379,62 478.945,57.2813 470.68,54.0391 c -8.258,-3.2383 -17.606,-4.8594 -28.032,-4.8594 -23.125,0 -41.207,7.75 -54.253,23.2109 -13.04,15.461 -19.555,32.9494 -19.555,52.4494 0,18.34 5.515,34.691 16.562,49.051 13.989,18.257 32.727,27.379 56.203,27.379 24.168,0 43.465,-9.34 57.891,-28.04 10.262,-13.218 15.481,-29.699 15.652,-49.46 h -127.55 c 0.343,-16.79 5.605,-30.5708 15.781,-41.3208 10.176,-10.7383 22.738,-16.1094 37.699,-16.1094 7.219,0 14.242,1.2813 21.07,3.8399 6.821,2.5586 12.633,5.9609 17.407,10.1914 4.785,4.2383 9.968,11.0898 15.535,20.5269"
         style="fill:#5a2a94;fill-opacity:1;fill-rule:nonzero;stroke:none"
         id="path68" /><path
         d="m 549.156,197.551 h 18.239 v -25.922 c 7.293,9.93 15.375,17.359 24.238,22.262 8.855,4.929 18.5,7.379 28.926,7.379 10.593,0 19.992,-2.739 28.207,-8.239 8.203,-5.5 14.261,-12.89 18.172,-22.199 3.902,-9.301 5.855,-23.801 5.855,-43.473 V 52.9102 h -18.23 V 121.91 c 0,16.668 -0.684,27.781 -2.04,33.371 -2.109,9.571 -6.16,16.77 -12.156,21.598 -5.992,4.832 -13.812,7.242 -23.453,7.242 -11.035,0 -20.922,-3.723 -29.648,-11.16 -8.727,-7.449 -14.485,-16.672 -17.262,-27.652 -1.742,-7.18 -2.609,-20.297 -2.609,-39.348 V 52.9102 H 549.156 V 197.551"
         style="fill:#5a2a94;fill-opacity:1;fill-rule:nonzero;stroke:none"
         id="path70" /><path
         d="m 849.465,167.512 -14.461,-9.18 c -12.492,16.938 -29.543,25.387 -51.145,25.387 -17.265,0 -31.597,-5.66 -43.007,-16.989 -11.414,-11.339 -17.118,-25.101 -17.118,-41.3 0,-10.532 2.633,-20.461 7.879,-29.7386 5.246,-9.3008 12.45,-16.5117 21.602,-21.6523 9.148,-5.1407 19.406,-7.6993 30.769,-7.6993 20.825,0 37.829,8.461 51.02,25.3907 l 14.461,-9.711 C 842.691,71.6094 833.59,63.5391 822.172,57.8008 c -11.426,-5.75 -24.434,-8.6211 -39.024,-8.6211 -22.41,0 -40.996,7.2812 -55.761,21.8086 -14.77,14.543 -22.153,32.2227 -22.153,53.0507 0,14 3.457,27.012 10.364,39.012 6.902,12.008 16.39,21.39 28.465,28.121 12.074,6.726 25.582,10.098 40.515,10.098 9.387,0 18.442,-1.45 27.168,-4.379 8.727,-2.922 16.137,-6.731 22.207,-11.442 6.086,-4.699 11.258,-10.679 15.512,-17.937"
         style="fill:#5a2a94;fill-opacity:1;fill-rule:nonzero;stroke:none"
         id="path72" /><path
         d="m 1003.86,139.859 c -2.44,9.922 -5.985,17.86 -10.633,23.801 -4.657,5.93 -10.809,10.719 -18.457,14.352 -7.657,3.629 -15.704,5.449 -24.133,5.449 -13.922,0 -25.875,-4.563 -35.875,-13.691 -7.313,-6.649 -12.832,-16.622 -16.567,-29.911 z m 0,-38.961 15.37,-8.2378 C 1014.19,82.5508 1008.36,74.3984 1001.76,68.1992 995.148,62 987.719,57.2813 979.453,54.0391 c -8.258,-3.2383 -17.601,-4.8594 -28.035,-4.8594 -23.125,0 -41.203,7.75 -54.25,23.2109 -13.035,15.461 -19.559,32.9494 -19.559,52.4494 0,18.34 5.52,34.691 16.567,49.051 13.988,18.257 32.722,27.379 56.199,27.379 24.168,0 43.469,-9.34 57.895,-28.04 10.26,-13.218 15.48,-29.699 15.65,-49.46 H 896.371 c 0.344,-16.79 5.606,-30.5708 15.781,-41.3208 10.172,-10.7383 22.743,-16.1094 37.703,-16.1094 7.215,0 14.239,1.2813 21.067,3.8399 6.816,2.5586 12.629,5.9609 17.406,10.1914 4.785,4.2383 9.965,11.0898 15.532,20.5269"
         style="fill:#5a2a94;fill-opacity:1;fill-rule:nonzero;stroke:none"
         id="path74" /><path
         d="m 1076.04,88.8008 17.58,-8.5 -26.45,-50.2617 -12.9,5.5898 21.77,53.1719"
         style="fill:#5a2a94;fill-opacity:1;fill-rule:nonzero;stroke:none"
         id="path76" /><path
         d="m 1387.15,212.18 -15.11,-11.84 c -8.34,11.09 -18.35,19.488 -30.03,25.199 -11.68,5.723 -24.51,8.57 -38.5,8.57 -15.29,0 -29.45,-3.75 -42.48,-11.238 -13.03,-7.48 -23.12,-17.539 -30.29,-30.16 -7.16,-12.641 -10.74,-26.852 -10.74,-42.621 0,-23.84 8,-43.738 24.03,-59.6916 16.03,-15.9492 36.24,-23.9296 60.65,-23.9296 26.84,0 49.29,10.7226 67.36,32.1796 l 15.11,-11.6992 c -9.56,-12.4179 -21.48,-22.0195 -35.76,-28.7773 -14.29,-6.793 -30.25,-10.1836 -47.88,-10.1836 -33.53,0 -59.98,11.3906 -79.34,34.1719 -16.25,19.2308 -24.37,42.4488 -24.37,69.6598 0,28.629 9.83,52.711 29.51,72.27 19.67,19.531 44.32,29.301 73.93,29.301 17.9,0 34.06,-3.61 48.47,-10.84 14.42,-7.211 26.23,-17.34 35.44,-30.371"
         style="fill:#5a2a94;fill-opacity:1;fill-rule:nonzero;stroke:none"
         id="path78" /><path
         d="m 1415.68,197.551 h 18.63 v -21.129 c 5.56,8.328 11.43,14.547 17.59,18.68 6.17,4.109 12.6,6.168 19.28,6.168 5.04,0 10.43,-1.641 16.16,-4.911 l -9.51,-15.687 c -3.83,1.687 -7.04,2.527 -9.64,2.527 -6.08,0 -11.94,-2.551 -17.58,-7.648 -5.66,-5.102 -9.96,-13.012 -12.9,-23.731 -2.27,-8.242 -3.4,-24.898 -3.4,-49.988 V 52.9102 h -18.63 V 197.551"
         style="fill:#5a2a94;fill-opacity:1;fill-rule:nonzero;stroke:none"
         id="path80" /><path
         d="m 1621.15,139.859 c -2.44,9.922 -5.97,17.86 -10.63,23.801 -4.65,5.93 -10.81,10.719 -18.46,14.352 -7.66,3.629 -15.7,5.449 -24.13,5.449 -13.92,0 -25.88,-4.563 -35.87,-13.691 -7.31,-6.649 -12.83,-16.622 -16.57,-29.911 z m 0,-38.961 15.37,-8.2378 c -5.04,-10.1094 -10.86,-18.2618 -17.47,-24.461 -6.61,-6.1992 -14.04,-10.9179 -22.3,-14.1601 -8.26,-3.2383 -17.61,-4.8594 -28.04,-4.8594 -23.12,0 -41.2,7.75 -54.25,23.2109 -13.03,15.461 -19.56,32.9494 -19.56,52.4494 0,18.34 5.53,34.691 16.57,49.051 13.99,18.257 32.73,27.379 56.21,27.379 24.16,0 43.45,-9.34 57.89,-28.04 10.26,-13.218 15.48,-29.699 15.64,-49.46 h -127.55 c 0.35,-16.79 5.62,-30.5708 15.78,-41.3208 10.18,-10.7383 22.75,-16.1094 37.71,-16.1094 7.22,0 14.24,1.2813 21.06,3.8399 6.83,2.5586 12.64,5.9609 17.42,10.1914 4.78,4.2383 9.96,11.0898 15.52,20.5269"
         style="fill:#5a2a94;fill-opacity:1;fill-rule:nonzero;stroke:none"
         id="path82" /><path
         d="m 1743.55,183.332 c -10.15,0 -19.52,-2.562 -28.11,-7.633 -8.59,-5.09 -15.42,-12.25 -20.49,-21.461 -5.08,-9.199 -7.62,-18.937 -7.62,-29.207 0,-10.179 2.56,-19.922 7.68,-29.2107 5.12,-9.289 12,-16.5312 20.63,-21.7187 8.63,-5.1719 17.9,-7.7618 27.78,-7.7618 9.98,0 19.43,2.5586 28.37,7.6993 8.94,5.1406 15.81,12.0898 20.63,20.8515 4.81,8.7574 7.22,18.6404 7.22,29.6094 0,16.73 -5.4,30.719 -16.2,41.961 -10.8,11.25 -24.1,16.871 -39.89,16.871 z m 72.9,14.219 V 52.9102 h -17.98 v 24.8593 c -7.65,-9.4882 -16.22,-16.6093 -25.74,-21.3984 -9.51,-4.7813 -19.91,-7.1914 -31.2,-7.1914 -20.06,0 -37.19,7.4219 -51.39,22.2812 -14.2,14.8399 -21.3,32.8981 -21.3,54.1681 0,20.832 7.16,38.641 21.49,53.453 14.33,14.797 31.57,22.188 51.73,22.188 11.63,0 22.16,-2.52 31.59,-7.579 9.43,-5.043 17.69,-12.621 24.82,-22.722 v 26.582 h 17.98"
         style="fill:#5a2a94;fill-opacity:1;fill-rule:nonzero;stroke:none"
         id="path84" /><path
         d="m 1873.38,251.262 h 18.24 v -53.711 h 28.92 v -16.082 h -28.92 V 52.9102 h -18.24 V 181.469 h -24.89 v 16.082 h 24.89 v 53.711"
         style="fill:#5a2a94;fill-opacity:1;fill-rule:nonzero;stroke:none"
         id="path86" /><path
         d="m 1945.17,197.551 h 18.24 V 52.9102 h -18.24 z m 9.05,59.558 c 4.16,0 7.69,-1.5 10.63,-4.519 2.95,-3.008 4.42,-6.641 4.42,-10.899 0,-4.171 -1.47,-7.75 -4.42,-10.769 -2.94,-3.012 -6.47,-4.524 -10.63,-4.524 -4.06,0 -7.57,1.512 -10.51,4.524 -2.94,3.019 -4.41,6.598 -4.41,10.769 0,4.258 1.47,7.891 4.41,10.899 2.94,3.019 6.45,4.519 10.51,4.519"
         style="fill:#5a2a94;fill-opacity:1;fill-rule:nonzero;stroke:none"
         id="path88" /><path
         d="m 1987.9,197.551 h 19.41 l 47.59,-105.4416 47,105.4416 h 19.55 L 2056.56,52.9102 h -3.38 L 1987.9,197.551"
         style="fill:#5a2a94;fill-opacity:1;fill-rule:nonzero;stroke:none"
         id="path90" /><path
         d="m 2146.46,197.551 h 18.25 V 52.9102 h -18.25 z m 9.06,59.558 c 4.15,0 7.69,-1.5 10.63,-4.519 2.94,-3.008 4.42,-6.641 4.42,-10.899 0,-4.171 -1.48,-7.75 -4.42,-10.769 -2.94,-3.012 -6.48,-4.524 -10.63,-4.524 -4.07,0 -7.57,1.512 -10.51,4.524 -2.95,3.019 -4.41,6.598 -4.41,10.769 0,4.258 1.46,7.891 4.41,10.899 2.94,3.019 6.44,4.519 10.51,4.519"
         style="fill:#5a2a94;fill-opacity:1;fill-rule:nonzero;stroke:none"
         id="path92" /><path
         d="m 2218.51,251.262 h 18.24 v -53.711 h 28.92 v -16.082 h -28.92 V 52.9102 h -18.24 V 181.469 h -24.89 v 16.082 h 24.89 v 53.711"
         style="fill:#5a2a94;fill-opacity:1;fill-rule:nonzero;stroke:none"
         id="path94" /><path
         d="m 2277.79,197.551 h 19.28 l 48.72,-111.3791 47.3,111.3791 h 19.43 L 2327.96,0 h -19.28 l 27.29,63.8711 -58.18,133.6799"
         style="fill:#5a2a94;fill-opacity:1;fill-rule:nonzero;stroke:none"
         id="path96" /><path
         d="m 2578.3,183.332 c -10.15,0 -19.53,-2.562 -28.11,-7.633 -8.6,-5.09 -15.42,-12.25 -20.49,-21.461 -5.09,-9.199 -7.62,-18.937 -7.62,-29.207 0,-10.179 2.56,-19.922 7.68,-29.2107 5.11,-9.289 11.99,-16.5312 20.63,-21.7187 8.63,-5.1719 17.89,-7.7618 27.77,-7.7618 9.98,0 19.45,2.5586 28.37,7.6993 8.94,5.1406 15.81,12.0898 20.64,20.8515 4.81,8.7574 7.22,18.6404 7.22,29.6094 0,16.73 -5.41,30.719 -16.2,41.961 -10.81,11.25 -24.11,16.871 -39.89,16.871 z m 72.89,14.219 V 52.9102 h -17.97 v 24.8593 c -7.65,-9.4882 -16.22,-16.6093 -25.75,-21.3984 -9.5,-4.7813 -19.91,-7.1914 -31.2,-7.1914 -20.05,0 -37.19,7.4219 -51.4,22.2812 -14.2,14.8399 -21.3,32.8981 -21.3,54.1681 0,20.832 7.17,38.641 21.51,53.453 14.32,14.797 31.56,22.188 51.73,22.188 11.63,0 22.16,-2.52 31.59,-7.579 9.41,-5.043 17.68,-12.621 24.82,-22.722 v 26.582 h 17.97"
         style="fill:#5a2a94;fill-opacity:1;fill-rule:nonzero;stroke:none"
         id="path98" /><path
         d="m 2692.23,197.551 h 18.25 v -25.922 c 7.29,9.93 15.38,17.359 24.23,22.262 8.87,4.929 18.5,7.379 28.92,7.379 10.61,0 20,-2.739 28.22,-8.239 8.21,-5.5 14.26,-12.89 18.17,-22.199 3.91,-9.301 5.87,-23.801 5.87,-43.473 V 52.9102 h -18.25 V 121.91 c 0,16.668 -0.68,27.781 -2.02,33.371 -2.11,9.571 -6.19,16.77 -12.17,21.598 -5.99,4.832 -13.81,7.242 -23.45,7.242 -11.04,0 -20.93,-3.723 -29.65,-11.16 -8.73,-7.449 -14.49,-16.672 -17.27,-27.652 -1.73,-7.18 -2.6,-20.297 -2.6,-39.348 V 52.9102 h -18.25 V 197.551"
         style="fill:#5a2a94;fill-opacity:1;fill-rule:nonzero;stroke:none"
         id="path100" /><path
         d="m 2923.55,183.332 c -10.14,0 -19.52,-2.562 -28.1,-7.633 -8.58,-5.09 -15.42,-12.25 -20.51,-21.461 -5.07,-9.199 -7.6,-18.937 -7.6,-29.207 0,-10.179 2.55,-19.922 7.68,-29.2107 5.12,-9.289 12,-16.5312 20.62,-21.7187 8.63,-5.1719 17.89,-7.7618 27.79,-7.7618 9.98,0 19.42,2.5586 28.37,7.6993 8.93,5.1406 15.82,12.0898 20.61,20.8515 4.83,8.7574 7.23,18.6404 7.23,29.6094 0,16.73 -5.39,30.719 -16.2,41.961 -10.79,11.25 -24.08,16.871 -39.89,16.871 z m 72.91,70.059 V 52.9102 h -17.99 v 24.8593 c -7.63,-9.4882 -16.22,-16.6093 -25.73,-21.3984 -9.51,-4.7813 -19.91,-7.1914 -31.21,-7.1914 -20.06,0 -37.18,7.4219 -51.38,22.2812 -14.21,14.8399 -21.31,32.8981 -21.31,54.1681 0,20.832 7.17,38.641 21.49,53.453 14.34,14.797 31.57,22.188 51.72,22.188 11.65,0 22.18,-2.52 31.6,-7.579 9.43,-5.043 17.7,-12.621 24.82,-22.722 v 82.422 h 17.99"
         style="fill:#5a2a94;fill-opacity:1;fill-rule:nonzero;stroke:none"
         id="path102" /><path
         d="m 3114.62,248.469 h 19.16 V 71.7891 h 73.73 V 52.9102 h -92.89 V 248.469"
         style="fill:#5a2a94;fill-opacity:1;fill-rule:nonzero;stroke:none"
         id="path104" /><path
         d="m 3354.22,139.859 c -2.44,9.922 -5.99,17.86 -10.64,23.801 -4.65,5.93 -10.81,10.719 -18.45,14.352 -7.67,3.629 -15.71,5.449 -24.13,5.449 -13.93,0 -25.87,-4.563 -35.88,-13.691 -7.31,-6.649 -12.83,-16.622 -16.57,-29.911 z m 0,-38.961 15.37,-8.2378 c -5.05,-10.1094 -10.87,-18.2618 -17.48,-24.461 -6.6,-6.1992 -14.03,-10.9179 -22.29,-14.1601 -8.26,-3.2383 -17.61,-4.8594 -28.04,-4.8594 -23.14,0 -41.21,7.75 -54.24,23.2109 -13.05,15.461 -19.57,32.9494 -19.57,52.4494 0,18.34 5.52,34.691 16.56,49.051 14,18.257 32.72,27.379 56.2,27.379 24.18,0 43.46,-9.34 57.9,-28.04 10.26,-13.218 15.47,-29.699 15.66,-49.46 h -127.55 c 0.34,-16.79 5.59,-30.5708 15.78,-41.3208 10.17,-10.7383 22.73,-16.1094 37.7,-16.1094 7.2,0 14.22,1.2813 21.06,3.8399 6.82,2.5586 12.63,5.9609 17.41,10.1914 4.79,4.2383 9.96,11.0898 15.53,20.5269"
         style="fill:#5a2a94;fill-opacity:1;fill-rule:nonzero;stroke:none"
         id="path106" /><path
         d="m 3476.62,183.332 c -10.15,0 -19.53,-2.562 -28.12,-7.633 -8.59,-5.09 -15.42,-12.25 -20.49,-21.461 -5.08,-9.199 -7.62,-18.937 -7.62,-29.207 0,-10.179 2.57,-19.922 7.69,-29.2107 5.1,-9.289 11.99,-16.5312 20.62,-21.7187 8.63,-5.1719 17.89,-7.7618 27.78,-7.7618 9.98,0 19.45,2.5586 28.37,7.6993 8.93,5.1406 15.81,12.0898 20.64,20.8515 4.81,8.7574 7.22,18.6404 7.22,29.6094 0,16.73 -5.41,30.719 -16.21,41.961 -10.81,11.25 -24.1,16.871 -39.88,16.871 z m 72.89,14.219 V 52.9102 h -17.98 v 24.8593 c -7.64,-9.4882 -16.22,-16.6093 -25.74,-21.3984 -9.51,-4.7813 -19.91,-7.1914 -31.2,-7.1914 -20.05,0 -37.2,7.4219 -51.4,22.2812 -14.2,14.8399 -21.3,32.8981 -21.3,54.1681 0,20.832 7.16,38.641 21.51,53.453 14.32,14.797 31.56,22.188 51.72,22.188 11.64,0 22.17,-2.52 31.6,-7.579 9.41,-5.043 17.68,-12.621 24.81,-22.722 v 26.582 h 17.98"
         style="fill:#5a2a94;fill-opacity:1;fill-rule:nonzero;stroke:none"
         id="path108" /><path
         d="m 3659.15,183.332 c -10.16,0 -19.52,-2.562 -28.1,-7.633 -8.6,-5.09 -15.43,-12.25 -20.51,-21.461 -5.07,-9.199 -7.6,-18.937 -7.6,-29.207 0,-10.179 2.55,-19.922 7.68,-29.2107 5.11,-9.289 11.99,-16.5312 20.61,-21.7187 8.63,-5.1719 17.89,-7.7618 27.79,-7.7618 9.98,0 19.43,2.5586 28.37,7.6993 8.94,5.1406 15.81,12.0898 20.62,20.8515 4.81,8.7574 7.22,18.6404 7.22,29.6094 0,16.73 -5.4,30.719 -16.2,41.961 -10.79,11.25 -24.09,16.871 -39.88,16.871 z m 72.9,70.059 V 52.9102 h -17.99 v 24.8593 c -7.63,-9.4882 -16.22,-16.6093 -25.73,-21.3984 -9.5,-4.7813 -19.9,-7.1914 -31.2,-7.1914 -20.07,0 -37.2,7.4219 -51.4,22.2812 -14.2,14.8399 -21.3,32.8981 -21.3,54.1681 0,20.832 7.16,38.641 21.49,53.453 14.34,14.797 31.58,22.188 51.73,22.188 11.65,0 22.17,-2.52 31.59,-7.579 9.43,-5.043 17.7,-12.621 24.82,-22.722 v 82.422 h 17.99"
         style="fill:#5a2a94;fill-opacity:1;fill-rule:nonzero;stroke:none"
         id="path110" /><path
         d="m 3892.7,139.859 c -2.45,9.922 -6,17.86 -10.64,23.801 -4.67,5.93 -10.81,10.719 -18.46,14.352 -7.66,3.629 -15.7,5.449 -24.13,5.449 -13.92,0 -25.88,-4.563 -35.89,-13.691 -7.29,-6.649 -12.82,-16.622 -16.56,-29.911 z m 0,-38.961 15.37,-8.2378 c -5.05,-10.1094 -10.87,-18.2618 -17.48,-24.461 -6.61,-6.1992 -14.04,-10.9179 -22.3,-14.1601 -8.25,-3.2383 -17.61,-4.8594 -28.04,-4.8594 -23.13,0 -41.22,7.75 -54.24,23.2109 -13.04,15.461 -19.56,32.9494 -19.56,52.4494 0,18.34 5.51,34.691 16.56,49.051 13.99,18.257 32.71,27.379 56.19,27.379 24.18,0 43.47,-9.34 57.9,-28.04 10.26,-13.218 15.47,-29.699 15.66,-49.46 h -127.54 c 0.34,-16.79 5.59,-30.5708 15.78,-41.3208 10.16,-10.7383 22.73,-16.1094 37.68,-16.1094 7.22,0 14.24,1.2813 21.08,3.8399 6.81,2.5586 12.61,5.9609 17.4,10.1914 4.78,4.2383 9.97,11.0898 15.54,20.5269"
         style="fill:#5a2a94;fill-opacity:1;fill-rule:nonzero;stroke:none"
         id="path112" /><path
         d="m 3939.85,197.551 h 18.63 v -21.129 c 5.56,8.328 11.41,14.547 17.59,18.68 6.17,4.109 12.59,6.168 19.29,6.168 5.03,0 10.41,-1.641 16.14,-4.911 l -9.51,-15.687 c -3.82,1.687 -7.02,2.527 -9.64,2.527 -6.08,0 -11.94,-2.551 -17.59,-7.648 -5.65,-5.102 -9.95,-13.012 -12.88,-23.731 -2.28,-8.242 -3.4,-24.898 -3.4,-49.988 V 52.9102 h -18.63 V 197.551"
         style="fill:#5a2a94;fill-opacity:1;fill-rule:nonzero;stroke:none"
         id="path114" /><path
         d="m 4098.27,181.73 -11.73,-12.359 c -9.74,9.66 -19.28,14.488 -28.6,14.488 -5.92,0 -11,-1.988 -15.22,-5.988 -4.22,-3.98 -6.33,-8.641 -6.33,-13.949 0,-4.703 1.75,-9.172 5.22,-13.434 3.49,-4.328 10.79,-9.429 21.94,-15.289 13.58,-7.179 22.81,-14.078 27.67,-20.73 4.79,-6.739 7.18,-14.321 7.18,-22.7385 0,-11.8789 -4.08,-21.9297 -12.27,-30.1719 -8.17,-8.25 -18.39,-12.3789 -30.65,-12.3789 -8.18,0 -16,1.8203 -23.43,5.4609 -7.44,3.6289 -13.59,8.6407 -18.47,15.0196 l 11.48,13.289 c 9.31,-10.7187 19.19,-16.0781 29.64,-16.0781 7.3,0 13.53,2.3906 18.67,7.1797 5.14,4.7812 7.69,10.418 7.69,16.8789 0,5.3203 -1.68,10.0583 -5.07,14.2303 -3.4,4.07 -11.06,9.219 -22.98,15.422 -12.79,6.738 -21.51,13.379 -26.12,19.938 -4.61,6.562 -6.91,14.039 -6.91,22.468 0,10.992 3.67,20.121 11.03,27.383 7.34,7.27 16.62,10.899 27.85,10.899 13.04,0 26.18,-6.508 39.41,-19.54"
         style="fill:#5a2a94;fill-opacity:1;fill-rule:nonzero;stroke:none"
         id="path116" /><path
         d="m 4130.59,253.391 h 18.25 v -81.762 c 7.38,9.93 15.5,17.359 24.35,22.262 8.87,4.929 18.46,7.379 28.79,7.379 10.61,0 20.01,-2.739 28.23,-8.239 8.2,-5.5 14.25,-12.871 18.17,-22.133 3.91,-9.269 5.86,-23.777 5.86,-43.539 V 52.9102 h -18.25 V 121.91 c 0,16.668 -0.65,27.781 -1.94,33.371 -2.27,9.571 -6.36,16.77 -12.33,21.598 -5.94,4.832 -13.73,7.242 -23.38,7.242 -11.03,0 -20.91,-3.723 -29.64,-11.16 -8.73,-7.449 -14.48,-16.672 -17.26,-27.652 -1.74,-7.09 -2.6,-20.207 -2.6,-39.348 V 52.9102 h -18.25 V 253.391"
         style="fill:#5a2a94;fill-opacity:1;fill-rule:nonzero;stroke:none"
         id="path118" /><path
         d="m 4290.59,197.551 h 18.24 V 52.9102 h -18.24 z m 9.04,59.558 c 4.16,0 7.71,-1.5 10.65,-4.519 2.92,-3.008 4.41,-6.641 4.41,-10.899 0,-4.171 -1.49,-7.75 -4.41,-10.769 -2.94,-3.012 -6.49,-4.524 -10.65,-4.524 -4.05,0 -7.56,1.512 -10.5,4.524 -2.94,3.019 -4.4,6.598 -4.4,10.769 0,4.258 1.46,7.891 4.4,10.899 2.94,3.019 6.45,4.519 10.5,4.519"
         style="fill:#5a2a94;fill-opacity:1;fill-rule:nonzero;stroke:none"
         id="path120" /><path
         d="m 4419.95,183.332 c -15.78,0 -29.06,-5.621 -39.83,-16.871 -10.79,-11.242 -16.19,-25.231 -16.19,-41.961 0,-10.969 2.41,-20.852 7.21,-29.6094 4.82,-8.7617 11.7,-15.7109 20.68,-20.8515 8.96,-5.1407 18.42,-7.6993 28.4,-7.6993 9.79,0 18.99,2.5899 27.62,7.7618 8.62,5.1875 15.48,12.4297 20.6,21.7187 5.11,9.2887 7.66,19.0317 7.66,29.2107 0,10.27 -2.53,20.008 -7.59,29.207 -5.07,9.211 -11.9,16.371 -20.48,21.461 -8.58,5.071 -17.94,7.633 -28.08,7.633 z m -72.96,14.219 h 18.23 v -26.582 c 7.22,10.101 15.5,17.679 24.88,22.722 9.36,5.059 19.81,7.579 31.36,7.579 20.12,0 37.35,-7.391 51.68,-22.188 14.3,-14.812 21.47,-32.621 21.47,-53.453 0,-21.27 -7.1,-39.3282 -21.29,-54.1681 -14.19,-14.8593 -31.3,-22.2812 -51.34,-22.2812 -11.29,0 -21.66,2.4101 -31.1,7.1914 -9.46,4.7891 -18.02,11.9102 -25.66,21.3984 V 0 h -18.23 v 197.551"
         style="fill:#5a2a94;fill-opacity:1;fill-rule:nonzero;stroke:none"
         id="path122" /><path
         d="m 3780.83,1452.26 c -55.09,0 -106.07,-13.84 -152.79,-41.48 -46.75,-27.6 -83.72,-66.53 -111.36,-116.63 -27.61,-50.02 -41.3,-103.01 -41.3,-158.79 0,-55.36 13.75,-108.36 41.75,-158.887 27.7,-50.446 65.1,-89.825 111.94,-118.055 47,-28.105 97.22,-42.141 151.09,-42.141 54.32,0 105.63,13.985 154.31,41.84 48.61,27.86 86.04,65.774 111.94,113.367 26.41,47.576 39.48,101.356 39.48,160.966 0,90.99 -29.52,166.98 -88.08,228.2 -58.75,61.03 -131.06,91.61 -216.98,91.61 z m 396.4,77.39 V 743.164 h -97.79 v 135.164 c -41.52,-51.441 -88.05,-90.312 -139.86,-116.273 -51.58,-26.117 -108.19,-38.977 -169.65,-38.977 -109.01,0 -202.21,40.246 -279.4,120.977 -77.13,80.758 -115.8,178.945 -115.8,294.575 0,113.18 38.8,210.12 116.87,290.54 77.94,80.43 171.71,120.65 281.16,120.65 63.26,0 120.56,-13.66 171.81,-41.1 51.26,-27.46 96.37,-68.71 134.87,-123.73 v 144.66 h 97.79"
         style="fill:#5a2a94;fill-opacity:1;fill-rule:nonzero;stroke:none"
         id="path124" /><path
         d="m 3780.83,1452.26 c -55.09,0 -106.07,-13.84 -152.79,-41.48 -46.75,-27.6 -83.72,-66.53 -111.36,-116.63 -27.61,-50.02 -41.3,-103.01 -41.3,-158.79 0,-55.36 13.75,-108.36 41.75,-158.887 27.7,-50.446 65.1,-89.825 111.94,-118.055 47,-28.105 97.22,-42.141 151.09,-42.141 54.32,0 105.63,13.985 154.31,41.84 48.61,27.86 86.04,65.774 111.94,113.367 26.41,47.576 39.48,101.356 39.48,160.966 0,90.99 -29.52,166.98 -88.08,228.2 -58.75,61.03 -131.06,91.61 -216.98,91.61 z m 396.4,77.39 V 743.164 h -97.79 v 135.164 c -41.52,-51.441 -88.05,-90.312 -139.86,-116.273 -51.58,-26.117 -108.19,-38.977 -169.65,-38.977 -109.01,0 -202.21,40.246 -279.4,120.977 -77.13,80.758 -115.8,178.945 -115.8,294.575 0,113.18 38.8,210.12 116.87,290.54 77.94,80.43 171.71,120.65 281.16,120.65 63.26,0 120.56,-13.66 171.81,-41.1 51.26,-27.46 96.37,-68.71 134.87,-123.73 v 144.66 z"
         style="fill:none;stroke:#5a2a94;stroke-width:14.1938;stroke-linecap:butt;stroke-linejoin:miter;stroke-miterlimit:10;stroke-dasharray:none;stroke-opacity:1"
         id="path126" /><path
         d="m 1664.39,715.273 c -274.46,0 -410.84,198.508 -516.35,383.287 v 0 c -117.01,212.24 -217.001,363.85 -414.169,363.85 -172.625,0 -313.125,-145.61 -313.125,-324.42 0,-181.088 134.543,-322.865 306.199,-322.865 92.481,0 223.078,62.027 291.025,198.035 l 12.79,25.53 h 93.36 V 742.602 h -92.56 v 126.5 C 942.457,768.656 822.867,722.641 726.945,722.641 c -223.617,0 -398.664,182.461 -398.664,415.349 0,229.87 181.93,416.92 405.59,416.92 259.039,0 377.909,-189.32 495.979,-413.23 96.74,-169.133 210.23,-333.86 434.54,-333.86 117.31,0 224.46,57.789 286.79,154.575 l 77.84,-50.067 C 1949.54,788.926 1813.19,715.273 1664.39,715.273"
         style="fill:#6ac32f;fill-opacity:1;fill-rule:nonzero;stroke:none"
         id="path128" /><path
         d="m 1664.39,715.273 c -274.46,0 -410.84,198.508 -516.35,383.287 v 0 c -117.01,212.24 -217.001,363.85 -414.169,363.85 -172.625,0 -313.125,-145.61 -313.125,-324.42 0,-181.088 134.543,-322.865 306.199,-322.865 92.481,0 223.078,62.027 291.025,198.035 l 12.79,25.53 h 93.36 V 742.602 h -92.56 v 126.5 C 942.457,768.656 822.867,722.641 726.945,722.641 c -223.617,0 -398.664,182.461 -398.664,415.349 0,229.87 181.93,416.92 405.59,416.92 259.039,0 377.909,-189.32 495.979,-413.23 96.74,-169.133 210.23,-333.86 434.54,-333.86 117.31,0 224.46,57.789 286.79,154.575 l 77.84,-50.067 C 1949.54,788.926 1813.19,715.273 1664.39,715.273 Z"
         style="fill:none;stroke:#6ac32f;stroke-width:14.1938;stroke-linecap:butt;stroke-linejoin:miter;stroke-miterlimit:10;stroke-dasharray:none;stroke-opacity:1"
         id="path130" /><path
         d="m 2747.63,1234.43 c -13.32,53.95 -32.42,97.05 -57.75,129.45 -25.25,32.24 -58.78,58.36 -100.35,78.07 -41.66,19.66 -85.46,29.61 -131.22,29.61 -75.63,0 -140.72,-24.85 -195.14,-74.48 -39.62,-36.16 -69.72,-90.36 -89.96,-162.65 z m 0,-211.79 83.66,-44.796 c -27.38,-54.899 -59.2,-99.281 -95.08,-133.016 -35.91,-33.664 -76.18,-59.312 -121.28,-76.953 -44.95,-17.52 -95.67,-26.309 -152.36,-26.309 -125.65,0 -224.04,41.961 -294.92,125.965 -71.01,84.258 -106.44,179.229 -106.44,285.239 0,99.79 30.03,188.74 90.09,266.8 76.12,99.18 178.01,148.77 305.48,148.77 131.45,0 236.48,-50.88 314.73,-152.51 55.92,-71.66 84.23,-161.43 85.33,-268.79 h -693.58 c 1.85,-91.44 30.46,-166.329 85.78,-224.704 55.35,-58.461 123.66,-87.52 204.95,-87.52 39.23,0 77.43,6.911 114.58,20.86 36.95,13.89 68.61,32.301 94.79,55.402 25.95,23.055 54.05,60.219 84.27,111.562"
         style="fill:#5a2a94;fill-opacity:1;fill-rule:nonzero;stroke:none"
         id="path132" /><path
         d="m 2747.63,1234.43 c -13.32,53.95 -32.42,97.05 -57.75,129.45 -25.25,32.24 -58.78,58.36 -100.35,78.07 -41.66,19.66 -85.46,29.61 -131.22,29.61 -75.63,0 -140.72,-24.85 -195.14,-74.48 -39.62,-36.16 -69.72,-90.36 -89.96,-162.65 z m 0,-211.79 83.66,-44.796 c -27.38,-54.899 -59.2,-99.281 -95.08,-133.016 -35.91,-33.664 -76.18,-59.312 -121.28,-76.953 -44.95,-17.52 -95.67,-26.309 -152.36,-26.309 -125.65,0 -224.04,41.961 -294.92,125.965 -71.01,84.258 -106.44,179.229 -106.44,285.239 0,99.79 30.03,188.74 90.09,266.8 76.12,99.18 178.01,148.77 305.48,148.77 131.45,0 236.48,-50.88 314.73,-152.51 55.92,-71.66 84.23,-161.43 85.33,-268.79 h -693.58 c 1.85,-91.44 30.46,-166.329 85.78,-224.704 55.35,-58.461 123.66,-87.52 204.95,-87.52 39.23,0 77.43,6.911 114.58,20.86 36.95,13.89 68.61,32.301 94.79,55.402 25.95,23.055 54.05,60.219 84.27,111.562 z"
         style="fill:none;stroke:#5a2a94;stroke-width:14.1938;stroke-linecap:butt;stroke-linejoin:miter;stroke-miterlimit:10;stroke-dasharray:none;stroke-opacity:1"
         id="path134" /><path
         d="m 3004.04,1548.07 h 101.3 v -114.89 c 30.13,45.28 62.24,79.2 95.68,101.59 33.45,22.36 68.34,33.57 104.77,33.57 27.42,0 56.67,-8.86 87.79,-26.7 l -51.67,-85.33 c -20.73,9.18 -38.29,13.76 -52.55,13.76 -32.97,0 -64.74,-13.92 -95.45,-41.51 -30.65,-27.76 -54.07,-70.76 -70.28,-129.03 -12.08,-44.83 -18.29,-135.5 -18.29,-271.74 V 761.805 h -101.3 v 786.265"
         style="fill:#5a2a94;fill-opacity:1;fill-rule:nonzero;stroke:none"
         id="path136" /><path
         d="m 3004.04,1548.07 h 101.3 v -114.89 c 30.13,45.28 62.24,79.2 95.68,101.59 33.45,22.36 68.34,33.57 104.77,33.57 27.42,0 56.67,-8.86 87.79,-26.7 l -51.67,-85.33 c -20.73,9.18 -38.29,13.76 -52.55,13.76 -32.97,0 -64.74,-13.92 -95.45,-41.51 -30.65,-27.76 -54.07,-70.76 -70.28,-129.03 -12.08,-44.83 -18.29,-135.5 -18.29,-271.74 V 761.805 h -101.3 z"
         style="fill:none;stroke:#5a2a94;stroke-width:14.1938;stroke-linecap:butt;stroke-linejoin:miter;stroke-miterlimit:10;stroke-dasharray:none;stroke-opacity:1"
         id="path138" /><path
         d="m 1316.46,1133.02 c 22.05,223.71 194.34,337.12 347.93,337.12 111.67,0 216.08,-53.64 279.18,-143.38 l 75.69,53.13 c -80.43,114.49 -213.1,182.68 -354.87,182.68 -166.16,0 -348.56,-97 -416.01,-306.59 l 68.08,-122.96"
         style="fill:#5a2a94;fill-opacity:1;fill-rule:nonzero;stroke:none"
         id="path140" /><path
         d="m 1316.46,1133.02 c 22.05,223.71 194.34,337.12 347.93,337.12 111.67,0 216.08,-53.64 279.18,-143.38 l 75.69,53.13 c -80.43,114.49 -213.1,182.68 -354.87,182.68 -166.16,0 -348.56,-97 -416.01,-306.59 z"
         style="fill:none;stroke:#5a2a94;stroke-width:14.203;stroke-linecap:butt;stroke-linejoin:miter;stroke-miterlimit:10;stroke-dasharray:none;stroke-opacity:1"
         id="path142" /><path
         d="m 1666.13,1112 c -15.02,0 -27.42,12.36 -27.42,27.68 0,15.07 12.4,27.37 27.42,27.37 15.24,0 27.57,-12.3 27.57,-27.37 0,-15.32 -12.33,-27.68 -27.57,-27.68 z m 45.79,9.73 c 1.33,3.22 2.29,6.67 2.73,10.4 l 15.48,1.95 -0.19,10.81 -15.44,1.74 c -0.01,0.92 -0.21,1.76 -0.58,2.53 -0.04,0.18 -0.04,0.36 -0.04,0.42 -0.14,0.71 -0.28,1.55 -0.37,2.33 0,0.07 0,0.13 -0.1,0.3 -0.16,0.8 -0.61,1.52 -0.78,2.27 0,0.11 0,0.11 0,0.15 -0.24,0.75 -0.71,1.57 -0.86,2.38 v 0 l 12.17,9.32 -5.26,9.45 -14.43,-6.29 c -2.19,2.85 -4.76,5.28 -7.61,7.51 0,0 0,0 -0.01,0 l 6.09,14.44 -9.17,5.36 -9.45,-12.45 c -3.35,1.19 -6.76,2.22 -10.15,2.72 v 0 l -2.14,15.46 h -10.72 l -1.64,-15.65 c -1.25,-0.12 -2.05,-0.2 -2.97,-0.31 -0.27,-0.11 -0.5,-0.26 -0.72,-0.28 -0.91,-0.13 -1.42,-0.41 -2.07,-0.55 -0.29,0 -0.34,-0.12 -0.79,-0.2 -0.81,-0.17 -1.47,-0.47 -2.36,-0.74 -0.08,0 -0.1,0 -0.19,-0.03 -0.94,-0.36 -1.81,-0.81 -2.82,-1.13 l -9.71,12.29 -9.27,-5.67 6.89,-14.22 v 0 c -0.75,-0.56 -1.33,-1.12 -2.01,-1.59 0,-0.17 -0.1,-0.3 -0.24,-0.44 -0.56,-0.33 -1.08,-1.01 -1.66,-1.67 -0.1,-0.09 -0.1,-0.19 -0.26,-0.3 -0.63,-0.58 -1.19,-1.08 -1.79,-1.83 l -0.09,-0.07 c -0.48,-0.77 -1,-1.29 -1.63,-2.16 v 0 l -14.37,5.99 -5.21,-9.42 12.9,-8.76 v 0 c -0.67,-1.88 -1.09,-3.54 -1.4,-5.33 -0.1,-0.17 -0.18,-0.27 -0.26,-0.38 -0.26,-0.74 -0.37,-1.64 -0.59,-2.42 0,-0.11 0,-0.22 0,-0.3 -0.14,-1.08 -0.25,-1.69 -0.34,-2.67 v 0 0 l -15.69,-1.83 0.37,-10.75 15.58,-1.15 v 0 c 0.08,-1.01 0.3,-1.37 0.6,-2.56 0,-0.11 0.07,-0.23 0.07,-0.31 0.26,-0.53 0.47,-1.59 0.57,-2.17 0.08,-0.13 0.08,-0.19 0.16,-0.74 0.23,-0.73 0.47,-1.42 0.83,-2.25 0,-0.11 0,-0.15 0,-0.24 0.31,-0.93 0.55,-1.64 0.95,-2.47 v 0 l -12.47,-9.45 5.57,-9.34 14.22,6.8 v 0 c 1.06,-1.46 2.28,-2.68 3.69,-3.97 0.11,-0.12 0.11,-0.15 0.11,-0.19 0.59,-0.61 1.25,-1.14 1.81,-1.57 0.07,-0.17 0.22,-0.27 0.44,-0.31 0.61,-0.56 1.02,-1.09 1.83,-1.66 v 0 l -6.07,-14.53 9.49,-5.22 9.18,12.9 c 3.41,-1.29 6.75,-2.2 10.24,-2.67 l 2.25,-15.72 10.65,0.39 1.55,15.42 c 0.94,0.19 1.92,0.38 2.61,0.53 0.1,0 0.23,0 0.23,0.08 0.84,0.25 1.74,0.3 2.57,0.68 0,0 0.03,0 0.12,0.02 0.67,0.23 1.57,0.47 2.34,0.62 0,0 0.1,0 0.15,0.06 0.86,0.41 1.66,0.67 2.31,0.92 l 9.64,-12.36 9.18,5.6 -6.26,14.1 c 2.08,1.9 4.06,3.58 5.84,5.72 v 0.03 c 0.6,0.61 1.1,1.32 1.72,1.99 l 14.5,-5.84 5.13,9.36 -12.58,9.12 v 0"
         style="fill:#6ac32f;fill-opacity:1;fill-rule:nonzero;stroke:none"
         id="path144" /><path
         d="m 1684.36,1245 c 10.51,-1.71 23.53,-5.91 32.21,-10.85 l 28.23,45.67 c -14.67,8.41 -35.04,15.25 -52.85,18.18 -18.3,3.03 -39.49,2.56 -56.04,-0.98 l 12.63,-52.02 c 9.23,1.91 25.01,1.8 35.82,0"
         style="fill:#5a2a94;fill-opacity:1;fill-rule:nonzero;stroke:none"
         id="path146" /><path
         d="m 1769.39,1170.46 52.35,12.15 c -8.56,33.4 -31.31,65.82 -62.99,88.39 l -28.03,-45.5 c 19.7,-14.43 34.68,-39.3 38.67,-55.04"
         style="fill:#5a2a94;fill-opacity:1;fill-rule:nonzero;stroke:none"
         id="path148" /><path
         d="m 1508.46,1108.68 c -9.62,42.52 5.12,88.16 16.17,106.21 l 45.64,-28.03 c -14.42,-30.13 -11.51,-53.63 -9.71,-66.01 l -52.1,-12.17"
         style="fill:#5a2a94;fill-opacity:1;fill-rule:nonzero;stroke:none"
         id="path150" /><path
         d="m 1575.22,1006.38 c -28.83,18.47 -53.58,53.42 -62.96,86.03 l 52.27,12.44 c 6.25,-19.17 20.93,-40.53 38.99,-52.93 l -28.3,-45.54"
         style="fill:#5a2a94;fill-opacity:1;fill-rule:nonzero;stroke:none"
         id="path152" /><path
         d="m 1695.7,980.477 c -41.57,-8.539 -84.65,4.3 -106.31,17.082 l 28.24,45.531 c 24.38,-11.3 41.93,-13.49 65.47,-10.45 l 12.6,-52.163"
         style="fill:#5a2a94;fill-opacity:1;fill-rule:nonzero;stroke:none"
         id="path154" /><path
         d="m 1711.92,984.461 c 34.26,9.859 65.99,32.559 86.47,62.069 l -45.57,28.26 c -7.67,-11.7 -29.79,-31.31 -53.62,-38.27 l 12.72,-52.059"
         style="fill:#5a2a94;fill-opacity:1;fill-rule:nonzero;stroke:none"
         id="path156" /><path
         d="m 1825.37,1166.47 -52.27,-12.4 c 2.18,-16.89 2.18,-38.29 -11.5,-65.36 l 45.75,-28 c 8.87,15.49 26.71,55.07 18.02,105.76"
         style="fill:#5a2a94;fill-opacity:1;fill-rule:nonzero;stroke:none"
         id="path158" /><path
         d="m 1632.45,1240.84 -12.74,52.23 c -36.16,-11.25 -65.63,-33.41 -86.48,-63.71 l 45.63,-28.09 c 12.9,17.46 30.01,31.63 53.59,39.57"
         style="fill:#5a2a94;fill-opacity:1;fill-rule:nonzero;stroke:none"
         id="path160" /><path
         d="m 1666.11,1137.37 0.19,0.04 0.1,0.11 -0.41,0.33 0.12,-0.48"
         style="fill:#5a2a94;fill-opacity:1;fill-rule:nonzero;stroke:none"
         id="path162" /><path
         d="m 1666.53,1137.46 -0.13,0.06 -0.1,-0.11 z"
         style="fill:#5a2a94;fill-opacity:1;fill-rule:nonzero;stroke:none"
         id="path164" /><path
         d="m 1666.16,1137.08 0.14,0.24 -0.19,-0.05 z"
         style="fill:#5a2a94;fill-opacity:1;fill-rule:nonzero;stroke:none"
         id="path166" /></g></g></svg>
