<svg id="Layer_1" data-name="Layer 1" xmlns="http://www.w3.org/2000/svg" viewBox="0 0 1400 512"><defs><style>.cls-1{fill:#006759;}</style></defs><polygon class="cls-1" points="877.24 10.19 877.23 110.8 979.32 10.19 877.24 10.19"/><path class="cls-1" d="M559.18,307.47,459.05,407.9a254,254,0,0,0,60.42,56.38l96-95.36C590.56,356.87,570.52,334.88,559.18,307.47Z"/><path class="cls-1" d="M550.17,273.11A134.7,134.7,0,0,1,549,256.06,133,133,0,0,1,565.81,191L448.75,307.31V294.39L729.94,15A254.41,254.41,0,0,0,437.63,136.83a2.82,2.82,0,0,0-.07-.31c-.12.22-.25.41-.36.63L325.63,248.55l.05,1.39c.12,3.07.19,6.05.19,8.89,0,76.09-33.95,114.66-100.91,114.66H200.49L71.9,501.88H218.07c111.66,0,190.09-42.72,226.88-123.54l9.6-9.61h0Z"/><path class="cls-1" d="M1015.67,300.85V256.62L889.6,382a206.68,206.68,0,0,0,16.12,36l110.2-109.5C1015.8,306,1015.67,303.54,1015.67,300.85Z"/><path class="cls-1" d="M1154.93,10.19v90.32l90.82-90.32Z"/><path class="cls-1" d="M1016.85,317.2,910.67,422.72a170.14,170.14,0,0,0,51.19,51.57l99.8-99C1039.76,370.19,1021.44,355.24,1016.85,317.2Z"/><path class="cls-1" d="M1293.43,309.68l-.09-299.49h-34.63L1154.93,113.43V297.56c0,65.74-35.52,80.28-70.7,80.13-3.82,0-7.64-.21-11.41-.58L969.88,479.24c28.69,16.4,66.18,27.14,115.43,27.14C1296.53,506.4,1293.43,309.68,1293.43,309.68Z"/><path class="cls-1" d="M624.55,372.76l-97.14,96.56a255.33,255.33,0,0,0,27,14.36L659,379.06A99.71,99.71,0,0,1,624.55,372.76Z"/><path class="cls-1" d="M1015.67,10.19h-20L877.21,127A253.51,253.51,0,0,0,739.81,18L612,145a100.68,100.68,0,0,1,47.3-12c42.37,0,79.13,26.68,97.6,65.77H877.17l.18,117.71h-122A121.68,121.68,0,0,1,731,349.4l1.12-.36L586,495.66a255.82,255.82,0,0,0,74.41,11,253.17,253.17,0,0,0,226-138.1c0,.11,129.29-128.12,129.29-128.12C1015.67,139.46,1015.67,10.19,1015.67,10.19Z"/><path class="cls-1" d="M165.53,141.13,286.34,20.32l-6.19-1c-20.6-3.24-43.76-4.8-70.84-4.8H22.77V449.92L165.53,307.14Z"/><path class="cls-1" d="M225.59,142.93c70.52,0,92.35,47.53,98.24,87.42l.93,6.28L436.11,125.38l-1.24-2.13c-3.77-6.51-7.4-12.18-11.08-17.32C392.5,62.71,354.63,36.75,304.57,24.22l-1.75-.42L183.69,142.93Z"/><polygon class="cls-1" points="165.53 373.51 165.53 359.53 22.77 501.89 59.15 501.89 187.69 373.51 165.53 373.51"/><path class="cls-1" d="M1331.57,19.72c-3.92-2.85-12.8-2.23-12.8,4,0,3.5,4.22,4.56,6.94,5.11,3.51.72,7.61,1.28,10.61,3.39a7.85,7.85,0,0,1,3.25,6.65c0,8.84-11.15,10.83-17.85,9a11.17,11.17,0,0,1-7.2-5.62,11.34,11.34,0,0,1-1.06-5.12h4.09a7.36,7.36,0,0,0,.79,3.53c2.52,4.69,9.94,5.52,14.26,3.1a5.57,5.57,0,0,0,2.69-4.68c0-4.57-5.76-5.29-9.08-6-2.85-.63-6-1.25-8.52-2.84a7.08,7.08,0,0,1-3.25-6.12c0-4.47,3.27-7.82,7.43-8.95a17.31,17.31,0,0,1,9,0,9.82,9.82,0,0,1,6.31,5.07,11.66,11.66,0,0,1,1,4.63h-4.1A6.69,6.69,0,0,0,1331.57,19.72Z"/><path class="cls-1" d="M1350.8,15.28,1361,42.58l10.28-27.3h5.91V47.77h-4.09v-27H1373l-10.14,27h-3.69l-10.14-27H1349v27h-4.09V15.28Z"/></svg>