<?xml version="1.0" encoding="utf-8"?>
<!-- Generator: Adobe Illustrator 25.4.1, SVG Export Plug-In . SVG Version: 6.00 Build 0)  -->
<svg version="1.1" id="Layer_1" xmlns="http://www.w3.org/2000/svg" xmlns:xlink="http://www.w3.org/1999/xlink" x="0px" y="0px"
	 viewBox="0 0 1249.8 254.8" style="enable-background:new 0 0 1249.8 254.8;" xml:space="preserve">
<style type="text/css">
	.st0{fill:#FDBE10;}
	.st1{fill:#B27A2B;}
	.st2{fill-rule:evenodd;clip-rule:evenodd;fill:#B27A2B;}
	.st3{fill-rule:evenodd;clip-rule:evenodd;fill:#DAA027;}
	.st4{fill-rule:evenodd;clip-rule:evenodd;fill:#FDBE10;}
	.st5{fill-rule:evenodd;clip-rule:evenodd;fill:#FBF7C9;}
</style>
<g>
	<path class="st0" d="M586.4,92c-7.4,0-11.3,4.8-13.2,9.6l-21.7,58L530.3,102c-2-5.7-6.1-10-13.7-10c-7.6,0-13.7,6.5-13.7,13.2
		c0,2.6,0.7,5,1.5,6.9l30.4,70.2c3.1,7.4,8.3,12.3,15.9,12.3h1.5c7.6,0,12.8-5,15.9-12.3l30.4-70.2c0.6-1.3,1.5-4.3,1.5-6.7
		C599.9,97.8,593.8,92,586.4,92z"/>
	<path class="st0" d="M427.7,117.8h-32.6c-6.9,0-12.4,5.6-12.4,12.4c0,6.9,5.6,12.2,12.4,12.2h19.3V161c-7.2,5.2-16.5,7.8-26.9,7.8
		c-23,0-39.3-17.4-39.3-41.1v-0.4c0-22,16.5-40.4,37.2-40.4c12.2,0,20.6,3.3,28.3,8.9c2,1.5,4.6,3,8.7,3c7.8,0,14.1-6.3,14.1-14.1
		c0-5.6-3.1-9.4-5.9-11.5C418.9,65,406,60.5,386.3,60.5c-39.3,0-68,30.2-68,67.1v0.4c0,38.3,27.8,66.7,68.2,66.7
		c19.5,0,34.8-6.5,45.4-13c6.9-4.1,10-9.8,10-18.2V132C441.9,124.1,435.6,117.8,427.7,117.8z"/>
	<path class="st0" d="M475.3,56.3c-8.9,0-15.7,5-15.7,13.2v0.4c0,8.2,6.9,13.3,15.7,13.3c8.9,0,15.7-5.2,15.7-13.3v-0.4
		C491.1,61.3,484.2,56.3,475.3,56.3z"/>
	<path class="st0" d="M653,91.3c-0.1,0-0.2,0-0.3,0c-28.8,0.1-48.8,23.4-48.8,51.7v0.4c0,29.3,20.6,49.9,48.8,51.3
		c1,0,2,0.1,3.1,0.1c14.5,0,25.8-4.7,34.5-12.1c2-1.9,3.7-4.6,3.7-8.3c0-6.3-4.6-11.1-10.9-11.1c-3,0-4.8,0.7-6.9,2.2
		c-5.7,4.3-12.2,6.7-20,6.7c-1.2,0-2.3-0.1-3.4-0.2c-10.8-1.1-18.3-7.7-20.8-19.3h20.8h34.9c7.4,0,13.2-5.4,13.2-13.5
		C700.8,118.5,686.1,91.3,653,91.3z M652.7,135h-21.2c2.2-12.7,9.7-21,21.2-21.1c0.1,0,0.2,0,0.3,0c11.9,0,19.3,8.5,20.9,21.1H652.7
		L652.7,135z"/>
	<path class="st0" d="M475.3,92c-7.8,0-14.1,6.3-14.1,14.1v73.4c0,7.8,6.3,14.1,14.1,14.1c7.8,0,14.1-6.3,14.1-14.1v-73.4
		C489.4,98.3,483.1,92,475.3,92z"/>
	<path class="st0" d="M1236.1,92c-8.3,0-15,8.9-19.1,18.5v-4.4c0-7.8-6.3-14.1-14.1-14.1c-7.8,0-14.1,6.3-14.1,14.1v73.4
		c0,7.8,6.3,14.1,14.1,14.1c7.8,0,14.1-6.3,14.1-14.1v-26.3c0-20,8-30.9,22.2-34.3c5.7-1.3,10.6-5.7,10.6-13.2
		C1249.8,97.8,1244.8,92,1236.1,92z"/>
	<path class="st0" d="M1125.9,91.3c-0.1,0-0.2,0-0.3,0c-28.8,0.1-48.8,23.4-48.8,51.7v0.4c0,29.3,20.6,49.9,48.8,51.3
		c1,0,2,0.1,3.1,0.1c14.5,0,25.8-4.7,34.5-12.1c2-1.9,3.7-4.6,3.7-8.3c0-6.3-4.6-11.1-10.9-11.1c-3,0-4.8,0.7-6.9,2.2
		c-5.7,4.3-12.2,6.7-20,6.7c-1.2,0-2.3-0.1-3.4-0.2c-10.8-1.1-18.3-7.7-20.8-19.3h20.8h34.9c7.4,0,13.2-5.4,13.2-13.5
		C1173.7,118.5,1159.1,91.3,1125.9,91.3z M1125.7,135h-21.2c2.2-12.7,9.7-21,21.2-21.1c0.1,0,0.2,0,0.3,0c11.9,0,19.3,8.5,20.9,21.1
		H1125.7L1125.7,135z"/>
	<path class="st0" d="M1059.2,117.2c6.7,0,12-5.4,12-12c0-6.7-5.4-12-12-12h-12.4V80.7c0-7.8-6.3-14.1-14.1-14.1
		c-7.8,0-14.1,6.3-14.1,14.1v12.4h-0.9c-6.7,0-12,5.4-12,12c0,6.7,5.4,12,12,12h0.9v47.1c0,23,11.7,29.9,28.9,29.9
		c6.1,0,10.9-0.7,16.1-2.8c3.9-1.5,7.2-5.6,7.2-10.6c0-6.5-5.4-11.7-11.7-11.7c-0.6,0-2.4,0.2-3.3,0.2c-6.3,0-9.1-3.1-9.1-9.6v-42.4
		L1059.2,117.2L1059.2,117.2z"/>
	<path class="st0" d="M910.6,92c-7.8,0-14.1,6.3-14.1,14.1v42.4c0,13.3-6.9,20.2-17.6,20.2c-10.7,0-17-6.9-17-20.2v-42.4
		c0-7.8-6.3-14.1-14.1-14.1s-14.1,6.3-14.1,14.1v51.3c0,22.8,12.4,36.9,33.7,36.9c14.3,0,22.6-7.6,29.1-16v1.1
		c0,7.8,6.3,14.1,14.1,14.1s14.1-6.3,14.1-14.1V106C924.7,98.3,918.4,92,910.6,92z"/>
	<path class="st0" d="M774.9,91.3c-2.5,0-4.9,0.2-7.1,0.6c-10.7,1.8-18.1,7.9-23.8,15.5V70.2c0-7.8-6.3-14.1-14.1-14.1
		s-14.1,6.3-14.1,14.1v109.3c0,7.8,6.3,14.1,14.1,14.1s14.1-6.3,14.1-13.9v-0.2c5.5,6.6,12.9,12.5,23.8,14.3
		c2.2,0.4,4.6,0.6,7.1,0.6c23.5,0,45.2-18.2,45.2-51.3v-0.4C820.2,109.5,798.1,91.3,774.9,91.3z M792,143
		c0,16.6-11.1,27.4-24.2,27.4h-0.1c-13.2,0-24.1-10.9-24.1-27.4v-0.4c0-16.5,10.9-27.4,24.1-27.4h0.1c13.1,0.1,24.2,11,24.2,27.4
		V143z"/>
	<path class="st0" d="M988.7,117.2c6.7,0,12-5.4,12-12c0-6.7-5.4-12-12-12h-12.4V80.7c0-7.8-6.3-14.1-14.1-14.1s-14.1,6.3-14.1,14.1
		v12.4h-0.9c-6.7,0-12,5.4-12,12c0,6.7,5.4,12,12,12h0.9v47.1c0,23,11.7,29.9,28.9,29.9c6.1,0,10.9-0.7,16.1-2.8
		c3.9-1.5,7.2-5.6,7.2-10.6c0-6.5-5.4-11.7-11.7-11.7c-0.6,0-2.4,0.2-3.3,0.2c-6.3,0-9.1-3.1-9.1-9.6v-42.4L988.7,117.2L988.7,117.2
		z"/>
</g>
<g>
	<path class="st1" d="M148.5,247.4c2.9-12,8.1-32,8.1-44.6V165c0-3.1,2.5-7,7.2-7s7.3,3.9,7.3,7v37.8c0,12-2.2,20.2-5.7,28.6
		l21.9,13.5c4.9,3,5.9,10-3.8,10h-29.2C150.5,254.8,147.5,251.8,148.5,247.4z"/>
	<path class="st2" d="M113.8,234.6l16.6,10.2c4.9,3,5.9,10-3.8,10h-29c-4.8,0-6.9-4.9-4.8-8.7c7-12.6,18.8-29.3,18.8-44.7v-36.7
		c0-2.9,2.3-7.1,6.9-7.1s7.6,2.7,7.6,7.1v36.7C126.1,215.8,120.9,225.4,113.8,234.6z"/>
	<path class="st2" d="M59.8,0H190c30.1,0,54.7,24.6,54.7,54.7v86c0,30.1-24.6,54.7-54.7,54.7H59.8c-30.1,0-54.7-24.6-54.7-54.7v-86
		C5.1,24.6,29.7,0,59.8,0z"/>
	<path class="st2" d="M220.7,130.6L260.1,74c-0.7-2.6-1.1-5.4-1.2-8.2c-0.1-9.5,6.1-18.6,16.5-18.6c8.2,0,16.2,5.9,16.2,15.2
		c-0.2,24.1-41.9,62.7-59.8,77C224.8,144.9,216.3,137.1,220.7,130.6z"/>
	<path class="st3" d="M69.7,183.3c-16.9,0-29.5-1.4-41.3-14.3c-7.6-8.3-11.4-18-11.4-29.3V55.3c0-11.2,3.8-21,11.4-29.3
		c11.7-12.8,25.3-14.3,41.3-14.3C56.4,22.2,48.5,38.3,48.5,55.1v84.8c0,7.6,1.4,14.4,4.4,21.4C56.6,170,62.3,177.4,69.7,183.3z"/>
	<path class="st2" d="M39.6,129.7l-13.8,67.6c3.3,4.3,6.2,9.6,6.2,15.2c0.1,10.8-8.1,16.7-16.3,16.8c-7.6,0.1-15-4.7-15.7-15.2
		c-1.6-25.2,19.2-75.4,26-88.1C30.3,118.2,41.2,122,39.6,129.7z"/>
	<path class="st4" d="M104,11.7c2.7,0,5.3,0,7.9,0c4.7,0,9,3.6,9,8.7v11.2c0,4.1,4.1,7.3,8.4,7.3s8.4-3.3,8.4-7.5v-11
		c0-4.6,3.5-8.7,8.4-8.7c4.5,0,8.4,4.1,8.4,8.7v24.8c0,4.1,4,7.3,8.2,7.3s8.3-3.3,8.3-7.3V20.4c0-4.8,4-8.7,8.8-8.7
		c3.1,0,6.2,0,9.4,0c24,0,43.6,19.6,43.6,43.6v84.5c0,24-19.6,43.6-43.6,43.6H104c-24,0-43.6-19.6-43.6-43.6V55.3
		C60.4,31.3,80,11.7,104,11.7z"/>
	<path class="st2" d="M109.4,72.5c6.7,0,12.1,7,12.1,19.6s-5.4,18.8-12.1,18.8s-12.1-6.2-12.1-18.8c0-2.8,0.3-5.4,0.8-7.7
		c1.6,0.7,3.6-0.1,5.1-3.2c1.4-2.9,1.1-5.2-0.3-6.1C104.8,73.4,107,72.5,109.4,72.5z"/>
	<path class="st2" d="M184.5,72.5c6.7,0,12.1,7,12.1,19.6s-5.4,18.8-12.1,18.8c-6.7,0-12.1-6.2-12.1-18.8c0-2.8,0.3-5.4,0.8-7.7
		c1.6,0.7,3.6-0.1,5.1-3.2c1.4-2.9,1.1-5.2-0.3-6.1C179.8,73.4,182.1,72.5,184.5,72.5z"/>
	<path class="st2" d="M176.3,134.4c-3.6,15.6-15.2,27.1-28.9,27.1s-25.2-11.4-28.9-26.9l-2.4-1.3c-3.3-1.8-0.4-6.8,2.9-5
		c8.5,4.9,19.1,7.5,28.2,7.5s19.5-2.5,28-7.4c3.5-2,6.4,3,3.1,4.8L176.3,134.4z"/>
	<path class="st5" d="M163.6,145.6c-3.9,5.9-9.8,9.6-16.3,9.6c-6.4,0-12.2-3.6-16.1-9.2c5-1.2,10.8-1.9,17-1.9
		C153.8,144.1,159,144.6,163.6,145.6z"/>
</g>
</svg>
