<svg width="1024" height="309" viewBox="0 0 1024 309" fill="none" xmlns="http://www.w3.org/2000/svg">
<path fill-rule="evenodd" clip-rule="evenodd" d="M977.634 195.605C978.206 206.676 986.127 215.482 999.946 215.482C1013.75 215.482 1023.84 209.599 1023.84 198.423C1023.84 175.89 986.242 185.876 986.242 169.872C986.242 163.852 990.89 159.77 999.484 159.77C1007.99 159.77 1014.09 163.056 1015.36 172.143H1022.26C1020.57 158.878 1012.29 153.673 999.6 153.673C986.583 153.673 978.995 160.68 978.995 170.447C978.995 193.582 1016.59 181.574 1016.59 198.538C1016.59 204.192 1011.95 209.367 1002.1 209.367C991.914 209.367 986.699 205.668 984.552 195.605H977.634ZM969.239 173.696C967.185 160.125 958.351 153.673 944.874 153.673C927.316 153.673 917.923 168.386 917.923 184.679C917.923 202.007 926.194 215.482 944.874 215.482C959.598 215.482 967.744 206.656 970.13 193.631H962.884C961.3 203.368 954.959 209.367 944.874 209.367C930.842 209.367 925.188 197.042 925.188 184.679C925.188 172.469 930.957 159.77 944.874 159.77C953.943 159.77 959.939 164.974 962.307 173.696H969.239ZM899.444 142.45H906.921V132.367H899.444V142.45ZM899.772 213.901H906.575V155.256H899.772V213.901ZM891.013 208.582C889.208 209.042 887.274 209.367 885.469 209.367C879.797 209.367 879.589 206.886 879.589 201.106V160.92H890.57V155.256H879.589V138.943H872.781V155.256H864.519V160.92H872.781V203.828C872.781 212.54 876.511 215.482 883.208 215.482C886.49 215.482 889.421 214.476 891.013 214.131V208.582ZM816.437 236.213C818.255 236.674 820.517 237.019 822.894 237.019C832.318 237.019 835.941 227.838 841.498 213.116L863.349 155.256H855.991L837.205 205.64L818.371 155.256H810.743L833.564 214.362C830.966 219.441 829.844 230.549 822.127 230.549C820.176 230.549 818.255 230.204 816.437 229.888V236.213ZM795.82 213.901H802.614V132.367H795.82V213.901ZM752.527 180.95C738.823 182.762 732.038 188.763 732.038 198.625C732.038 209.943 741.333 215.482 751.627 215.482C760.11 215.482 767.814 212.081 773.481 205.755C773.592 209.828 774.382 213.786 778.914 214.476C779.939 214.706 780.848 214.821 781.97 214.821C783.89 214.821 786.276 214.017 787.3 213.691V208.353C781.531 210.403 780.16 209.157 780.16 203.828V171.893C780.16 158.304 770.758 153.673 758.873 153.673C746.07 153.673 735.763 159.223 734.748 173.034H741.648C742.894 162.827 749.356 159.77 758.767 159.77C769.291 159.77 773.375 164.763 773.375 171.674C773.375 173.696 773.144 176.772 770.874 177.778C768.612 178.813 764.421 179.485 761.929 179.706L752.527 180.95ZM773.375 192.269C773.375 204.173 762.736 209.367 751.973 209.367C745.502 209.367 739.28 205.985 739.28 198.854C739.28 190.918 745.502 187.18 755.826 186.385C761.711 185.945 767.583 185.484 773.375 183.116V192.269ZM681.96 182.311C681.96 178.239 682.053 174.951 683.406 171.204C685.574 165.222 691.34 159.77 699.717 159.77C710.596 159.77 714.902 165.109 714.902 175.631V213.901H721.696V175.526C721.696 170.648 721.59 166.229 718.751 162.042C714.565 155.927 707.988 153.673 700.861 153.673C692.701 153.673 687.393 157.632 681.96 163.401V155.256H675.166V213.901H681.96V182.311ZM632.428 138.943L648.384 181.737H616.449L632.428 138.943ZM604.222 213.901L613.854 188.31H651.001L660.402 213.901H668.319L637.057 132.367H628.343L596.306 213.901H604.222ZM555.093 177.778C555.993 169.853 559.94 165.109 567.418 165.109C572.526 165.109 578.735 168.051 579.658 177.778H555.093ZM578.966 196.237C577.728 200.531 573.205 202.813 568.788 202.813C555.993 202.813 555.093 192.615 554.632 188.081H595.96V185.254C595.96 157.748 579.542 152.073 567.648 152.073C541.27 152.073 538.777 175.285 538.777 182.541C538.777 207.345 551.794 215.482 568.788 215.482C579.081 215.482 591.091 210.729 595.268 196.237H578.966ZM528.431 137.343H512.577V153.673H504.43V164.974H512.577V201.567C512.577 209.367 515.078 214.592 528.772 214.592H530.804C533.305 214.592 535.788 214.476 538.298 214.362V202.352C537.15 202.468 536.019 202.582 535.003 202.582C528.542 202.582 528.431 201.222 528.431 197.704V164.974H538.298V153.673H528.431V137.343ZM482.761 146.533H498.62V131.812H482.761V146.533ZM482.761 213.901H498.62V153.673H482.761V213.901ZM470.712 172.238C470.712 158.994 461.549 152.073 449.762 152.073C438.337 152.073 433.794 158.878 431.665 162.501H431.436V153.673H416.254V213.901H432.107V179.369C432.107 170.188 437.55 165.434 444.564 165.434C454.64 165.434 454.871 172.92 454.871 177.328V213.901H470.712V172.238ZM388.364 146.533H404.217V131.812H388.364V146.533ZM388.364 213.901H404.217V153.673H388.364V213.901ZM368.553 164.974H378.847V153.673H368.553V151.288C368.553 146.304 368.659 144.588 374.084 144.588H378.502V131.812C377.151 131.698 375.004 131.582 370.365 131.582C359.477 131.582 352.692 136.335 352.692 148.796V153.673H343.97V164.974H352.692V213.901H368.553V164.974ZM338.622 172.238C338.622 158.994 329.44 152.073 317.661 152.073C306.227 152.073 301.703 158.878 299.547 162.501H299.327V153.673H284.145V213.901H299.997V179.369C299.997 170.188 305.442 165.434 312.457 165.434C322.54 165.434 322.77 172.92 322.77 177.328V213.901H338.622V172.238ZM255.699 213.901H272.662V132.599H255.699V213.901Z" fill="white"/>
<path fill-rule="evenodd" clip-rule="evenodd" d="M186.568 45.0551L226.879 88.8361L223.994 85.9127L220.439 84.5809L215.962 84.5529L210.634 85.7987L204.615 88.1944L197.896 91.6646L190.66 96.1402L182.954 101.526L174.904 107.727L166.565 114.647L158.035 122.208L149.409 130.345L140.793 138.933L132.234 147.934L123.877 157.191L115.787 166.698L108.082 176.313L100.817 185.964L94.1087 195.566L88.0316 205.007L82.6837 214.275L78.1797 223.188L74.5755 231.728L71.9683 239.769L70.464 247.254L70.1864 254.098L71.1447 260.165L73.4828 265.437L77.2971 269.778L82.6642 273.102L89.6805 275.337L23.2522 267.065L14.8939 264.41L8.51131 260.433L3.95896 255.277L1.16015 249.019L0 241.772L0.374299 233.645L2.17572 224.741L5.2526 215.139L9.55571 204.988L14.9227 194.359L21.2969 183.367L28.5141 172.075L36.5066 160.661L45.1518 149.16L54.343 137.725L63.9559 126.426L73.905 115.394L84.0638 104.679L94.3379 94.4528L104.613 84.7911L114.772 75.7636L124.72 67.5108L134.324 60.1503L143.486 53.7584L152.113 48.4291L160.068 44.2985L167.256 41.4327L173.572 39.9573L178.929 39.9763L183.127 41.5662L186.568 45.0551Z" fill="#1D66A2"/>
<path fill-rule="evenodd" clip-rule="evenodd" d="M23.2522 267.065L89.6805 275.337L98.441 276.42L109.021 276.208L112.53 275.787L117.274 275.001L123.129 273.879L130.039 272.452L137.86 270.803L146.467 268.896L155.773 266.864L165.664 264.689L175.987 262.456L186.692 260.165L197.609 257.894L208.669 255.67L219.738 253.513L230.703 251.509L241.457 249.688L251.894 248.099L261.91 246.727L271.35 245.701L280.149 245.021L288.151 244.715L295.301 244.858L301.455 245.463L306.457 246.593L310.272 248.279L285.86 234.873L281.327 232.859L275.356 231.507L268.044 230.778L259.542 230.617L250.005 230.971L239.511 231.786L228.288 233.032L216.365 234.622L203.945 236.539L191.12 238.725L178.066 241.082L164.917 243.642L151.748 246.296L138.752 249.019L126.005 251.741L113.679 254.396L101.929 256.983L90.8495 259.408L80.5944 261.641L71.2791 263.634L63.0742 265.33L56.0876 266.664L50.4235 267.612L46.2733 268.1L33.67 268.341L23.2522 267.065Z" fill="#8BC6DD"/>
<mask id="mask0_44_3" style="mask-type:alpha" maskUnits="userSpaceOnUse" x="78" y="45" width="236" height="264">
<path d="M78.225 45.0551H313.77V308.193H78.225V45.0551Z" fill="white"/>
</mask>
<g mask="url(#mask0_44_3)">
<path fill-rule="evenodd" clip-rule="evenodd" d="M126.465 259.867C130.854 259.063 135.262 258.237 139.653 257.424L152.841 255.065L165.876 252.871L178.679 250.868L191.101 249.133L202.928 247.705L214.141 246.651C223.86 245.999 232.4 245.701 242.137 246.019L243.392 246.162L251.482 244.917L261.545 243.574L271.111 242.54L280.023 241.83L288.228 241.523L291.467 241.59L284.451 237.708L280.33 235.878L274.838 234.661L267.842 233.961L259.609 233.809L250.226 234.143L239.856 234.967L228.7 236.185L216.853 237.776L204.49 239.692L191.695 241.83L178.679 244.226L165.549 246.776L152.4 249.392L139.403 252.123L126.694 254.816L114.389 257.51C71.9975 266.807 56.3462 273.458 126.465 259.867Z" fill="#BCDFE8"/>
<path fill-rule="evenodd" clip-rule="evenodd" d="M198.672 306.226L237.029 308.22L231.259 307.118L226.515 304.512L222.671 300.495L219.691 295.204L217.476 288.774L215.991 281.298L215.157 272.884L214.87 263.634L215.11 253.714L215.77 243.201L216.778 232.217L218.09 220.84L219.595 209.243L221.291 197.522L223.016 185.801L224.751 174.185L226.419 162.76L227.981 151.681L229.304 141.062L230.368 131.008L231.067 121.605L231.365 113.017L231.144 105.322L230.396 98.6606L228.997 93.1104L226.879 88.8361L186.568 45.0551L189.088 50.145L190.756 56.7205L191.676 64.6752L191.906 73.8269L191.58 84.0638L190.737 95.2378L189.481 107.218L187.88 119.87L186.069 133.069L184.047 146.649L181.977 160.478L179.897 174.443L177.922 188.379L176.111 202.208L174.559 215.703L173.351 228.795L172.546 241.322L172.287 253.15L172.623 264.142L173.619 274.177L175.402 283.071L178.019 290.738L181.564 297.035L186.127 301.788L191.801 304.894L198.672 306.226Z" fill="#269BCA"/>
<path fill-rule="evenodd" clip-rule="evenodd" d="M199.276 301.252L217.822 302.211L214.736 301.627L210.422 299.249L206.809 295.493L203.809 290.173L201.433 283.253L199.785 274.895L198.826 265.291L198.5 254.606L198.778 243.018L199.554 230.598L200.733 217.659L202.276 204.241L204.069 190.526L206.033 176.628L208.132 162.702L212.215 135.262L214.046 122.047L215.637 109.318C218.416 83.0278 214.899 83.191 196.545 63.2365L196.64 64.3107L196.909 73.8464L196.564 84.3228L195.701 95.7655L194.437 107.851L192.846 120.561L190.996 133.787L188.993 147.387L186.903 161.207L184.852 175.152L182.868 189.05L181.076 202.764L179.523 216.173L178.334 229.121L177.559 241.523L177.299 253.131L177.616 263.826L178.555 273.42L180.232 281.777L182.571 288.678L185.599 294.026L189.204 297.792L193.517 300.15L199.276 301.252Z" fill="#56BEDC"/>
<path fill-rule="evenodd" clip-rule="evenodd" d="M285.86 234.873L310.272 248.279L312.754 250.581L313.77 253.532L313.243 257.146L311.038 261.525L307.032 266.664L301.158 272.635L293.269 279.468L283.273 287.163L271.446 295.32L260.99 301.396L251.817 305.488L243.853 307.703L237.029 308.22L198.672 306.226L206.781 305.623L216.279 302.939L227.195 298.061L239.636 290.854L253.705 281.173L265.609 271.972L275.011 263.835L282.017 256.762L286.752 250.628L289.388 245.414L290.02 241.101L288.803 237.594L285.86 234.873Z" fill="#38B6B6"/>
</g>
<path fill-rule="evenodd" clip-rule="evenodd" d="M293.634 243.623L293.193 246.632L290.097 252.717L284.988 259.339L277.704 266.7L268.111 275.001L256.006 284.336L241.744 294.17L228.997 301.569L224.358 303.629L236.971 304.3L243.173 303.821L250.485 301.771L259.197 297.889L269.347 291.985L280.944 283.991L290.797 276.42L298.464 269.778L304.08 264.084L307.703 259.427L309.448 255.977L309.754 253.916L309.371 252.785L307.961 251.49L293.634 243.623Z" fill="#77C6C6"/>
<path fill-rule="evenodd" clip-rule="evenodd" d="M95.5939 95.1908H139.566V51.247H95.5939V95.1908Z" fill="#1D66A2"/>
<path fill-rule="evenodd" clip-rule="evenodd" d="M147.358 61.915L139.566 67.3286L130.26 74.4704L120.675 82.4251L110.718 91.2424L100.625 100.758L90.5236 110.824L80.527 121.346L70.7416 132.196L61.2728 143.295L52.2639 154.507L43.8005 165.75L35.9123 177.05L28.8778 187.986L22.7533 198.586L17.6169 208.746L13.6007 218.262L10.7824 226.984L9.23952 234.728L8.94238 241.264L9.77657 246.45L11.5492 250.398L14.3192 253.571L18.6613 256.273L25.1778 258.353L55.5603 262.13L55.81 254.501L57.113 244.245L59.2984 233.099L62.3265 221.223L66.1125 208.784L70.6463 195.768L75.7454 182.657L81.3807 169.422L87.4662 156.157L93.926 143.046L100.693 130.212L107.689 117.79L114.83 105.906L122.008 94.7122L129.091 84.4563L136.106 75.0642L142.902 66.7645L147.358 61.915Z" fill="#3F86B7"/>
<path fill-rule="evenodd" clip-rule="evenodd" d="M57.2083 110.688H85.981V81.8974H57.2083V110.688Z" fill="#1D66A2"/>
<path fill-rule="evenodd" clip-rule="evenodd" d="M110.564 35.2692H143.007V2.83652H110.564V35.2692Z" fill="#1D66A2"/>
<path fill-rule="evenodd" clip-rule="evenodd" d="M65.9591 40.3391H92.1911V14.1072H65.9591V40.3391Z" fill="#1D66A2"/>
<path fill-rule="evenodd" clip-rule="evenodd" d="M32.4048 71.4223H54.8707V48.9564H32.4048V71.4223Z" fill="#1D66A2"/>
<path fill-rule="evenodd" clip-rule="evenodd" d="M22.3608 17.5965H39.5639V0.393372H22.3608V17.5965Z" fill="#1D66A2"/>
</svg>
