<?xml version="1.0" encoding="UTF-8"?>
<svg width="1024px" height="309px" viewBox="0 0 1024 309" version="1.1" xmlns="http://www.w3.org/2000/svg" xmlns:xlink="http://www.w3.org/1999/xlink">
    <!-- Generator: Sketch Beta 57 (82921) - https://sketch.com -->
    <title>IA_Logo_White_ForSite CopySVG</title>
    <desc>Created with Sketch Beta.</desc>
    <defs>
        <polygon id="path-1" points="0.172203256 0.263428324 235.716906 0.263428324 235.716906 263.401715 0.172203256 263.401715"></polygon>
    </defs>
    <g id="Full-Logo" stroke="none" stroke-width="1" fill="none" fill-rule="evenodd">
        <g id="1024-by-2048" transform="translate(-601.000000, -74.000000)">
            <g id="IA_Logo_White_ForSite-Copy" transform="translate(601.000000, 74.000000)">
                <path d="M977.633954,195.604844 C978.206046,206.675929 986.126635,215.482152 999.945535,215.482152 C1013.7467,215.482152 1023.84035,209.598919 1023.84035,198.422728 C1023.84035,175.890294 986.24194,185.876178 986.24194,169.871799 C986.24194,163.851974 990.889632,159.770165 999.484314,159.770165 C1007.99473,159.770165 1014.09261,163.056367 1015.35654,172.143314 L1022.25712,172.143314 C1020.57188,158.878323 1012.29207,153.673175 999.599619,153.673175 C986.583421,153.673175 978.995444,160.680191 978.995444,170.446995 C978.995444,193.582122 1016.59385,181.573959 1016.59385,198.538477 C1016.59385,204.19243 1011.94616,209.367421 1002.10086,209.367421 C991.914075,209.367421 986.698727,205.667894 984.552274,195.604844 L977.633954,195.604844 Z M969.238839,173.695945 C967.185518,160.124508 958.351356,153.673175 944.873937,153.673175 C927.316483,153.673175 917.923534,168.386134 917.923534,184.67922 C917.923534,202.00695 926.194474,215.482152 944.873937,215.482152 C959.59754,215.482152 967.744305,206.656416 970.130238,193.631349 L962.883742,193.631349 C961.300511,203.36844 954.958718,209.367421 944.873937,209.367421 C930.842165,209.367421 925.18777,197.041725 925.18777,184.67922 C925.18777,172.469273 930.957471,159.770165 944.873937,159.770165 C953.943144,159.770165 959.939021,164.97354 962.307215,173.695945 L969.238839,173.695945 Z M899.443638,142.449975 L906.920745,142.449975 L906.920745,132.367411 L899.443638,132.367411 L899.443638,142.449975 Z M899.771815,213.901138 L906.574829,213.901138 L906.574829,155.255518 L899.771815,155.255518 L899.771815,213.901138 Z M891.013045,208.582458 C889.208073,209.041906 887.274491,209.367421 885.469519,209.367421 C879.797384,209.367421 879.588948,206.885696 879.588948,201.105795 L879.588948,160.920114 L890.569563,160.920114 L890.569563,155.255518 L879.588948,155.255518 L879.588948,138.942919 L872.781498,138.942919 L872.781498,155.255518 L864.519428,155.255518 L864.519428,160.920114 L872.781498,160.920114 L872.781498,203.827887 C872.781498,212.539648 876.511182,215.482152 883.207761,215.482152 C886.489528,215.482152 889.420944,214.475891 891.013045,214.130862 L891.013045,208.582458 Z M816.437107,236.213162 C818.255383,236.67394 820.517142,237.018969 822.894205,237.018969 C832.318198,237.018969 835.941447,227.837561 841.498276,213.116175 L863.348636,155.255518 L855.991269,155.255518 L837.20537,205.639955 L818.370689,155.255518 L810.742798,155.255518 L833.564383,214.362359 C830.965578,219.441116 829.843569,230.54901 822.126981,230.54901 C820.17566,230.54901 818.255383,230.203537 816.437107,229.888222 L816.437107,236.213162 Z M795.819628,213.901138 L802.613772,213.901138 L802.613772,132.367411 L795.819628,132.367411 L795.819628,213.901138 Z M752.526912,180.94998 C738.823317,182.762048 732.038042,188.762803 732.038042,198.624513 C732.038042,209.942618 741.333426,215.482152 751.626644,215.482152 C760.110455,215.482152 767.813738,212.080644 773.481438,205.75526 C773.592308,209.828199 774.381706,213.785833 778.914093,214.475891 C779.938536,214.706058 780.847674,214.821363 781.969684,214.821363 C783.889961,214.821363 786.275894,214.016887 787.300338,213.690928 L787.300338,208.352735 C781.530637,210.403395 780.160277,209.157211 780.160277,203.827887 L780.160277,171.892747 C780.160277,158.30357 770.758458,153.673175 758.87314,153.673175 C746.069814,153.673175 735.763291,159.223352 734.747718,173.033826 L741.648298,173.033826 C742.894482,162.826644 749.356016,159.770165 758.766704,159.770165 C769.290533,159.770165 773.375002,164.76333 773.375002,171.673667 C773.375002,173.695945 773.144392,176.771936 770.873764,177.777753 C768.612005,178.813284 764.4211,179.484715 761.928731,179.70557 L752.526912,180.94998 Z M773.375002,192.269415 C773.375002,204.172916 762.735868,209.367421 751.97256,209.367421 C745.502157,209.367421 739.280104,205.984984 739.280104,198.853793 C739.280104,190.918126 745.502157,187.180459 755.826418,186.384852 C761.711425,185.944918 767.583127,185.483697 773.375002,183.115946 L773.375002,192.269415 Z M681.960052,182.31147 C681.960052,178.238974 682.053183,174.950999 683.405803,171.204019 C685.57443,165.222333 691.339697,159.770165 699.717072,159.770165 C710.595686,159.770165 714.901897,165.108802 714.901897,175.630857 L714.901897,213.901138 L721.696042,213.901138 L721.696042,175.525751 C721.696042,170.648336 721.589606,166.228594 718.751321,162.04168 C714.564851,155.92695 707.988012,153.673175 700.861256,153.673175 C692.701187,153.673175 687.392707,157.632139 681.960052,163.401396 L681.960052,155.255518 L675.165907,155.255518 L675.165907,213.901138 L681.960052,213.901138 L681.960052,182.31147 Z M632.427544,138.942919 L648.384028,181.736717 L616.448887,181.736717 L632.427544,138.942919 Z M604.222087,213.901138 L613.854517,188.310451 L651.000572,188.310451 L660.402391,213.901138 L668.318545,213.901138 L637.057497,132.367411 L628.343075,132.367411 L596.305933,213.901138 L604.222087,213.901138 Z M555.093149,177.777753 C555.993417,169.852729 559.940407,165.108802 567.417514,165.108802 C572.526427,165.108802 578.735175,168.051305 579.657618,177.777753 L555.093149,177.777753 Z M578.965786,196.237249 C577.728471,200.531042 573.204955,202.813201 568.787874,202.813201 C555.993417,202.813201 555.093149,192.614888 554.631927,188.081171 L595.960017,188.081171 L595.960017,185.254417 C595.960017,157.747887 579.542313,152.073091 567.648125,152.073091 C541.269814,152.073091 538.777445,175.285384 538.777445,182.541194 C538.777445,207.345143 551.793642,215.482152 568.787874,215.482152 C579.081091,215.482152 591.090585,210.729355 595.268185,196.237249 L578.965786,196.237249 Z M528.431009,137.342836 L512.576527,137.342836 L512.576527,153.673175 L504.429762,153.673175 L504.429762,164.97354 L512.576527,164.97354 L512.576527,201.567016 C512.576527,209.367421 515.077765,214.592083 528.77249,214.592083 L530.803638,214.592083 C533.304877,214.592083 535.788376,214.475891 538.298484,214.362359 L538.298484,202.351979 C537.149866,202.467728 536.018987,202.581703 535.003413,202.581703 C528.54188,202.581703 528.431009,201.221544 528.431009,197.704288 L528.431009,164.97354 L538.298484,164.97354 L538.298484,153.673175 L528.431009,153.673175 L528.431009,137.342836 Z M482.76123,146.533114 L498.620147,146.533114 L498.620147,131.811728 L482.76123,131.811728 L482.76123,146.533114 Z M482.76123,213.901138 L498.620147,213.901138 L498.620147,153.673175 L482.76123,153.673175 L482.76123,213.901138 Z M470.711823,172.237776 C470.711823,158.994072 461.549485,152.073091 449.761732,152.073091 C438.336748,152.073091 433.793718,158.878323 431.665448,162.500684 L431.435725,162.500684 L431.435725,153.673175 L416.254448,153.673175 L416.254448,213.901138 L432.107156,213.901138 L432.107156,179.368967 C432.107156,170.187558 437.550455,165.434318 444.564123,165.434318 C454.640035,165.434318 454.870645,172.919851 454.870645,177.327619 L454.870645,213.901138 L470.711823,213.901138 L470.711823,172.237776 Z M388.364307,146.533114 L404.217015,146.533114 L404.217015,131.811728 L388.364307,131.811728 L388.364307,146.533114 Z M388.364307,213.901138 L404.217015,213.901138 L404.217015,153.673175 L388.364307,153.673175 L388.364307,213.901138 Z M368.553521,164.97354 L378.847182,164.97354 L378.847182,153.673175 L368.553521,153.673175 L368.553521,151.288128 C368.553521,146.303834 368.658626,144.588002 374.083742,144.588002 L378.50171,144.588002 L378.50171,131.811728 C377.150864,131.698197 375.003967,131.582004 370.364702,131.582004 C359.477218,131.582004 352.691943,136.335245 352.691943,148.795759 L352.691943,153.673175 L343.969538,153.673175 L343.969538,164.97354 L352.691943,164.97354 L352.691943,213.901138 L368.553521,213.901138 L368.553521,164.97354 Z M338.621589,172.237776 C338.621589,158.994072 329.44018,152.073091 317.661298,152.073091 C306.226557,152.073091 301.703484,158.878323 299.546831,162.500684 L299.326864,162.500684 L299.326864,153.673175 L284.1447,153.673175 L284.1447,213.901138 L299.996965,213.901138 L299.996965,179.368967 C299.996965,170.187558 305.441594,165.434318 312.457036,165.434318 C322.5396,165.434318 322.769767,172.919851 322.769767,177.327619 L322.769767,213.901138 L338.621589,213.901138 L338.621589,172.237776 Z M255.698876,213.901138 L272.662507,213.901138 L272.662507,132.598909 L255.698876,132.598909 L255.698876,213.901138 Z" id="Fill-1" fill="#171C23"></path>
                <polyline id="Fill-2" fill="#1D66A2" points="186.567567 45.055113 226.879196 88.8361022 223.994346 85.9126687 220.438507 84.5808922 215.962443 84.5529528 210.634006 85.7986938 204.614625 88.1943837 197.896315 91.6646306 190.660019 96.1402512 182.954075 101.525897 174.903546 107.726663 166.565197 114.6472 158.035264 122.208125 149.409095 130.345133 140.793126 138.932719 132.234366 147.93363 123.877391 157.190874 115.787392 166.698242 108.082335 176.312932 100.817213 185.963988 94.10866 195.566261 88.0316258 205.007106 82.6836761 214.27455 78.1796726 223.188095 74.5754942 231.728229 71.9682633 239.769001 70.4639723 247.254091 70.1863525 254.097906 71.1447172 260.165183 73.4827544 265.436854 77.2971434 269.7781 82.6641628 273.102441 89.680492 275.337147 23.2522061 267.064877 14.8939004 264.40975 8.51130706 260.433046 3.95896405 255.277124 1.16014898 249.019149 0 241.77221 0.374298831 233.645401 2.17572282 224.740726 5.25260113 215.138896 9.55570723 204.988036 14.9227267 194.358659 21.2968939 183.366514 28.5141204 172.075018 36.5065535 160.660677 45.1517921 149.160301 54.3429571 137.725117 63.9558735 126.426082 73.9049493 115.394023 84.0637921 104.679054 94.3379402 94.4528021 104.612532 84.7911026 114.771818 75.7635825 124.720007 67.5108255 134.324054 60.1503543 143.486392 53.7584478 152.112561 48.4291243 160.067742 44.2985327 167.255699 41.4327518 173.57177 39.9572871 178.929476 39.9763569 183.12659 41.5662399 186.567567 45.055113"></polyline>
                <polyline id="Fill-3" fill="#8BC6DD" points="23.2522061 267.064877 89.680492 275.337147 98.4410359 276.42013 109.021187 276.208146 112.529573 275.787281 117.273944 275.000544 123.129237 273.878978 130.03913 272.452296 137.859936 270.802987 146.467035 268.896457 155.773505 266.863536 165.664485 264.6887 175.986973 262.455768 186.692185 260.165183 197.608939 257.894112 208.668937 255.670049 219.738249 253.512509 230.702898 251.509301 241.456894 249.688364 251.894243 248.098924 261.909841 246.726791 271.3498 245.70146 280.148927 245.021159 288.151117 244.714713 295.301377 244.858401 301.45469 245.463311 306.457168 246.593303 310.271557 248.279421 285.860088 234.872516 281.327259 232.858664 275.356217 231.507375 268.044085 230.77829 259.542091 230.617306 250.005453 230.971205 239.511338 231.786325 228.288139 233.032066 216.364681 234.621949 203.944523 236.539122 191.11991 238.724601 178.066016 241.081708 164.916774 243.64193 151.748019 246.295726 138.752222 249.019149 126.004774 251.740799 113.679078 254.395926 101.929022 256.982756 90.8495106 259.408159 80.5944322 261.641091 71.2790922 263.633656 63.0742313 265.329975 56.0876154 266.663525 50.423463 267.61169 46.2733582 268.100407 33.6700424 268.340774 23.2522061 267.064877"></polyline>
                <g id="Group-9" transform="translate(78.052837, 44.791685)">
                    <mask id="mask-2" fill="white">
                        <use xlink:href="#path-1"></use>
                    </mask>
                    <g id="Clip-5"></g>
                    <path d="M48.412272,215.075479 C52.8014136,214.271002 57.2096249,213.445682 61.600097,212.632336 L74.787922,210.273455 L87.8227458,208.07955 L100.626515,206.076341 L113.048003,204.340996 L124.875226,202.912984 L136.088669,201.859714 C145.807577,201.207796 154.346824,200.909776 164.083915,201.226865 L165.339413,201.370553 L173.429412,200.124812 L183.492463,198.782392 L193.057926,197.748192 L201.970585,197.038178 L210.175002,196.731731 L213.414638,196.798254 L206.398309,192.916456 L202.277031,191.086649 L196.785393,189.868847 L189.789464,189.169476 L181.55622,189.016918 L172.173471,189.351747 L161.803087,190.175293 L150.646853,191.393538 L138.800561,192.984752 L126.437613,194.900151 L113.641826,197.038178 L100.626515,199.433867 L87.496343,201.983889 L74.3475444,204.600433 L61.3504166,207.330952 L48.6415522,210.024662 L36.3362564,212.718372 C-6.05530359,222.015529 -21.7066713,228.666429 48.412272,215.075479" id="Fill-4" fill="#BCDFE8" mask="url(#mask-2)"></path>
                    <polyline id="Fill-6" fill="#269BCA" mask="url(#mask-2)" points="120.619572 261.433985 158.976333 263.428324 153.205744 262.326271 148.461817 259.719927 144.618602 255.703311 141.637959 250.41257 139.423654 243.982081 137.938432 236.505861 137.104243 228.09212 136.816866 218.841971 137.05679 208.922165 137.717578 198.408981 138.724726 187.425705 140.037433 176.048173 141.541724 164.451562 143.238042 152.730332 144.963631 141.009102 146.698533 129.393421 148.366025 117.968437 149.928412 106.888925 151.250876 96.2701914 152.314789 86.2160104 153.014604 76.8133045 153.311737 68.2257185 153.091326 60.5304184 152.343615 53.8688748 150.943986 48.3186973 148.826359 44.0444175 108.51473 0.263428324 111.035039 5.35327155 112.703418 11.9287796 113.623643 19.8835167 113.853367 29.0352118 113.527408 39.2721074 112.684348 50.4460806 111.428407 62.4267475 109.827437 75.0784028 108.016256 88.2768714 105.993978 101.857178 103.924248 115.686722 101.843874 129.651084 99.8694916 143.587506 98.058311 157.416606 96.5056804 170.911321 95.2980788 184.00291 94.4927155 196.530391 94.2341654 208.358056 94.5698813 219.350202 95.5663854 229.385313 97.3496267 238.279345 99.9661706 245.946706 103.511366 252.243707 108.074353 256.996504 113.748262 260.102209 120.619572 261.433985"></polyline>
                    <path d="M121.223595,256.460334 L139.769126,257.419142 L136.682935,256.83552 L132.369628,254.457126 L128.75658,250.701277 L125.756424,245.380823 L123.379804,238.461616 L121.731825,230.103754 L120.773017,220.499707 L120.447058,209.814451 L120.725121,198.226709 L121.501214,185.806108 L122.67999,172.867077 L124.222864,159.449528 L126.015861,145.734403 L127.980487,131.836563 L130.079044,117.910784 L134.162626,90.470777 L135.992877,77.2550126 L137.583647,64.5261914 C140.362948,38.2361334 136.845693,38.3993348 118.492189,18.444861 L118.587537,19.5189744 L118.855844,29.054725 L118.511259,39.5311009 L117.648243,50.9738242 L116.383875,63.0595964 L114.792662,75.7689043 L112.942898,88.9953123 L110.93969,102.595132 L108.850446,116.415806 L106.799342,130.360655 L104.815203,144.258495 L103.023536,157.972289 L101.470462,171.380968 L100.281486,184.32887 L99.5058363,196.731731 L99.2463993,208.338987 L99.5630455,219.034443 L100.50234,228.628289 L102.179589,236.985708 L104.51807,243.885845 L107.546609,249.234238 L111.150787,253.000731 L115.46365,255.357838 L121.223595,256.460334" id="Fill-7" fill="#56BEDC" mask="url(#mask-2)"></path>
                    <polyline id="Fill-8" fill="#38B6B6" mask="url(#mask-2)" points="207.807252 190.080832 232.21872 203.487737 234.701332 205.788965 235.716906 208.740338 235.190049 212.353829 232.9855 216.733658 228.979084 221.871841 223.104721 227.842883 215.216506 234.676054 205.219977 242.371797 193.392755 250.527875 182.93678 256.604023 173.764241 260.696031 165.799747 262.911224 158.976333 263.428324 120.619572 261.433985 128.728197 260.831293 138.225809 258.147783 149.142562 253.269038 161.58312 246.062455 175.652587 236.381242 187.556088 227.18032 196.958351 219.043312 203.964036 211.970217 208.699537 205.836417 211.334708 200.622399 211.967113 196.309537 210.750198 192.802481 207.807252 190.080832"></polyline>
                </g>
                <polyline id="Fill-10" fill="#77C6C6" points="293.633885 243.62286 293.193064 246.631886 290.097116 252.716903 284.988203 259.33942 277.70401 266.700334 268.110607 275.000544 256.005765 284.336284 241.74427 294.170055 228.996823 301.569109 224.358001 303.628639 236.971073 304.299628 243.172726 303.82111 250.484858 301.770893 259.197062 297.888651 269.347035 291.984575 280.943647 283.990812 290.796487 276.42013 298.463848 269.7781 304.07966 264.08379 307.702909 259.427229 309.447567 255.976495 309.754456 253.915634 309.370845 252.785199 307.961459 251.489788 293.633885 243.62286"></polyline>
                <polygon id="Fill-11" fill="#1D66A2" points="95.5938813 95.1907562 139.566011 95.1907562 139.566011 51.2470091 95.5938813 51.2470091"></polygon>
                <polyline id="Fill-12" fill="#3F86B7" points="147.35799 61.9149693 139.566011 67.3285544 130.259984 74.4703889 120.675451 82.425126 110.717505 91.2424357 100.625185 100.75823 90.5235513 110.823498 80.527023 121.345552 70.741592 132.195783 61.2728073 143.294808 52.2639134 154.507364 43.8005024 165.750077 35.9122876 177.050443 28.8777757 187.986266 22.7532889 198.58593 17.61688 208.74566 13.6007068 218.261897 10.7823785 226.983858 9.23950455 234.728385 8.94237159 241.263979 9.77656128 246.449615 11.5491589 250.397935 14.3191477 253.570605 18.6612802 256.272741 25.1778051 258.353116 55.5603153 262.129809 55.8099957 254.501031 57.1129459 244.245065 59.2984253 233.099032 62.3265206 221.22347 66.1125266 208.784243 70.6462434 195.767602 75.7453997 182.656942 81.3807259 169.421665 87.4661862 156.156674 93.9259454 143.045571 100.692594 130.212088 107.688967 117.789713 114.829914 105.905725 122.008114 94.7122391 129.090966 84.4562737 136.106408 75.0642113 142.901883 66.7644452 147.35799 61.9149693"></polyline>
                <polygon id="Fill-13" fill="#1D66A2" points="57.2082945 110.688236 85.9809649 110.688236 85.9809649 81.8973824 57.2082945 81.8973824"></polygon>
                <polygon id="Fill-14" fill="#1D66A2" points="110.564061 35.2692386 143.007432 35.2692386 143.007432 2.83651104 110.564061 2.83651104"></polygon>
                <polygon id="Fill-15" fill="#1D66A2" points="65.9590819 40.3391252 92.1910437 40.3391252 92.1910437 14.1071633 65.9590819 14.1071633"></polygon>
                <polygon id="Fill-16" fill="#1D66A2" points="32.4047882 71.4223369 54.8707007 71.4223369 54.8707007 48.9564244 32.4047882 48.9564244"></polygon>
                <polygon id="Fill-17" fill="#1D66A2" points="22.3608073 17.5964799 39.5639186 17.5964799 39.5639186 0.393368558 22.3608073 0.393368558"></polygon>
            </g>
        </g>
    </g>
</svg>