<?xml version="1.0" encoding="utf-8"?>
<!-- Generator: Adobe Illustrator 26.0.0, SVG Export Plug-In . SVG Version: 6.00 Build 0)  -->
<svg version="1.1" id="Layer_1" xmlns="http://www.w3.org/2000/svg" xmlns:xlink="http://www.w3.org/1999/xlink" x="0px" y="0px"
	 viewBox="0 0 288 288" style="enable-background:new 0 0 288 288;" xml:space="preserve">
<style type="text/css">
	.st0{fill:#451F58;}
	.st1{fill:#1A0021;}
	.st2{fill:#1E1422;}
	.st3{fill:#FFFFFF;}
	.st4{fill:#D5B789;}
	.st5{fill:#BB9359;}
</style>
<path class="st0" d="M144,2.9C66.1,2.9,2.9,66.1,2.9,144c0,77.9,63.1,141.1,141.1,141.1c77.9,0,141.1-63.1,141.1-141.1
	C285.1,66.1,221.9,2.9,144,2.9z"/>
<circle class="st1" cx="144" cy="144" r="86.3"/>
<path class="st2" d="M145.4,75.8"/>
<path class="st2" d="M145.4,77.2"/>
<path class="st2" d="M145.4,76.3"/>
<path class="st2" d="M145.4,77.7"/>
<path class="st2" d="M145.4,75.8"/>
<path class="st2" d="M145.4,77.2"/>
<g>
	<path class="st3" d="M144,232.6c-48.9,0-88.6-39.8-88.6-88.6S95.1,55.4,144,55.4s88.6,39.8,88.6,88.6S192.9,232.6,144,232.6z
		 M144,60c-46.3,0-84,37.7-84,84s37.7,84,84,84s84-37.7,84-84S190.3,60,144,60z"/>
	<g>
		<g>
			<path class="st3" d="M49.1,56.6c1.8,1.7,1.9,3.2-0.4,5.7c-2.3,2.5-3.8,2.6-5.7,0.9c-1.8-1.6-1.9-3.2,0.4-5.7
				C45.7,55,47.3,55,49.1,56.6z M65.3,71.8c1,0.9,1.9,0.7,2.6,0l0.2-0.2c0.5-0.5,0.9-0.4,1.3-0.1c0.9,0.8,1.2,5-0.6,6.9
				c-2.6,2.8-5.4,2.9-7.9,0.7L48.5,68c-0.5-0.5-0.3-1.7,1.8-4.1c2.1-2.3,3.4-2.7,3.9-2.2L65.3,71.8z"/>
			<path class="st3" d="M81.7,60.1l-6.2-8.4c-0.7-1-1.8-1.2-2.8-0.5c-1.1,0.8-1.8,3.1-1,4.3l7.8,10.6c0.4,0.6,0,1.8-2.6,3.6
				c-2.5,1.9-3.8,2-4.2,1.4l-8.5-11.6c-1-1.4-2.5-1.3-3-2c-0.8-1.1,1-6,2.5-7.1c0.8-0.6,1.4-0.7,2.9-0.2c0.3,0.1,0.6,0.2,0.9,0.3
				c0.6-1.8,1.9-4.3,4.5-6.3c3-2.2,6.7-2.4,9.1,0.8l6.3,8.6c0.8,1.1,1.8,1.1,2.5,0.5l0.2-0.2c0.5-0.4,1-0.2,1.2,0.2
				c0.7,1,0.2,5.1-1.9,6.7C86.4,63.2,83.6,62.8,81.7,60.1z"/>
			<path class="st3" d="M92.6,54.3c-0.4-0.9,0.9-4.9,1.7-5.2c0.6-0.3,4.5,1,7.2-0.1c0.9-0.4,1.4-1.2,1-2c-1.2-2.9-11.5,2.5-14.3-4
				c-1.9-4.3,1.4-8.8,6.6-11.1c4.7-2,8.2-1.5,8.7-0.5c0.4,1-0.7,4.8-1.6,5.2c-0.7,0.3-3.8-0.6-5.7,0.2c-0.9,0.4-1.1,1.2-0.8,1.9
				c1.3,3,11.4-2.7,14.5,4.4c1.8,4.1-0.9,8.7-6.5,11C98.4,56.2,93,55.2,92.6,54.3z"/>
			<path class="st3" d="M111.6,37.7c-1.4-7.9,3.8-12.7,10.5-13.8c6.8-1.2,13.2,1.6,14.6,9.5c1.4,7.9-3.7,12.8-10.5,14
				C119.4,48.5,113,45.6,111.6,37.7z M128.2,34.8c-1-5.4-3.2-6.1-5.1-5.7c-1.9,0.3-3.9,1.7-2.9,7.1s3.3,6.1,5.2,5.8
				C127.2,41.6,129.1,40.2,128.2,34.8z"/>
			<path class="st3" d="M167,42.5l1.4-10.7c0.1-1.1-0.6-1.8-1.5-1.9c-1.6-0.2-3.3,1-3.4,1.8l-1.8,13.6c-0.1,0.7-1.2,1.2-4.4,0.8
				c-3.1-0.4-4.1-1.2-4-1.9l1.9-14.1c0.2-1.2-0.7-1.9-1.7-2c-1.3-0.2-3.1,0.6-3.2,1.5l-1.8,13.9c-0.1,0.7-1.2,1.2-4.4,0.8
				c-3.1-0.4-4.1-1.2-4-1.9l1.9-14.3c0.2-1.7-0.9-2.7-0.8-3.5c0.2-1.3,4.9-3.6,6.8-3.4c1.1,0.1,1.7,0.6,2.6,2.7c0,0,3.2-2,6.4-1.5
				c2.4,0.3,4.4,1.4,5.4,3.1c2.1-1.3,5.6-1.7,8.2-1.3c3.4,0.5,7,3,6.5,6.6l-1.5,11c-0.2,1.4,0.5,2,1.5,2.1l0.2,0
				c0.7,0.1,0.9,0.5,0.9,1c-0.2,1.2-3.4,3.8-6,3.5C168.3,48,166.6,45.8,167,42.5z"/>
			<path class="st3" d="M192.6,51.9l4.5-9.4c0.5-1.1,0.2-2.2-0.9-2.7c-1.3-0.6-3.6-0.1-4.2,1.1l-5.7,11.8c-0.3,0.6-1.6,0.8-4.4-0.6
				c-2.9-1.4-3.5-2.4-3.2-3.1l6.2-13c0.7-1.5,0-2.8,0.3-3.6c0.6-1.2,5.8-1.9,7.5-1.1c0.8,0.4,1.2,0.9,1.5,2.5c0.1,0.3,0.1,0.6,0.1,1
				c1.9-0.3,4.7-0.4,7.7,1c3.4,1.6,5.3,4.8,3.6,8.4L201,54c-0.6,1.3-0.1,2.1,0.7,2.5l0.2,0.1c0.6,0.3,0.6,0.7,0.4,1.2
				c-0.5,1.1-4.4,2.6-6.8,1.4C192.1,57.6,191.2,54.9,192.6,51.9z"/>
			<path class="st3" d="M212.4,62.4c-0.8,1.1-0.5,2,0.2,2.6l0.2,0.1c0.5,0.4,0.5,0.9,0.2,1.3c-0.7,1-4.8,1.7-6.9,0.1
				c-3.1-2.3-3.5-5.1-1.5-7.8l9.9-13.3c0.4-0.6,1.7-0.5,4.2,1.4c2.5,1.9,3,3.1,2.6,3.6L212.4,62.4z M225.8,44.8
				c-1.5,2-3,2.2-5.7,0.2c-2.7-2-3-3.5-1.5-5.5c1.4-1.9,3-2.2,5.8-0.2C227,41.3,227.2,42.9,225.8,44.8z"/>
			<path class="st3" d="M223,79.6c-1.8-0.5-3.7-1.1-6-3.5c-3.2-3.4-3.5-7.6-0.6-10.3c4.1-3.8,8-1.9,13.6,1.6
				c1.5,0.9,2.2,1.1,2.6,0.7c0.5-0.4,0.5-1.3-0.9-2.8c-2.3-2.5-6.1-3.6-6.6-4.1c-0.3-0.4-0.3-0.8,0-1.1c0.5-0.5,2.4-1.8,4.3-2.2
				c1.1-0.3,4.1,1,7.3,4.4c4.6,5,4.6,9.4,0.2,13.5l-5.7,5.3c-1,0.9-0.9,1.9-0.2,2.6l0.1,0.1c0.5,0.5,0.4,1.1,0.1,1.4
				c-0.9,0.8-5.1,0.8-6.8-1.2C223.2,82.7,223,79.6,223,79.6z M222.5,74.5c0.9,1,2.1,1.1,2.5,0.7l3.3-3c0.2-0.2,0.2-0.3,0.1-0.5
				c-0.8-0.8-1.9-1.5-3-1.7c-1.1-0.3-2.2-0.1-3,0.6C221.2,71.6,221.3,73.1,222.5,74.5z"/>
		</g>
		<g>
			<path class="st3" d="M67.5,233.9c4.2-6.9,11-7.3,16.5-3.9c3.7,2.3,4.8,4.7,4.3,5.5c-0.5,0.8-3.5,2.2-4.3,1.7
				c-0.5-0.3-0.8-2.1-2.8-3.4c-1.8-1.1-4.8-1.1-7.5,3.3c-2.4,3.9-1.3,7,1.6,8.8c2.9,1.8,5.4,1.2,6,1.6c0.2,0.1,0.4,0.4,0.2,0.8
				c-0.4,0.7-1.5,1.8-2.6,2.5c-0.9,0.6-4.1,0.4-7.1-1.4C66.5,246.1,63.5,240.4,67.5,233.9z"/>
			<path class="st3" d="M87.9,245.5c2.8-7.2,9.1-8.6,14.8-6.4c5.6,2.2,9.3,7.6,6.5,14.7c-2.8,7.2-9.2,8.7-14.8,6.5
				C88.7,258.1,85.1,252.7,87.9,245.5z M102.8,251.3c1.9-4.9,0.7-7.4-1.6-8.3c-2.3-0.9-4.9,0.1-6.9,5c-1.9,4.9-0.7,7.4,1.6,8.3
				C98.2,257.2,100.8,256.2,102.8,251.3z"/>
			<path class="st3" d="M113.2,255c1.2-7.6,7-10.4,13-9.5c6,0.9,10.7,5.3,9.6,12.9c-1.2,7.6-7,10.6-13,9.6
				C116.7,267.2,112,262.7,113.2,255z M129,257.4c0.8-5.3-1-7.4-3.4-7.8c-2.4-0.4-4.8,1.1-5.6,6.4c-0.8,5.3,1,7.4,3.4,7.8
				C125.8,264.2,128.2,262.6,129,257.4z"/>
			<path class="st3" d="M142.8,268.3l-3.1-28.9c-0.1-0.6,0.4-1.1,3.1-1.4c2.6-0.3,3.2,0.1,3.3,0.7l1.7,15.8c2.7-1.2,5-4.7,6-7.8
				c0.2-0.5,0.3-0.8,0.8-0.9l4.3-0.5c0.5-0.1,0.8,0.1,0.8,0.5c0,0.3-0.1,0.7-0.3,1.3c-1,2.8-2.9,6.6-5.5,8.8
				c1.8,0.8,3.1,2.5,5.4,5.8c0.9,1.3,1.5,1.6,2.7,1.5l0.9-0.1c0.3,0,0.6,0.1,0.6,0.5c0.1,0.9-2.4,4.1-4.5,4.3
				c-1.7,0.2-2.9-0.4-3.7-1.6c-3.3-4.5-4.7-6.7-5.7-7c-0.3,0.1-1.4,0.6-1.4,0.7l0.8,7.5c0.1,0.5-0.5,1.1-3.1,1.4
				C143.5,269.3,142.9,268.8,142.8,268.3z"/>
			<path class="st3" d="M169,237.4c0.5,2.3-0.4,3.4-2.7,3.9c-2.3,0.5-3.6-0.1-4.1-2.5c-0.5-2.3,0.3-3.5,2.7-4
				C167.2,234.4,168.5,235.1,169,237.4z M173.4,258.8c0.3,1.3,1,1.7,2,1.5l0.9-0.2c0.5-0.1,0.6,0.1,0.7,0.4c0.2,1-1.5,4.3-3.5,4.8
				c-3.1,0.7-5.4-0.8-6.1-3.9l-3.5-15.9c-0.1-0.5,0.4-1.1,2.9-1.7c2.6-0.6,3.2-0.2,3.3,0.3L173.4,258.8z"/>
			<path class="st3" d="M178.8,253c-2.7-8.1,1.5-13.2,6.7-14.9c5.6-1.9,9.2-0.2,10.3,3.2c1.8,5.5-4.5,10.1-9.4,11.9
				c1.7,2.2,4.3,2.2,6.6,1.4c3.2-1.1,4.3-3.5,4.9-3.7c0.3-0.1,0.6,0,0.8,0.4c0.2,0.7,0.4,2.2,0.4,3.6c0,1-2.1,3.5-5.6,4.7
				C187.1,261.8,181.2,260,178.8,253z M185.1,250.2c3.2-1.4,5.6-4.2,4.6-7.2c-0.4-1.1-1.6-1.7-2.7-1.3
				C184.9,242.4,183.5,245,185.1,250.2z"/>
			<path class="st3" d="M204.5,251.4c-0.5-0.8,0.3-4.1,0.9-4.4c0.7-0.4,4.1,1,6.9-0.5c1.4-0.7,1.7-1.8,1.1-2.9
				c-0.8-1.4-3-0.9-5.5-0.5c-3.1,0.4-6.6,0.7-8.4-2.5c-2.1-3.8-0.1-8.1,4.7-10.6c4.3-2.3,7.3-1.7,7.7-0.8c0.5,0.8-0.2,4-0.9,4.4
				c-0.5,0.3-3-0.9-5.3,0.3c-1.3,0.7-1.7,1.9-1.1,2.9c0.7,1.3,2.5,1,4.6,0.7c3.3-0.6,7.4-1.4,9.5,2.4c2.1,3.8,0.2,8.2-4.3,10.6
				C209.8,252.9,204.9,252.2,204.5,251.4z"/>
		</g>
		<path class="st3" d="M42,193.6c-2.8-6.3-5.2-13-7.1-20c-3.3-12.4-4-22.1-4.1-24.8h0l0-0.5c-0.4-5.7-0.1-11.9,0.8-18.4
			c0.7-5.2,1.8-10.6,3.2-16c2.5-9.4,5.3-15.7,5.3-15.8c0.2-0.4,0.2-0.8,0-1.2c-0.1-0.4-0.4-0.7-0.8-0.9c-0.8-0.3-1.7,0-2,0.8
			c-0.1,0.3-11.2,25.6-9.6,51.6c0.2,4,2.2,39.5,24.3,67.9c0.3,0.4,0.7,0.6,1.2,0.6c0.3,0,0.7-0.1,1-0.3c0.3-0.3,0.5-0.6,0.6-1
			c0.1-0.4-0.1-0.8-0.3-1.1C49.7,208.2,45.5,201.2,42,193.6z M35.5,175.8c0,0.1,0.1,0.2,0.1,0.3C35.6,176,35.5,175.9,35.5,175.8z
			 M37,180.7c0,0.1,0,0.1,0.1,0.2C37,180.8,37,180.8,37,180.7z M38.7,185.7c0,0.1,0.1,0.2,0.1,0.3C38.8,185.9,38.8,185.8,38.7,185.7
			z M40.8,190.8c0.1,0.1,0.1,0.2,0.2,0.4C40.9,191.1,40.8,190.9,40.8,190.8z"/>
		<path class="st3" d="M233.5,214.3c-0.3,0.3-0.4,0.7-0.3,1.1c0.1,0.4,0.3,0.8,0.6,1c0.3,0.2,0.6,0.3,1,0.3c0.5,0,0.9-0.2,1.2-0.6
			c22.1-28.4,24.1-63.9,24.3-67.9c1.7-26-9.4-51.4-9.6-51.6c-0.3-0.8-1.3-1.1-2-0.8c-0.4,0.2-0.7,0.5-0.8,0.9
			c-0.1,0.4-0.1,0.8,0,1.2c0,0.1,2.8,6.3,5.3,15.8c1.5,5.4,2.5,10.8,3.2,16c0.9,6.5,1.1,12.7,0.8,18.4l0,0.5h0
			c-0.1,2.7-0.8,12.4-4.1,24.8c-1.9,7-4.2,13.8-7.1,20C242.5,201.1,238.3,208.1,233.5,214.3z M252.4,176c0-0.1,0.1-0.2,0.1-0.3
			C252.4,175.8,252.4,175.9,252.4,176z M250.9,180.8c0-0.1,0-0.1,0.1-0.2C250.9,180.7,250.9,180.8,250.9,180.8z M249.1,185.9
			c0-0.1,0.1-0.2,0.1-0.3C249.2,185.7,249.1,185.8,249.1,185.9z M247,191.1c0.1-0.1,0.1-0.2,0.2-0.4
			C247.1,190.9,247.1,191,247,191.1z"/>
	</g>
</g>
<g>
	<path class="st3" d="M141.2,110.1l3.7,1.3c0.4,0.2,0.8,0.5,0.9,1l1,3.8c0.3,1.2,1.8,1.5,2.5,0.5l2.4-3.1c0.3-0.4,0.7-0.6,1.2-0.5
		l3.9,0.3c1.2,0.1,1.9-1.2,1.3-2.2l-2.2-3.2c-0.3-0.4-0.3-0.9-0.1-1.3l1.4-3.6c0.4-1.1-0.6-2.2-1.7-1.9l-3.8,1.1
		c-0.5,0.1-0.9,0-1.3-0.3l-3-2.5c-0.9-0.8-2.3-0.1-2.4,1l-0.1,3.9c0,0.5-0.3,0.9-0.7,1.2l-3.3,2.1
		C139.9,108.2,140,109.7,141.2,110.1z"/>
	<path class="st3" d="M165,142.2c0.3,0.4,0.5,1,0.3,1.5l-0.7,2.6c-0.3,1.3,0.9,2.4,2.2,1.9l2.5-1c0.5-0.2,1.1-0.1,1.5,0.1l2.2,1.5
		c1.1,0.7,2.6-0.1,2.5-1.5l-0.2-2.7c0-0.5,0.2-1.1,0.6-1.4l2.1-1.7c1.1-0.9,0.7-2.5-0.6-2.8l-2.6-0.6c-0.5-0.1-0.9-0.5-1.1-1
		l-0.9-2.5c-0.5-1.3-2.2-1.4-2.9-0.3l-1.4,2.3c-0.3,0.5-0.8,0.7-1.3,0.8l-2.7,0.1c-1.3,0.1-2,1.6-1.2,2.7L165,142.2z"/>
	<path class="st3" d="M173.6,118.8l2.5,0c0.4,0,0.7,0.2,0.9,0.5l1.4,2.1c0.5,0.8,1.7,0.6,1.9-0.3l0.8-2.4c0.1-0.3,0.4-0.6,0.7-0.7
		l2.4-0.7c0.9-0.2,1.1-1.4,0.4-1.9l-2-1.5c-0.3-0.2-0.5-0.6-0.4-0.9l0.1-2.5c0-0.9-1-1.5-1.7-0.9l-2.1,1.5c-0.3,0.2-0.7,0.3-1,0.1
		l-2.4-0.9c-0.9-0.3-1.7,0.5-1.4,1.4l0.7,2.4c0.1,0.3,0,0.7-0.2,1l-1.6,2C172.2,117.8,172.7,118.8,173.6,118.8z"/>
</g>
<path class="st4" d="M201.4,173c-1.7,3.4-3.7,6.6-5.9,9.6c-0.8,1.1-1.6,2.1-2.5,3.1c-0.1,0.1-0.1,0.1-0.2,0.2
	c-11.8,13.8-29.3,22.6-48.9,22.6c-35.5,0-64.3-28.8-64.3-64.3c0-22.4,11.5-42.1,28.8-53.6c1.6-1.1,3.4-2.1,5.1-3.1
	c0.2-0.1,0.3-0.2,0.5-0.3c0.1-0.1,0.2-0.1,0.3-0.1c0.3-0.1,0.6-0.1,0.8,0c0.2,0.1,0.4,0.3,0.4,0.6c0,0.2,0,0.4-0.1,0.5
	c-0.2,0.5-0.5,0.9-0.8,1.4c-0.1,0.3-0.3,0.6-0.4,0.8c-0.3,0.5-0.5,1.1-0.8,1.6c-0.2,0.6-0.5,1.1-0.7,1.7c0,0.1-0.1,0.2-0.1,0.3
	c-0.2,0.5-0.4,1.1-0.6,1.6c-0.2,0.5-0.3,1.1-0.5,1.6c-0.2,0.5-0.3,1.1-0.4,1.6c-0.1,0.5-0.2,1.1-0.3,1.6c-0.1,0.6-0.1,1.1-0.1,1.7
	c0,0.1,0,0.2,0,0.3c0,2.3,0.5,4.7,2,6.5c0.5,0.6,1.2,1.2,1.7,1.8c0.1,0.1,0.2,0.3,0.3,0.4c0.8,1.1,0.8,2.3,0.5,3.6
	c-0.2,1-0.7,2.1-0.9,3.1c-1.2,4.5,1.1,11.4,3.3,14.1c1.6,1.9,4.5,2.1,6.2,4.2c0.6,0.8,1.1,1.8,1.2,3.4c0.1,0.8,0.1,1.5,0.2,2.1
	c0.3,4.3,0.6,5.6,4.2,8.1c2.1,1.5,5.3,1.8,9,4.2c0.1,0.1,0.2,0.1,0.3,0.2c1.4,1.1,0.9,2.3,1.3,4.2c0.2,0.8,0.5,1.8,1.2,2.9
	c0.5,0.8,1.5,1.2,2.8,1.5c2.4,0.6,5.5,0.7,7.3,1.4c0,0,2,0.5,3.7,1.9c0.2,0.1,0.4,0.3,0.6,0.5c1.1,1,1.2,1.9,2.2,3
	c1.5,1.8,5.4,1.9,5.4,1.9c1.3,0.2,4.8-0.3,6.7-1.5c1.1-0.7,2.4-0.8,3.6-0.3c1.4,0.6,2.7,1.8,4.1,2.5c4.4,2.3,7.8,2.9,13.4,1.4
	c4.5-1.2,7.1-3.4,10.8-6c0.1-0.1,0.3-0.2,0.4-0.2c0.2-0.1,0.4,0,0.6,0.2c0.1,0.2,0.1,0.4,0.1,0.5c0,0.6-0.2,1.3-0.4,1.8
	C202.2,171,201.8,172,201.4,173z"/>
<path class="st5" d="M194.4,183.9c-0.5,0.6-0.9,1.2-1.4,1.8c-0.1,0.1-0.1,0.1-0.2,0.2c-11.8,13.8-29.3,22.6-48.9,22.6
	c-35.5,0-64.3-28.8-64.3-64.3c0-20.8,9.9-39.4,25.3-51.1c-8.6,10.9-13.8,24.7-13.8,39.7c0,35.5,28.8,64.3,64.3,64.3
	C170.1,197.1,183.6,192.1,194.4,183.9z"/>
<g>
	<path class="st0" d="M160,185.8c0-3.1-2.5-5.7-5.7-5.7c-3.1,0-5.7,2.5-5.7,5.7c0,3.1,2.5,5.7,5.7,5.7
		C157.5,191.4,160,188.9,160,185.8"/>
	<path class="st0" d="M107.1,170.5c0-3.1-2.5-5.7-5.7-5.7c-3.1,0-5.7,2.5-5.7,5.7c0,3.1,2.5,5.7,5.7,5.7
		C104.6,176.2,107.1,173.7,107.1,170.5"/>
	<path class="st0" d="M185.2,183.1c0-2.5-2-4.5-4.5-4.5c-2.5,0-4.5,2-4.5,4.5c0,2.5,2,4.5,4.5,4.5
		C183.1,187.7,185.2,185.6,185.2,183.1"/>
	<path class="st0" d="M136.1,186.3c0-4.2-3.4-7.7-7.7-7.7c-4.2,0-7.7,3.4-7.7,7.7c0,4.2,3.4,7.7,7.7,7.7
		C132.7,194,136.1,190.5,136.1,186.3"/>
	<path class="st0" d="M130.6,162.7c0-2.8-2.2-5-5-5s-5,2.2-5,5c0,2.8,2.2,5,5,5S130.6,165.4,130.6,162.7"/>
	<path class="st0" d="M103.9,144.7c0-3.9-3.2-7.1-7.1-7.1c-3.9,0-7.1,3.2-7.1,7.1c0,3.9,3.2,7.1,7.1,7.1
		C100.7,151.8,103.9,148.6,103.9,144.7"/>
	<path class="st0" d="M104,117c0-2-1.6-3.7-3.7-3.7c-2,0-3.7,1.6-3.7,3.7c0,2,1.6,3.7,3.7,3.7C102.4,120.7,104,119,104,117"/>
</g>
</svg>
