<svg id="Layer_1" data-name="Layer 1" xmlns="http://www.w3.org/2000/svg" xmlns:xlink="http://www.w3.org/1999/xlink" viewBox="0 0 293.06 52.37"><defs><style>.cls-1,.cls-5{fill:none;}.cls-2{fill:#354e5c;}.cls-3{fill:#41b19c;}.cls-4{clip-path:url(#clip-path);}.cls-5{stroke:#000;stroke-miterlimit:10;stroke-width:0.51px;}.cls-6{fill:#eec94d;}.cls-7{fill:#58595b;}</style><clipPath id="clip-path"><rect class="cls-1" x="7.3" y="3.74" width="272.72" height="48.63"/></clipPath></defs><rect class="cls-2" x="55.43" y="10.49" width="18.51" height="7.4"/><rect class="cls-2" x="19.33" y="10.49" width="7.41" height="24.07"/><rect class="cls-2" x="31.37" y="10.49" width="7.4" height="35.17"/><rect class="cls-2" x="7.3" y="10.49" width="7.4" height="35.17"/><rect class="cls-2" x="55.43" y="22.53" width="7.4" height="23.14"/><rect class="cls-2" x="43.4" y="10.49" width="7.4" height="7.4"/><rect class="cls-3" x="43.4" y="22.53" width="7.4" height="23.14"/><g class="cls-4"><line class="cls-5" x1="90.54" y1="3.73" x2="90.54" y2="52.37"/></g><g class="cls-4"><path class="cls-3" d="M128.67,32a12.62,12.62,0,0,0,3.46-11.38A12.62,12.62,0,0,0,117.3,35.47,12.61,12.61,0,0,0,128.67,32"/><path class="cls-2" d="M118.74,22.08a15.44,15.44,0,0,1,12.39-4.45,12.49,12.49,0,0,0-2.46-3.47A12.62,12.62,0,0,0,110.82,32a12.49,12.49,0,0,0,3.47,2.46,15.44,15.44,0,0,1,4.45-12.39"/><path class="cls-6" d="M130.68,34a15.43,15.43,0,0,1-12.39,4.45,12.63,12.63,0,1,0,16.85-16.84A15.44,15.44,0,0,1,130.68,34"/><path class="cls-7" d="M161.77,20.05a2.44,2.44,0,0,0-.54-1.62,1.84,1.84,0,0,0-1.48-.63,1.8,1.8,0,0,0-1.46.63,2.49,2.49,0,0,0-.51,1.62v1.54a2.47,2.47,0,0,0,.52,1.63,1.81,1.81,0,0,0,1.46.64,1.85,1.85,0,0,0,1.48-.64,2.48,2.48,0,0,0,.53-1.63Zm1.84,1.53a3.38,3.38,0,0,1-1.07,2.56,4.27,4.27,0,0,1-5.54,0,3.37,3.37,0,0,1-1.06-2.56V20.06A3.39,3.39,0,0,1,157,17.5a3.78,3.78,0,0,1,2.75-1,3.9,3.9,0,0,1,2.79,1,3.4,3.4,0,0,1,1.07,2.56Z"/><path class="cls-7" d="M165.42,25V20h-1V18.77h1v-.7a2,2,0,0,1,.66-1.62,2.76,2.76,0,0,1,1.86-.57l.48,0L169,16l-.16,1.26-.29,0-.33,0a.93.93,0,0,0-.68.23.86.86,0,0,0-.23.64v.7h1.36V20h-1.36V25Z"/><path class="cls-7" d="M170.08,25V20h-1V18.77h1v-.7a2,2,0,0,1,.66-1.62,2.76,2.76,0,0,1,1.86-.57l.48,0,.53.09-.15,1.26-.3,0-.33,0a.93.93,0,0,0-.68.23.86.86,0,0,0-.23.64v.7h1.36V20h-1.36V25Z"/><path class="cls-7" d="M176.19,25h-1.84V18.77h1.84Zm0-7.77h-1.84V16h1.84Z"/><path class="cls-7" d="M180.62,23.85a1.1,1.1,0,0,0,.78-.26.87.87,0,0,0,.3-.7h1.67l0,0a1.88,1.88,0,0,1-.78,1.59,3.12,3.12,0,0,1-2,.64,3.08,3.08,0,0,1-2.36-.89,3.21,3.21,0,0,1-.83-2.27v-.18a3.21,3.21,0,0,1,.83-2.27,3.5,3.5,0,0,1,4.39-.24,2.11,2.11,0,0,1,.74,1.74v0H181.7a1.16,1.16,0,0,0-.29-.81,1,1,0,0,0-.8-.32,1.08,1.08,0,0,0-1,.52,2.63,2.63,0,0,0-.3,1.34V22a2.65,2.65,0,0,0,.3,1.35,1.1,1.1,0,0,0,1,.51"/><path class="cls-7" d="M187.34,20a1,1,0,0,0-.81.36,1.67,1.67,0,0,0-.36.94l0,0h2.26v-.15a1.29,1.29,0,0,0-.28-.86,1,1,0,0,0-.83-.32m.17,5.2a3.23,3.23,0,0,1-2.37-.87,3,3,0,0,1-.88-2.21v-.23a3.24,3.24,0,0,1,.84-2.3,3.31,3.31,0,0,1,4.39-.13,2.79,2.79,0,0,1,.76,2.07v.92h-4.08v0a1.55,1.55,0,0,0,.45,1,1.5,1.5,0,0,0,1.09.39,3.69,3.69,0,0,0,1-.11,4.58,4.58,0,0,0,.88-.35l.5,1A3.57,3.57,0,0,1,189,25a5,5,0,0,1-1.5.21"/><path class="cls-7" d="M196.17,22a2.66,2.66,0,0,0,.33,1.38,1.18,1.18,0,0,0,1.06.52,1.15,1.15,0,0,0,1.05-.53,2.5,2.5,0,0,0,.33-1.37v-.12a2.54,2.54,0,0,0-.33-1.36,1.17,1.17,0,0,0-1.06-.52,1.13,1.13,0,0,0-1,.53,2.5,2.5,0,0,0-.34,1.35Zm-1.83-.11a3.19,3.19,0,0,1,.85-2.3,3.1,3.1,0,0,1,2.36-.9,3,3,0,0,1,3.23,3.2V22a3.22,3.22,0,1,1-6.44,0Z"/><path class="cls-7" d="M202.44,25V20h-1V18.77h1v-.7a2,2,0,0,1,.66-1.62,2.76,2.76,0,0,1,1.86-.57l.48,0L206,16l-.15,1.26-.3,0-.33,0a1,1,0,0,0-.68.23.86.86,0,0,0-.23.64v.7h1.36V20h-1.36V25Z"/><path class="cls-7" d="M217.09,23.88a3.43,3.43,0,0,1-1.28.89,5.38,5.38,0,0,1-2.2.39,4,4,0,0,1-2.75-1,3.21,3.21,0,0,1-1.06-2.5V19.94a3.26,3.26,0,0,1,1-2.49,3.69,3.69,0,0,1,2.64-1,3.93,3.93,0,0,1,2.58.75,2.51,2.51,0,0,1,.91,2v0H215.2a1.57,1.57,0,0,0-.47-1.07,2,2,0,0,0-2.58.21,2.27,2.27,0,0,0-.52,1.55V21.7a2.24,2.24,0,0,0,.54,1.56,1.87,1.87,0,0,0,1.44.59,3.66,3.66,0,0,0,1-.12,1.54,1.54,0,0,0,.59-.3V21.87h-1.63V20.7h3.48Z"/><path class="cls-7" d="M220.11,22a2.56,2.56,0,0,0,.33,1.38,1.17,1.17,0,0,0,1.06.52,1.15,1.15,0,0,0,1.05-.53,2.5,2.5,0,0,0,.33-1.37v-.12a2.45,2.45,0,0,0-.34-1.36,1.31,1.31,0,0,0-2.1,0,2.5,2.5,0,0,0-.33,1.35Zm-1.83-.11a3.19,3.19,0,0,1,.85-2.3,3.56,3.56,0,0,1,4.73,0,3.14,3.14,0,0,1,.86,2.3V22a3.22,3.22,0,1,1-6.44,0Z"/><polygon class="cls-7" points="228.26 22.7 228.38 23.28 228.42 23.28 228.54 22.7 229.67 18.77 231.59 18.77 229.27 25.04 227.51 25.04 225.18 18.77 227.11 18.77 228.26 22.7"/><path class="cls-7" d="M235.2,20a1,1,0,0,0-.81.36,1.75,1.75,0,0,0-.37.94l0,0h2.26v-.15a1.28,1.28,0,0,0-.27-.86,1,1,0,0,0-.83-.32m.16,5.2a3.23,3.23,0,0,1-2.36-.87,3,3,0,0,1-.88-2.21v-.23a3.24,3.24,0,0,1,.83-2.3,2.93,2.93,0,0,1,2.25-.9,2.87,2.87,0,0,1,2.14.77,2.8,2.8,0,0,1,.77,2.07v.92H234v0a1.55,1.55,0,0,0,.45,1,1.48,1.48,0,0,0,1.09.39,3.62,3.62,0,0,0,1-.11,4.65,4.65,0,0,0,.89-.35l.5,1a3.63,3.63,0,0,1-1.1.52,5,5,0,0,1-1.5.21"/><path class="cls-7" d="M242.81,20.22h-.67a1.37,1.37,0,0,0-.68.15,1.06,1.06,0,0,0-.4.44V25h-1.84V18.77h1.71l.08.93a1.94,1.94,0,0,1,.63-.77,1.4,1.4,0,0,1,.88-.28l.25,0,.24,0Z"/><path class="cls-7" d="M245.47,18.77l.08.9a2.5,2.5,0,0,1,.84-.75,2.35,2.35,0,0,1,1.12-.27,2.16,2.16,0,0,1,1.62.6,2.59,2.59,0,0,1,.58,1.87V25h-1.85V21.12a1.2,1.2,0,0,0-.28-.9,1.14,1.14,0,0,0-.84-.26,1.59,1.59,0,0,0-.66.13,1.29,1.29,0,0,0-.48.39V25h-1.85V18.77Z"/><path class="cls-7" d="M252.83,18.77l.08.83a2.17,2.17,0,0,1,.83-.7,2.58,2.58,0,0,1,1.14-.25,2.19,2.19,0,0,1,1.12.27,1.66,1.66,0,0,1,.71.81,2.29,2.29,0,0,1,.82-.79,2.38,2.38,0,0,1,1.19-.29,2.07,2.07,0,0,1,1.59.64,2.82,2.82,0,0,1,.59,1.95V25h-1.85V21.23a1.46,1.46,0,0,0-.25-1,1,1,0,0,0-.75-.28,1.34,1.34,0,0,0-.68.16,1.21,1.21,0,0,0-.46.44c0,.07,0,.14,0,.19s0,.1,0,.16V25h-1.84V21.23a1.57,1.57,0,0,0-.25-1,1,1,0,0,0-.76-.28,1.45,1.45,0,0,0-.65.13,1.14,1.14,0,0,0-.47.37V25h-1.84V18.77Z"/><path class="cls-7" d="M265.21,20a1,1,0,0,0-.81.36,1.67,1.67,0,0,0-.36.94v0h2.27v-.15a1.29,1.29,0,0,0-.28-.86,1,1,0,0,0-.83-.32m.16,5.2a3.23,3.23,0,0,1-2.36-.87,3,3,0,0,1-.88-2.21v-.23a3.24,3.24,0,0,1,.84-2.3,3.31,3.31,0,0,1,4.39-.13,2.79,2.79,0,0,1,.76,2.07v.92H264v0a1.55,1.55,0,0,0,.45,1,1.5,1.5,0,0,0,1.09.39,3.69,3.69,0,0,0,1-.11,4.58,4.58,0,0,0,.88-.35l.5,1a3.57,3.57,0,0,1-1.09.52,5.06,5.06,0,0,1-1.51.21"/><path class="cls-7" d="M270.92,18.77l.08.9a2.5,2.5,0,0,1,.84-.75,2.29,2.29,0,0,1,1.12-.27,2.12,2.12,0,0,1,1.61.6,2.59,2.59,0,0,1,.58,1.87V25H273.3V21.12a1.24,1.24,0,0,0-.27-.9,1.18,1.18,0,0,0-.84-.26,1.53,1.53,0,0,0-.66.13,1.33,1.33,0,0,0-.49.39V25H269.2V18.77Z"/><path class="cls-7" d="M278.76,17.23v1.54h1.15V20h-1.15v3.19a.75.75,0,0,0,.16.52.65.65,0,0,0,.45.16l.25,0a1.29,1.29,0,0,0,.24,0L280,25a2.91,2.91,0,0,1-.55.13,3.27,3.27,0,0,1-.57.05,2.07,2.07,0,0,1-1.47-.48,2,2,0,0,1-.51-1.53V20h-1V18.77h1V17.23Z"/><path class="cls-7" d="M158,32.9a1.2,1.2,0,0,0,.13.51,3.46,3.46,0,0,0,.37.59l.5-.33a1.21,1.21,0,0,0,.44-.43,1.13,1.13,0,0,0,.11-.48.75.75,0,0,0-.76-.74.69.69,0,0,0-.58.25,1,1,0,0,0-.21.63m.6,5.19a2.55,2.55,0,0,0,.61-.08,2.67,2.67,0,0,0,.59-.23l-1.74-2-.11.07a1.78,1.78,0,0,0-.4.54,1.44,1.44,0,0,0-.11.53,1.2,1.2,0,0,0,.32.85,1.11,1.11,0,0,0,.84.33M155.71,37a1.92,1.92,0,0,1,.38-1.18,5.15,5.15,0,0,1,1.14-1,5.3,5.3,0,0,1-.58-1,2.17,2.17,0,0,1-.2-.89,2.1,2.1,0,0,1,.63-1.6,2.31,2.31,0,0,1,1.67-.6,2,2,0,0,1,1.5.57,1.89,1.89,0,0,1,.58,1.38,2,2,0,0,1-.29,1,3,3,0,0,1-.77.82l-.54.38,1.6,1.86a3.14,3.14,0,0,0,.32-.75,3,3,0,0,0,.12-.85h1.26a5.28,5.28,0,0,1-.2,1.47,3.61,3.61,0,0,1-.6,1.19l1.2,1.41v0h-1.87l-.45-.51a4,4,0,0,1-1,.47,3.7,3.7,0,0,1-1.12.16,2.93,2.93,0,0,1-2-.66,2.2,2.2,0,0,1-.75-1.73"/><path class="cls-7" d="M173.14,36.4v0a2.72,2.72,0,0,1-.83,2.16,3.76,3.76,0,0,1-4.84-.17,3.46,3.46,0,0,1-.95-2.52V34.22a3.53,3.53,0,0,1,.93-2.52,3.13,3.13,0,0,1,2.41-1,3.47,3.47,0,0,1,2.44.8,2.74,2.74,0,0,1,.86,2.18l0,0h-1.64a1.84,1.84,0,0,0-.4-1.28,1.61,1.61,0,0,0-1.24-.44,1.42,1.42,0,0,0-1.21.62,2.58,2.58,0,0,0-.45,1.57v1.68a2.54,2.54,0,0,0,.47,1.58,1.53,1.53,0,0,0,1.27.62,1.46,1.46,0,0,0,1.17-.43,1.79,1.79,0,0,0,.38-1.26Z"/><path class="cls-7" d="M175.59,36.2a2.7,2.7,0,0,0,.3,1.37,1.16,1.16,0,0,0,1.93,0,2.73,2.73,0,0,0,.3-1.37v-.12a2.71,2.71,0,0,0-.3-1.36,1.05,1.05,0,0,0-1-.53,1,1,0,0,0-1,.53,2.74,2.74,0,0,0-.3,1.36Zm-1.69-.12a3.39,3.39,0,0,1,.78-2.3,3.1,3.1,0,0,1,4.35,0,3.38,3.38,0,0,1,.79,2.3v.12a3.36,3.36,0,0,1-.79,2.3,3.09,3.09,0,0,1-4.34,0,3.31,3.31,0,0,1-.79-2.3Z"/><path class="cls-7" d="M182.37,33l.07.83a2.18,2.18,0,0,1,.75-.7,2.26,2.26,0,0,1,1.05-.24,2,2,0,0,1,1,.26,1.64,1.64,0,0,1,.64.81,2.22,2.22,0,0,1,.76-.79,2,2,0,0,1,1.09-.28,1.81,1.81,0,0,1,1.46.64,3,3,0,0,1,.53,1.95v3.79h-1.69V35.46a1.57,1.57,0,0,0-.23-1,.82.82,0,0,0-.69-.28,1.15,1.15,0,0,0-.62.16,1.18,1.18,0,0,0-.42.44,1,1,0,0,0,0,.19v4.29h-1.68V35.46a1.55,1.55,0,0,0-.24-1,.83.83,0,0,0-.69-.29,1.2,1.2,0,0,0-1,.5v4.58H180.8V33Z"/><path class="cls-7" d="M192.57,33l.07.83a2.12,2.12,0,0,1,.76-.7,2.2,2.2,0,0,1,1-.24,2,2,0,0,1,1,.26,1.66,1.66,0,0,1,.65.81,2.11,2.11,0,0,1,.75-.79,2,2,0,0,1,1.09-.28,1.78,1.78,0,0,1,1.46.64,3,3,0,0,1,.54,1.95v3.79h-1.69V35.46a1.63,1.63,0,0,0-.23-1,.85.85,0,0,0-.69-.28,1.18,1.18,0,0,0-.63.16,1.36,1.36,0,0,0-.42.44c0,.08,0,.14,0,.19s0,.11,0,.16v4.13h-1.69V35.46a1.62,1.62,0,0,0-.23-1,.86.86,0,0,0-.7-.29,1.32,1.32,0,0,0-.6.13,1.15,1.15,0,0,0-.42.37v4.58H191V33Z"/><path class="cls-7" d="M205,38.37a2.25,2.25,0,0,1-.74.76,2,2,0,0,1-1,.26,2,2,0,0,1-1.55-.63,2.9,2.9,0,0,1-.56-2V33h1.68v3.81a1.66,1.66,0,0,0,.23,1,.83.83,0,0,0,.69.3,1.77,1.77,0,0,0,.69-.13,1.22,1.22,0,0,0,.48-.39V33h1.69v6.27h-1.44Z"/><path class="cls-7" d="M209.39,33l.07.9a2.32,2.32,0,0,1,.78-.75,2,2,0,0,1,1-.26,1.9,1.9,0,0,1,1.48.59,2.76,2.76,0,0,1,.54,1.88v3.91h-1.7V35.35a1.24,1.24,0,0,0-.26-.89,1,1,0,0,0-.77-.27,1.33,1.33,0,0,0-.6.14,1.24,1.24,0,0,0-.44.38v4.56h-1.7V33Z"/><path class="cls-7" d="M216.26,39.27h-1.69V33h1.69Zm0-7.77h-1.69V30.24h1.69Z"/><path class="cls-7" d="M219.6,31.47V33h1.05v1.19H219.6v3.19a.72.72,0,0,0,.15.52.51.51,0,0,0,.4.16h.23l.23,0,.14,1.22a3.07,3.07,0,0,1-.5.13,2.89,2.89,0,0,1-.52,0,1.79,1.79,0,0,1-1.35-.48,2.08,2.08,0,0,1-.47-1.52v-3.2H217V33h.92V31.47Z"/><path class="cls-7" d="M223.93,36.64,224,37h0l1.2-4h1.82l-2.54,7.21a3.42,3.42,0,0,1-.72,1.13,1.87,1.87,0,0,1-1.38.46,2.38,2.38,0,0,1-.39,0l-.45-.1.2-1.23.16,0h.16a.94.94,0,0,0,.64-.2,1.37,1.37,0,0,0,.35-.52l.2-.48L221.05,33h1.82Z"/><path class="cls-7" d="M232.39,34.6h1.46a1.63,1.63,0,0,0,1.07-.3,1.15,1.15,0,0,0,.35-.9,1.25,1.25,0,0,0-.35-.92,1.43,1.43,0,0,0-1-.34h-1.49Zm0,1.3v3.37H230.7V30.84h3.18a3.55,3.55,0,0,1,2.26.65,2.24,2.24,0,0,1,.81,1.84,1.84,1.84,0,0,1-.34,1.12,2.32,2.32,0,0,1-1,.76,1.77,1.77,0,0,1,1.07.74,2.28,2.28,0,0,1,.33,1.27v.62a2.8,2.8,0,0,0,.1.74,1,1,0,0,0,.32.57v.12h-1.74a1,1,0,0,1-.3-.62,4.78,4.78,0,0,1-.07-.82v-.6a1.37,1.37,0,0,0-.34-1,1.33,1.33,0,0,0-1-.35Z"/><path class="cls-7" d="M241,34.19a.88.88,0,0,0-.74.36,2,2,0,0,0-.34,1l0,0H242v-.15a1.36,1.36,0,0,0-.26-.86.91.91,0,0,0-.76-.32m.15,5.2a2.81,2.81,0,0,1-2.16-.87,3.1,3.1,0,0,1-.81-2.2v-.23a3.41,3.41,0,0,1,.76-2.3,2.87,2.87,0,0,1,4-.14,2.93,2.93,0,0,1,.7,2.07v.92H239.9v0a1.62,1.62,0,0,0,.41,1,1.29,1.29,0,0,0,1,.4,3.38,3.38,0,0,0,.93-.11,4.6,4.6,0,0,0,.81-.36l.46,1.05a3,3,0,0,1-1,.52,4.55,4.55,0,0,1-1.38.2"/><rect class="cls-7" x="244.65" y="30.24" width="1.69" height="9.04"/><path class="cls-7" d="M249.81,38.14a1.4,1.4,0,0,0,.79-.22,1.19,1.19,0,0,0,.47-.51v-.88h-.94a1.19,1.19,0,0,0-.82.26.87.87,0,0,0-.28.66.66.66,0,0,0,.21.5.8.8,0,0,0,.57.19m1.54,1.13a3,3,0,0,1-.15-.45,2.66,2.66,0,0,1-.1-.49,2.19,2.19,0,0,1-.69.76,1.7,1.7,0,0,1-1,.3,2.14,2.14,0,0,1-1.52-.5,1.81,1.81,0,0,1-.53-1.39,1.62,1.62,0,0,1,.71-1.42,3.51,3.51,0,0,1,2.07-.51h.94v-.5a1,1,0,0,0-.24-.7.91.91,0,0,0-.7-.25.93.93,0,0,0-.63.2.72.72,0,0,0-.23.55h-1.63v0a1.59,1.59,0,0,1,.69-1.37,3,3,0,0,1,1.91-.57,2.82,2.82,0,0,1,1.83.57,2,2,0,0,1,.7,1.62v2.59a5.4,5.4,0,0,0,.06.83,4.22,4.22,0,0,0,.22.77Z"/><path class="cls-7" d="M256,31.47V33h1.05v1.19H256v3.19a.72.72,0,0,0,.15.52.51.51,0,0,0,.4.16h.23l.23,0,.14,1.22a3.36,3.36,0,0,1-.5.13,2.89,2.89,0,0,1-.52,0,1.79,1.79,0,0,1-1.35-.48,2.08,2.08,0,0,1-.47-1.52v-3.2h-.92V33h.92V31.47Z"/><path class="cls-7" d="M259.85,39.27h-1.69V33h1.69Zm0-7.77h-1.69V30.24h1.69Z"/><path class="cls-7" d="M262.6,36.2a2.7,2.7,0,0,0,.3,1.37,1.05,1.05,0,0,0,1,.52,1,1,0,0,0,1-.52,2.73,2.73,0,0,0,.3-1.37v-.12a2.61,2.61,0,0,0-.31-1.36,1.13,1.13,0,0,0-1.92,0,2.74,2.74,0,0,0-.31,1.36Zm-1.68-.12a3.39,3.39,0,0,1,.78-2.3,3.09,3.09,0,0,1,4.34,0,3.33,3.33,0,0,1,.79,2.3v.12a3.36,3.36,0,0,1-.78,2.3,3.1,3.1,0,0,1-4.35,0,3.36,3.36,0,0,1-.78-2.3Z"/><path class="cls-7" d="M269.36,33l.08.9a2.3,2.3,0,0,1,.77-.75,2,2,0,0,1,1-.26,1.92,1.92,0,0,1,1.49.59,2.81,2.81,0,0,1,.53,1.88v3.91h-1.7V35.35a1.25,1.25,0,0,0-.25-.89,1,1,0,0,0-.77-.27,1.25,1.25,0,0,0-1,.52v4.56h-1.69V33Z"/><path class="cls-7" d="M277.84,37.54a.6.6,0,0,0-.27-.48,2.77,2.77,0,0,0-1-.35,4.28,4.28,0,0,1-1.68-.67,1.48,1.48,0,0,1-.56-1.21,1.75,1.75,0,0,1,.68-1.38,2.79,2.79,0,0,1,1.82-.56,3,3,0,0,1,1.91.56,1.66,1.66,0,0,1,.68,1.42v0h-1.63a.82.82,0,0,0-.24-.61,1.15,1.15,0,0,0-1.35,0,.62.62,0,0,0-.24.5.57.57,0,0,0,.25.48,2.74,2.74,0,0,0,1,.33,4,4,0,0,1,1.72.68,1.5,1.5,0,0,1,.56,1.23,1.66,1.66,0,0,1-.72,1.39,3.21,3.21,0,0,1-1.92.53,2.89,2.89,0,0,1-2-.63,1.78,1.78,0,0,1-.7-1.45l0,0h1.54a.88.88,0,0,0,.33.73,1.37,1.37,0,0,0,.82.22,1.18,1.18,0,0,0,.71-.18.58.58,0,0,0,.25-.51"/></g></svg>