<svg width="298" height="45" viewBox="0 0 298 45" fill="none" xmlns="http://www.w3.org/2000/svg">
<path d="M43.302 4.4697L42.8167 3.97727C40.2036 1.32576 36.8067 0 33.4097 0C30.0127 0 26.5784 1.36364 24.0027 3.97727L23.4801 4.50758L22.9202 3.93939C20.3444 1.32576 16.9475 0 13.5505 0C10.1535 0 6.75655 1.32576 4.18083 3.93939L3.73288 4.39394C-1.23192 9.43182 -1.23192 17.5758 3.73288 22.5758L4.70344 23.5606L19.1872 38.2576C20.4191 39.5076 21.9869 40.1136 23.5921 40.1136C25.1972 40.1136 26.8024 39.5076 27.9969 38.2576L43.302 22.7273C48.2668 17.7273 48.2668 9.50758 43.302 4.4697ZM40.5769 20L25.2719 35.5303C24.8239 35.9848 24.2267 36.25 23.5921 36.25C22.9575 36.25 22.3602 35.9848 21.9123 35.5303L20.9417 34.5455L37.5159 17.7273C39.7557 15.4545 39.7557 11.7424 37.5159 9.43182C36.396 8.29545 34.9029 7.72727 33.447 7.72727C31.9539 7.72727 30.498 8.29545 29.3781 9.43182L18.0673 20.9091L12.2066 14.9621C11.46 14.2045 11.46 12.9545 12.2066 12.197C12.6919 11.7045 13.2519 11.6288 13.5505 11.6288C13.8491 11.6288 14.4091 11.7045 14.8943 12.197L18.1047 15.4545L20.8297 12.6894L17.6194 9.43182C16.4995 8.29545 15.0063 7.72727 13.5132 7.72727C12.02 7.72727 10.5641 8.29545 9.40694 9.43182C7.12985 11.7424 7.12985 15.4545 9.40694 17.7273L15.2676 23.6742L17.9927 26.4394L32.1032 12.2348C32.5885 11.7424 33.1484 11.6667 33.447 11.6667C33.7457 11.6667 34.3056 11.7424 34.7909 12.2348C35.2762 12.7273 35.3508 13.2955 35.3508 13.5985C35.3508 13.9015 35.2762 14.4697 34.7909 14.9621L18.2167 31.7803L10.1535 23.5985L7.42848 20.8333L6.45792 19.8485C4.7781 18.1439 3.8822 15.9091 3.8822 13.5227C3.8822 11.1364 4.81543 8.90152 6.45792 7.19697L6.90587 6.74242C8.69768 4.92424 11.0494 3.93939 13.5505 3.93939C16.0516 3.93939 18.4033 4.92424 20.1951 6.74242L20.7551 7.31061L23.4801 10.0758L26.2051 7.31061L26.7277 6.7803C28.5196 4.96212 30.9086 3.97727 33.4097 3.97727C35.9481 3.97727 38.2998 4.96212 40.0916 6.7803L40.5769 7.27273C42.2567 8.97727 43.19 11.25 43.19 13.6364C43.19 16.0227 42.2567 18.2955 40.5769 20Z" fill="#F3785B"/>
<path d="M61.556 16.5909C61.556 12.5 62.5266 9.31818 64.4677 7.04545C66.4088 4.77272 69.0966 3.63636 72.5309 3.63636C75.9652 3.63636 78.6529 4.77272 80.594 7.04545C82.5351 9.31818 83.5057 12.5 83.5057 16.5909V23.6364C83.5057 27.8788 82.5351 31.0606 80.594 33.2955C78.6529 35.4924 75.9652 36.5909 72.5309 36.5909C69.0966 36.5909 66.3715 35.4924 64.4677 33.2955C62.5266 31.0985 61.556 27.8788 61.556 23.6364V16.5909ZM72.5309 33.0303C74.9573 33.0303 76.7491 32.197 77.9436 30.5303C79.1381 28.8636 79.7354 26.4773 79.7354 23.3712V16.8561C79.7354 13.9773 79.1381 11.6288 77.9436 9.84848C76.7491 8.06818 74.9199 7.15909 72.5309 7.15909C70.1045 7.15909 68.3126 8.06818 67.1181 9.84848C65.9236 11.6288 65.3263 13.9773 65.3263 16.8561V23.3712C65.3263 26.4773 65.9236 28.8636 67.1181 30.5303C68.3126 32.197 70.1045 33.0303 72.5309 33.0303Z" fill="white"/>
<path d="M90.4116 35.947H86.9399V13.4848H90.4116V17.2727H90.9342C92.3154 14.3182 94.6671 12.8409 98.0641 12.8409C100.602 12.8409 102.656 13.6364 104.186 15.2651C105.717 16.8939 106.463 19.3182 106.463 22.5379V35.947H102.992V23.2576C102.992 20.9091 102.469 19.1288 101.424 17.9545C100.379 16.7803 98.96 16.1742 97.1682 16.1742C95.0404 16.1742 93.3979 16.8939 92.2034 18.3712C91.0088 19.8485 90.4116 21.7803 90.4116 24.2424V35.947Z" fill="white"/>
<path d="M129.122 13.4091C129.122 12.3864 128.936 11.4773 128.525 10.6818C128.114 9.88635 127.592 9.24241 126.882 8.74999C126.21 8.21969 125.427 7.8409 124.531 7.57575C123.635 7.3106 122.702 7.15908 121.731 7.15908C120.872 7.15908 120.051 7.27272 119.267 7.49999C118.483 7.72726 117.811 8.06817 117.177 8.48484C116.58 8.9015 116.094 9.43181 115.721 10.0379C115.348 10.6439 115.198 11.3636 115.198 12.197V12.4621C115.198 13.3333 115.385 14.0909 115.721 14.697C116.094 15.303 116.617 15.8333 117.289 16.2879C117.998 16.7424 118.857 17.0833 119.902 17.3864C120.947 17.6894 122.179 17.9167 123.56 18.1439C126.845 18.6742 129.234 19.6212 130.802 21.0606C132.332 22.5 133.116 24.4318 133.116 26.8182V27.3485C133.116 28.7121 132.892 29.9621 132.407 31.0985C131.959 32.2348 131.25 33.2197 130.354 34.0151C129.458 34.8485 128.338 35.4545 126.994 35.9091C125.651 36.3636 124.12 36.5909 122.366 36.5909C120.387 36.5909 118.595 36.2879 117.065 35.7197C115.534 35.1136 114.265 34.3182 113.22 33.2576C112.212 32.2348 111.428 30.9848 110.868 29.5833C110.346 28.1818 110.047 26.6667 110.047 25V23.6364H113.78V24.7348C113.78 27.5 114.526 29.5833 116.02 30.9848C117.513 32.3864 119.603 33.0682 122.291 33.0682C124.605 33.0682 126.36 32.5379 127.517 31.5151C128.674 30.4924 129.271 29.0909 129.271 27.3864V27.1212C129.271 25.4545 128.674 24.2045 127.48 23.3333C126.285 22.4621 124.307 21.8182 121.619 21.4394C120.051 21.2121 118.633 20.9091 117.363 20.4545C116.094 20 115.012 19.4318 114.116 18.75C113.22 18.0303 112.548 17.197 112.063 16.1742C111.577 15.1894 111.353 14.0151 111.353 12.6515V12.1212C111.353 10.8712 111.615 9.73484 112.1 8.71211C112.623 7.68938 113.295 6.78029 114.228 6.02272C115.124 5.26514 116.206 4.69696 117.475 4.28029C118.745 3.86363 120.126 3.67423 121.656 3.67423C123.411 3.67423 124.979 3.93938 126.36 4.43181C127.741 4.96211 128.898 5.64393 129.869 6.47726C130.802 7.34847 131.549 8.33332 132.034 9.50757C132.519 10.6818 132.78 11.8939 132.78 13.1439V15.0379H129.048V13.4091H129.122Z" fill="white"/>
<path d="M136.327 13.4848H143.27V4.24242H146.742V13.4848H155.29V16.7424H146.742V31.3258C146.742 32.2348 147.152 32.6894 147.936 32.6894H154.207V35.947H146.704C145.696 35.947 144.875 35.6061 144.24 34.9621C143.606 34.2803 143.27 33.447 143.27 32.4242V16.7424H136.327V13.4848Z" fill="white"/>
<path d="M175.523 32.1591H175C174.291 33.6742 173.283 34.7727 172.051 35.4924C170.782 36.2121 169.438 36.5909 168.057 36.5909C166.601 36.5909 165.257 36.3258 163.988 35.8333C162.756 35.3409 161.636 34.5833 160.703 33.5985C159.77 32.6136 159.023 31.4015 158.5 30C157.978 28.5985 157.679 26.9318 157.679 25.0758V24.3561C157.679 22.5 157.94 20.8712 158.5 19.4697C159.023 18.0682 159.77 16.8561 160.703 15.8712C161.636 14.8864 162.719 14.1288 163.988 13.6364C165.22 13.1061 166.563 12.8788 167.945 12.8788C169.475 12.8788 170.819 13.2197 172.088 13.9015C173.32 14.5833 174.291 15.6439 175 17.0455H175.523V13.5227H178.994V31.3636C178.994 32.2727 179.405 32.7273 180.189 32.7273H181.309V35.9848H178.957C177.949 35.9848 177.128 35.6439 176.493 35C175.858 34.3182 175.523 33.4848 175.523 32.4621V32.1591ZM168.393 33.2197C169.438 33.2197 170.408 33.0303 171.267 32.6136C172.126 32.2348 172.909 31.6667 173.507 30.947C174.141 30.2273 174.627 29.3561 174.963 28.3333C175.336 27.3106 175.485 26.2121 175.485 24.9621V24.4318C175.485 23.2197 175.299 22.1212 174.963 21.0985C174.589 20.0758 174.104 19.2045 173.469 18.4848C172.835 17.7651 172.088 17.197 171.192 16.7803C170.296 16.3636 169.363 16.1742 168.355 16.1742C167.31 16.1742 166.377 16.3636 165.518 16.7803C164.66 17.1591 163.913 17.7273 163.278 18.447C162.644 19.1667 162.159 20 161.785 21.0227C161.412 22.0455 161.263 23.1439 161.263 24.3561V25.0758C161.263 27.6515 161.935 29.6212 163.241 31.0606C164.548 32.5 166.265 33.2197 168.393 33.2197Z" fill="white"/>
<path d="M185.079 13.4848H193.105V16.4773H193.627C194.187 15.2273 195.008 14.3182 196.054 13.75C197.099 13.1439 198.293 12.8788 199.637 12.8788C201.877 12.8788 203.669 13.6364 205.05 15.1136C206.431 16.5909 207.14 18.75 207.252 21.5909L203.594 22.1212C203.594 20.0379 203.109 18.5227 202.138 17.6136C201.168 16.7045 199.936 16.25 198.517 16.25C197.584 16.25 196.8 16.4394 196.128 16.7803C195.456 17.1591 194.896 17.6515 194.448 18.2576C194.001 18.9015 193.665 19.6212 193.478 20.4924C193.254 21.3258 193.179 22.2348 193.179 23.2197V32.7273H198.816V35.9848H184.631V32.7273H189.708V16.7424H185.153V13.4848H185.079Z" fill="white"/>
<path d="M209.716 13.4848H216.659V4.24242H220.131V13.4848H228.679V16.7424H220.131V31.3258C220.131 32.2348 220.542 32.6894 221.325 32.6894H227.597V35.947H220.056C219.048 35.947 218.227 35.6061 217.593 34.9621C216.958 34.2803 216.622 33.447 216.622 32.4242V16.7424H209.679V13.4848H209.716Z" fill="white"/>
<path d="M247.456 13.4848H250.928V35.947H247.456V31.8561H246.933C246.224 33.2954 245.291 34.4697 244.134 35.303C242.977 36.1364 241.483 36.553 239.729 36.553C238.497 36.553 237.377 36.3636 236.369 35.947C235.361 35.5303 234.465 34.9242 233.756 34.1288C233.01 33.2954 232.45 32.3106 232.076 31.0985C231.666 29.8864 231.479 28.4848 231.479 26.8939V13.4848H234.951V26.4394C234.951 28.7879 235.436 30.5303 236.369 31.5909C237.303 32.6894 238.796 33.2197 240.737 33.2197C242.865 33.2197 244.507 32.5 245.702 31.0227C246.896 29.5454 247.493 27.6136 247.493 25.1515V13.4848H247.456Z" fill="white"/>
<path d="M258.207 45H254.735V13.4848H258.207V17.0076H258.729C259.513 15.6439 260.559 14.6212 261.94 13.9015C263.321 13.1818 264.777 12.8409 266.382 12.8409C267.763 12.8409 269.032 13.1061 270.264 13.5985C271.496 14.1288 272.579 14.8485 273.512 15.8333C274.445 16.7803 275.192 17.9924 275.752 19.3939C276.312 20.7954 276.573 22.4242 276.573 24.2424V25.1515C276.573 27.0076 276.312 28.6364 275.752 30.0379C275.229 31.4394 274.482 32.6515 273.549 33.5985C272.616 34.5454 271.533 35.303 270.264 35.7954C269.032 36.2879 267.689 36.553 266.307 36.553C265.598 36.553 264.851 36.4773 264.105 36.2879C263.358 36.1364 262.649 35.8712 261.977 35.5303C261.305 35.1894 260.708 34.7727 260.111 34.2803C259.551 33.7879 259.065 33.1818 258.692 32.5H258.17V45H258.207ZM265.598 33.2197C266.681 33.2197 267.651 33.0303 268.547 32.6515C269.443 32.2727 270.227 31.7424 270.899 31.0606C271.571 30.3788 272.093 29.5076 272.467 28.5227C272.84 27.5379 273.027 26.4015 273.027 25.1894V24.2803C273.027 23.0682 272.84 21.9697 272.467 20.9848C272.093 20 271.571 19.1667 270.899 18.447C270.227 17.7273 269.443 17.197 268.547 16.7803C267.651 16.4015 266.681 16.1742 265.635 16.1742C264.59 16.1742 263.62 16.3636 262.724 16.7803C261.828 17.197 261.044 17.7651 260.372 18.4848C259.7 19.2045 259.177 20.0758 258.804 21.0985C258.431 22.1212 258.207 23.2197 258.207 24.4318V25C258.207 26.25 258.393 27.3485 258.804 28.3712C259.177 29.3939 259.7 30.2651 260.372 30.9848C261.044 31.7045 261.828 32.2727 262.724 32.6515C263.582 33.0303 264.553 33.2197 265.598 33.2197Z" fill="white"/>
<path d="M283.703 19.2803C283.703 20.3788 284.151 21.2121 285.047 21.7803C285.943 22.3485 287.622 22.7273 290.011 22.9167C292.587 23.1439 294.566 23.75 295.91 24.8106C297.253 25.8333 297.925 27.3864 297.925 29.3561V29.6212C297.925 30.7197 297.701 31.6667 297.291 32.5379C296.843 33.4091 296.283 34.1288 295.499 34.7348C294.752 35.3409 293.819 35.7955 292.737 36.0985C291.654 36.4015 290.459 36.5909 289.19 36.5909C287.473 36.5909 285.98 36.3636 284.748 35.8712C283.516 35.4167 282.471 34.7727 281.687 34.0151C280.866 33.2576 280.269 32.3864 279.821 31.4015C279.41 30.4167 279.149 29.4318 279.111 28.447L282.396 27.6136C282.546 29.3182 283.218 30.7197 284.375 31.7424C285.532 32.7651 287.062 33.2955 289.004 33.2955C290.646 33.2955 291.953 32.9545 292.96 32.3106C293.968 31.6667 294.454 30.7576 294.454 29.5833C294.454 28.3333 293.968 27.4242 292.998 26.8561C292.027 26.3258 290.422 25.9848 288.22 25.8333C285.644 25.6439 283.703 25.0379 282.322 24.0151C280.94 22.9924 280.269 21.4773 280.269 19.5455V19.2803C280.269 18.2197 280.492 17.3106 280.94 16.5151C281.388 15.7197 281.986 15.0379 282.732 14.5076C283.479 13.9773 284.337 13.5606 285.308 13.2955C286.241 13.0303 287.249 12.8788 288.294 12.8788C289.75 12.8788 291.019 13.0682 292.139 13.4848C293.222 13.9015 294.155 14.4318 294.902 15.0758C295.648 15.7197 296.208 16.4773 296.619 17.3106C297.029 18.1439 297.291 19.0151 297.403 19.8485L294.118 20.6818C293.968 19.2424 293.408 18.1061 292.401 17.2727C291.393 16.4394 290.086 16.0606 288.481 16.0606C287.846 16.0606 287.249 16.1364 286.689 16.25C286.092 16.4015 285.607 16.5909 285.159 16.8561C284.711 17.1212 284.337 17.4621 284.076 17.8788C283.852 18.2576 283.703 18.75 283.703 19.2803Z" fill="white"/>
</svg>
