<?xml version="1.0" encoding="utf-8"?>
<!-- Generator: Adobe Illustrator 22.1.0, SVG Export Plug-In . SVG Version: 6.00 Build 0)  -->
<!DOCTYPE svg PUBLIC "-//W3C//DTD SVG 1.1//EN" "http://www.w3.org/Graphics/SVG/1.1/DTD/svg11.dtd">
<svg version="1.1" id="Layer_1" xmlns="http://www.w3.org/2000/svg" xmlns:xlink="http://www.w3.org/1999/xlink" x="0px" y="0px"
	 viewBox="0 0 287.5 54.2" enable-background="new 0 0 287.5 54.2" xml:space="preserve">
<g>
	<g>
		<path fill="#E05B26" d="M15.2,34.8c0-0.8-0.2-1.4-0.5-1.8c-0.4-0.5-0.9-0.8-1.5-1.1c-0.6-0.3-1.3-0.5-2.1-0.7
			c-0.8-0.2-1.6-0.4-2.4-0.5c-1.1-0.3-2.2-0.6-3.2-0.9c-1-0.3-1.9-0.8-2.7-1.4c-0.8-0.6-1.4-1.4-1.9-2.3c-0.5-0.9-0.7-2.1-0.7-3.6
			c0-1.6,0.3-2.9,0.8-4.1C1.5,17,2.2,16,3.1,15.3c0.9-0.8,2-1.3,3.2-1.7C7.6,13.2,9,13,10.5,13c1.6,0,3.1,0.2,4.7,0.5
			c1.6,0.3,2.9,0.7,4,1.2v4.7c-1.5-0.6-3-1-4.3-1.3c-1.4-0.3-2.7-0.4-3.9-0.4c-1.8,0-3.1,0.3-4.1,1c-0.9,0.7-1.4,1.6-1.4,2.9
			c0,0.8,0.2,1.4,0.5,1.9c0.3,0.5,0.7,0.9,1.3,1.2c0.5,0.3,1.2,0.6,1.8,0.8c0.7,0.2,1.4,0.4,2.2,0.5c1.2,0.3,2.4,0.6,3.5,0.9
			c1.1,0.3,2.1,0.8,3,1.5c0.9,0.6,1.6,1.4,2.1,2.4c0.5,1,0.8,2.3,0.8,3.8c0,1.6-0.3,3-0.9,4.2c-0.6,1.2-1.4,2.1-2.5,2.9
			c-1.1,0.8-2.4,1.3-3.9,1.7c-1.5,0.4-3.2,0.6-5,0.6c-1.6,0-3.1-0.2-4.7-0.5C2.3,43.1,1,42.6,0,42.1v-4.6c1.4,0.6,2.8,1.1,4.2,1.4
			c1.4,0.3,2.8,0.4,4.2,0.4c0.8,0,1.7-0.1,2.5-0.2c0.8-0.1,1.5-0.4,2.2-0.7c0.6-0.3,1.2-0.8,1.6-1.4C15,36.4,15.2,35.6,15.2,34.8z"
			/>
		<path fill="#E05B26" d="M50.4,30.2c0-0.5,0-0.9,0-1.3c0-0.4-0.1-0.7-0.2-1c-0.2-0.7-0.5-1.2-0.9-1.6c-0.5-0.4-1.1-0.6-2-0.6
			c-0.4,0-0.9,0.1-1.4,0.2c-0.5,0.1-1,0.3-1.4,0.6c-0.5,0.2-0.9,0.5-1.3,0.9c-0.4,0.3-0.8,0.7-1.2,1.2v14.8h-5.2V30.2
			c0-0.5,0-0.9,0-1.3c0-0.4-0.1-0.7-0.2-1c-0.2-0.7-0.5-1.2-0.9-1.6c-0.5-0.4-1.1-0.6-2-0.6c-0.4,0-0.9,0.1-1.4,0.2
			c-0.5,0.1-1,0.3-1.4,0.6c-0.5,0.2-0.9,0.5-1.3,0.9c-0.4,0.3-0.8,0.7-1.2,1.2v14.8h-5.1V21.8h4.3l0.5,3h0.1
			c0.3-0.4,0.7-0.9,1.2-1.3c0.5-0.4,1-0.8,1.6-1.1c0.6-0.3,1.2-0.6,1.9-0.8c0.7-0.2,1.4-0.3,2.2-0.3c1.4,0,2.6,0.3,3.7,0.9
			c1.1,0.6,2,1.6,2.5,2.9h0.1c0.4-0.6,0.9-1.1,1.4-1.6c0.5-0.5,1.1-0.9,1.7-1.2c0.6-0.3,1.3-0.6,2-0.8c0.7-0.2,1.5-0.3,2.2-0.3
			c1.5,0,2.8,0.3,3.8,1c1,0.6,1.8,1.5,2.4,2.6c0.1,0.3,0.3,0.6,0.4,0.9c0.1,0.3,0.2,0.7,0.3,1.1c0.1,0.4,0.1,0.9,0.1,1.4
			c0,0.5,0,1.1,0,1.7v13.4h-5.1V30.2z"/>
		<path fill="#E05B26" d="M71,41L71,41c-0.4,0.3-0.7,0.6-1.1,1c-0.4,0.3-0.9,0.6-1.4,0.9c-0.5,0.3-1.1,0.5-1.7,0.7
			c-0.6,0.2-1.3,0.3-2.1,0.3c-1,0-1.9-0.2-2.8-0.5c-0.9-0.3-1.6-0.8-2.2-1.4c-0.6-0.6-1.1-1.3-1.5-2.2C57.8,39,57.6,38,57.6,37
			c0-1.2,0.2-2.2,0.6-3.1c0.4-0.9,1-1.7,1.7-2.3c0.7-0.6,1.6-1.1,2.7-1.5c1-0.3,2.2-0.5,3.4-0.5c0.9,0,1.8,0.1,2.5,0.2
			c0.8,0.1,1.4,0.3,2,0.4v-0.9c0-0.5-0.1-1-0.2-1.5c-0.2-0.5-0.4-0.9-0.8-1.2c-0.4-0.4-0.9-0.7-1.4-0.9c-0.6-0.2-1.3-0.3-2.2-0.3
			c-1,0-2.1,0.1-3.1,0.4c-1,0.2-2.2,0.6-3.4,1.1v-4.1c1.1-0.5,2.2-0.8,3.4-1.1c1.2-0.3,2.4-0.4,3.7-0.4c1.5,0,2.9,0.2,4,0.6
			c1.2,0.4,2.1,0.9,2.9,1.6c0.8,0.7,1.4,1.5,1.7,2.4c0.4,0.9,0.6,1.9,0.6,3v8.1c0,1.4,0,2.6,0,3.7c0,1,0.1,1.9,0.1,2.7h-4.7L71,41z
			 M70.6,34.1c-0.5-0.1-1.1-0.2-1.7-0.3c-0.6-0.1-1.3-0.1-1.9-0.1c-1.3,0-2.3,0.3-3,0.8c-0.7,0.5-1.1,1.3-1.1,2.3
			c0,0.5,0.1,0.9,0.3,1.3c0.2,0.4,0.4,0.7,0.7,0.9c0.3,0.2,0.6,0.4,1,0.5c0.4,0.1,0.8,0.2,1.2,0.2c0.5,0,1-0.1,1.5-0.2
			c0.5-0.1,0.9-0.3,1.3-0.5c0.4-0.2,0.7-0.5,1.1-0.7c0.3-0.3,0.6-0.5,0.8-0.8V34.1z"/>
		<path fill="#E05B26" d="M91,25.9h-0.4c-1.6,0-3,0.2-4.2,0.7c-1.2,0.5-2.1,1.2-2.8,2.2v14.4h-5.2V21.8h4.3l0.5,3h0.1
			c0.6-1.1,1.4-2,2.5-2.6c1.1-0.6,2.3-0.9,3.8-0.9c0.5,0,1,0,1.3,0.1V25.9z"/>
		<path fill="#E05B26" d="M108.1,43.3c-0.6,0.2-1.3,0.3-2.1,0.4c-0.8,0.1-1.6,0.2-2.2,0.2c-1.8,0-3.2-0.3-4.3-0.9
			c-1.1-0.6-1.9-1.4-2.4-2.5c-0.3-0.8-0.5-1.9-0.5-3.2V26.1h-3.9v-4.3h3.9v-6h5.1v6h6.1v4.3h-6.1v10.5c0,0.8,0.1,1.4,0.4,1.8
			c0.4,0.7,1.3,1,2.6,1c0.6,0,1.2,0,1.8-0.1c0.6-0.1,1.1-0.2,1.7-0.4V43.3z"/>
	</g>
	<path fill="#231F20" d="M110.8,43.3V13.6h5.3v13.6h0.1l11-13.6h6.6l-12.1,14.8l13.1,15H128l-11.8-13.4h-0.1v13.4H110.8z"/>
	<path fill="#231F20" d="M147.3,41L147.3,41c-0.4,0.3-0.7,0.6-1.1,1c-0.4,0.3-0.9,0.6-1.4,0.9c-0.5,0.3-1.1,0.5-1.7,0.7
		c-0.6,0.2-1.3,0.3-2.1,0.3c-1,0-1.9-0.2-2.8-0.5c-0.9-0.3-1.6-0.8-2.2-1.4c-0.6-0.6-1.1-1.3-1.5-2.2C134.1,39,134,38,134,37
		c0-1.2,0.2-2.2,0.6-3.1c0.4-0.9,1-1.7,1.7-2.3c0.7-0.6,1.6-1.1,2.7-1.5c1-0.3,2.2-0.5,3.4-0.5c0.9,0,1.8,0.1,2.5,0.2
		c0.8,0.1,1.4,0.3,2,0.4v-0.9c0-0.5-0.1-1-0.3-1.5c-0.2-0.5-0.4-0.9-0.8-1.2c-0.4-0.4-0.9-0.7-1.4-0.9c-0.6-0.2-1.3-0.3-2.2-0.3
		c-1,0-2.1,0.1-3.1,0.4c-1,0.2-2.2,0.6-3.4,1.1v-4.1c1.1-0.5,2.2-0.8,3.4-1.1c1.2-0.3,2.4-0.4,3.7-0.4c1.5,0,2.9,0.2,4,0.6
		c1.2,0.4,2.1,0.9,2.9,1.6c0.8,0.7,1.4,1.5,1.7,2.4c0.4,0.9,0.6,1.9,0.6,3v8.1c0,1.4,0,2.6,0,3.7c0,1,0.1,1.9,0.1,2.7h-4.7L147.3,41
		z M146.9,34.1c-0.5-0.1-1.1-0.2-1.7-0.3c-0.6-0.1-1.3-0.1-1.9-0.1c-1.3,0-2.3,0.3-3,0.8c-0.7,0.5-1.1,1.3-1.1,2.3
		c0,0.5,0.1,0.9,0.2,1.3c0.2,0.4,0.4,0.7,0.7,0.9c0.3,0.2,0.6,0.4,1,0.5c0.4,0.1,0.8,0.2,1.2,0.2c0.5,0,1-0.1,1.5-0.2
		c0.5-0.1,0.9-0.3,1.3-0.5c0.4-0.2,0.7-0.5,1.1-0.7c0.3-0.3,0.6-0.5,0.8-0.8V34.1z"/>
	<path fill="#231F20" d="M168.1,25.9h-0.4c-1.6,0-3,0.2-4.2,0.7c-1.2,0.5-2.1,1.2-2.8,2.2v14.4h-5.1V21.8h4.3l0.5,3h0.1
		c0.6-1.1,1.4-2,2.5-2.6c1.1-0.6,2.3-0.9,3.8-0.9c0.5,0,1,0,1.3,0.1V25.9z"/>
	<path fill="#231F20" d="M183.7,43.9c0-0.3,0-0.7,0-1.1c0-0.4,0-0.8,0.1-1.1h0c-0.3,0.3-0.7,0.5-1.1,0.8c-0.4,0.3-0.9,0.5-1.4,0.7
		c-0.5,0.2-1,0.4-1.6,0.5c-0.6,0.1-1.2,0.2-1.8,0.2c-1.1,0-2.2-0.2-3.3-0.6c-1.1-0.4-2-1.1-2.8-1.9c-0.8-0.9-1.5-2-2-3.4
		c-0.5-1.4-0.8-3-0.8-5c0-1.9,0.3-3.6,0.8-5.1c0.5-1.5,1.2-2.7,2.1-3.7c0.9-1,1.8-1.7,2.9-2.2c1.1-0.5,2.2-0.7,3.4-0.7
		c1.3,0,2.4,0.3,3.4,0.8c1,0.6,1.8,1.3,2.5,2.1h0.1l0.2-2.4h4.5v22c0,1.3-0.1,2.3-0.3,3.2c-0.2,0.9-0.5,1.7-0.9,2.4
		c-0.5,0.8-1.1,1.5-1.8,2.1c-0.7,0.6-1.5,1.1-2.5,1.5c-0.9,0.4-1.9,0.7-3,0.9c-1.1,0.2-2.3,0.3-3.5,0.3c-0.7,0-1.4,0-2-0.1
		c-0.7-0.1-1.3-0.1-1.9-0.2c-0.6-0.1-1.1-0.2-1.6-0.3c-0.5-0.1-0.9-0.3-1.2-0.4v-4.3c1,0.3,2,0.6,3,0.7c1.1,0.2,2.2,0.3,3.3,0.3
		c2.3,0,4.1-0.5,5.3-1.4c1.3-0.9,1.9-2.3,1.9-4.1V43.9z M179.1,39.7c0.5,0,1-0.1,1.5-0.2c0.5-0.1,0.9-0.3,1.3-0.5
		c0.4-0.2,0.7-0.4,1.1-0.7c0.3-0.3,0.6-0.5,0.8-0.8v-9.6c-0.6-0.7-1.2-1.2-2-1.7c-0.8-0.4-1.7-0.7-2.6-0.7c-0.3,0-0.7,0-1,0.1
		c-0.4,0.1-0.7,0.2-1.1,0.4c-0.4,0.2-0.7,0.5-1,0.8c-0.3,0.3-0.6,0.8-0.9,1.3c-0.2,0.5-0.4,1.2-0.6,1.9c-0.2,0.7-0.2,1.6-0.2,2.6
		c0,1.1,0.1,2.1,0.3,2.9c0.2,0.9,0.5,1.6,0.9,2.2c0.4,0.6,0.9,1.1,1.5,1.4C177.6,39.5,178.3,39.7,179.1,39.7z"/>
	<path fill="#231F20" d="M212.3,32.6c0,1.7-0.2,3.2-0.7,4.6c-0.5,1.4-1.2,2.6-2.1,3.6c-0.9,1-2,1.8-3.3,2.3
		c-1.3,0.5-2.8,0.8-4.4,0.8c-1.7,0-3.1-0.3-4.4-0.8c-1.3-0.5-2.4-1.3-3.3-2.3c-0.9-1-1.6-2.2-2.1-3.6c-0.5-1.4-0.7-2.9-0.7-4.6
		c0-1.7,0.2-3.2,0.7-4.6c0.5-1.4,1.2-2.6,2.1-3.6c0.9-1,2-1.8,3.3-2.3c1.3-0.5,2.8-0.8,4.4-0.8c1.7,0,3.1,0.3,4.4,0.8
		c1.3,0.5,2.4,1.3,3.3,2.3c0.9,1,1.6,2.2,2.1,3.6C212.1,29.3,212.3,30.9,212.3,32.6z M207,32.6c0-1.1-0.1-2.2-0.4-3
		c-0.3-0.9-0.6-1.6-1.1-2.2c-0.5-0.6-1-1-1.7-1.3c-0.7-0.3-1.4-0.4-2.1-0.4c-0.8,0-1.5,0.1-2.1,0.4c-0.6,0.3-1.2,0.7-1.7,1.3
		c-0.5,0.6-0.8,1.3-1.1,2.2c-0.3,0.9-0.4,1.9-0.4,3c0,1.1,0.1,2.2,0.4,3c0.3,0.9,0.6,1.6,1.1,2.2c0.5,0.6,1,1,1.7,1.3
		c0.6,0.3,1.4,0.5,2.1,0.5c0.8,0,1.5-0.2,2.1-0.5c0.6-0.3,1.2-0.7,1.7-1.3c0.5-0.6,0.8-1.3,1.1-2.2C206.9,34.7,207,33.7,207,32.6z"
		/>
	<g>
		<path fill="#E05B26" d="M249.1,43.3l-1.4,0c0,0-18.4,0-18.6,0c-6.2,0-11.3-5-11.3-11.2c0-2.8,1-5.4,2.8-7.4
			c-0.6-1.9-0.9-3.8-0.9-5.8c0-10.4,8.5-18.9,18.9-18.9c6.1,0,11.8,2.9,15.3,7.9c1.2-0.4,2.5-0.6,3.8-0.6c5.4,0,10,3.8,11.3,8.9
			c0.7-0.2,1.4-0.2,2.1-0.2c5.2,0,9.5,4.2,9.6,9.4c3.7,1.3,6.2,4.8,6.2,8.8c0,5.1-4.2,9.3-9.3,9.3c-0.4,0-20.8,0-20.8,0l-1.4,0V28.2
			l3.5,4.2c1.2,1.2,3.2,1.2,4.4,0c0.6-0.6,1-1.4,1-2.2c0-0.8-0.3-1.6-0.9-2.2l-8.9-8.9c-0.6-0.6-1.4-0.9-2.3-0.9
			c-0.9,0-1.7,0.3-2.3,0.9L241,28c-1.2,1.2-1.2,3.2,0,4.4c1.3,1.3,3.2,1.3,4.4,0l3.7-3.7L249.1,43.3z M258.2,35.3v5.2
			c4.6,0,19.1,0,19.4,0c3.7,0,6.6-2.8,6.6-6.5c0-3.1-2.2-5.8-5.2-6.4l-1.2-0.3l0.1-1.2c0-0.2,0-0.4,0-0.6c0-3.8-3.1-6.9-6.9-6.9
			c-0.9,0-1.8,0.2-2.7,0.5l-1.8,0.7l-0.2-1.9c-0.4-4.5-4.2-8-8.8-8c-1.3,0-2.6,0.3-3.7,0.8l-1.1,0.5l-0.7-1c-3-4.7-8.1-7.5-13.6-7.5
			c-8.9,0-16.1,7.2-16.1,16.1c0,1.9,0.3,3.8,1,5.6l0.3,0.8l-0.6,0.6c-1.7,1.6-2.6,3.8-2.6,6.1c0,4.7,3.8,8.4,8.5,8.4
			c0.2,0,12.9,0,17.2,0l0-5.3c-2.3,1.4-5.3,1.1-7.3-0.8c-2.3-2.3-2.3-6.1,0-8.4l8.9-8.9c1.1-1.1,2.7-1.8,4.3-1.7
			c1.6,0,3.1,0.6,4.2,1.7l8.9,8.9c1.1,1.1,1.7,2.6,1.7,4.2s-0.6,3.1-1.7,4.2C263.3,36.3,260.4,36.6,258.2,35.3z"/>
	</g>
</g>
</svg>
