<?xml version="1.0" standalone="no"?>
<!DOCTYPE svg PUBLIC "-//W3C//DTD SVG 20010904//EN"
 "http://www.w3.org/TR/2001/REC-SVG-20010904/DTD/svg10.dtd">
<svg version="1.0" xmlns="http://www.w3.org/2000/svg"
 width="78.000000pt" height="78.000000pt" viewBox="0 0 78.000000 78.000000"
 preserveAspectRatio="xMidYMid meet">
<metadata>
Created by potrace 1.14, written by Peter Selinger 2001-2017
</metadata>
<g transform="translate(0.000000,78.000000) scale(0.100000,-0.100000)"
fill="#000000" stroke="none">
<path d="M70 486 l0 -176 44 0 44 0 1 48 c2 70 3 82 13 82 4 0 8 -7 8 -15 0
-8 3 -15 8 -15 8 0 36 30 40 43 1 4 4 18 8 32 3 14 10 25 15 25 5 0 9 7 9 15
0 9 6 18 14 21 8 3 13 11 10 19 -3 7 2 19 10 28 8 8 12 17 9 21 -3 3 2 8 11
12 21 8 26 4 32 -31 4 -25 3 -27 -11 -15 -8 7 -18 10 -22 7 -9 -10 -32 -50
-39 -69 -3 -10 -11 -18 -16 -18 -5 0 -6 -4 -3 -10 3 -5 1 -10 -6 -10 -7 0 -10
-3 -6 -6 3 -4 -3 -24 -13 -45 -11 -21 -20 -45 -20 -53 0 -32 19 -23 41 19 23
43 42 59 38 33 -1 -7 -1 -37 0 -65 l1 -53 45 0 45 0 0 176 0 175 -47 -3 -46
-3 -43 -84 c-24 -46 -45 -85 -47 -88 -2 -2 -16 21 -31 52 -14 30 -30 55 -34
55 -5 0 -8 -22 -7 -50 1 -27 -2 -47 -7 -44 -4 3 -8 0 -8 -5 0 -6 4 -11 8 -11
12 0 7 -133 -5 -137 -15 -5 -12 89 2 99 6 5 6 8 -1 8 -8 0 -11 28 -10 87 2 77
4 88 20 91 14 3 17 0 13 -13 -4 -9 -3 -14 3 -10 6 4 19 -14 29 -38 11 -25 24
-48 29 -51 15 -9 23 23 12 45 -6 11 -8 25 -4 32 4 6 4 9 -1 5 -4 -4 -16 7 -25
25 -15 28 -23 32 -64 35 l-46 3 0 -175z m275 44 c0 -17 -4 -30 -10 -30 -6 0
-6 -3 1 -8 13 -9 14 -42 1 -42 -6 0 -6 -5 0 -12 5 -7 9 -31 8 -53 -3 -52 -3
-51 -17 -37 -10 10 -10 15 2 22 8 5 11 10 5 10 -6 0 -10 41 -11 100 0 70 3 97
10 90 6 -6 11 -24 11 -40z"/>
<path d="M507 653 c-3 -5 -19 -55 -37 -113 -18 -58 -38 -114 -44 -125 -10 -19
-11 -24 -14 -53 -1 -7 -5 -11 -9 -9 -5 3 -8 -6 -8 -19 0 -23 3 -25 44 -22 45
3 45 3 64 58 20 58 31 78 25 45 -2 -16 3 -20 27 -21 17 -1 33 -2 37 -3 3 -1
10 -18 15 -38 8 -37 10 -38 57 -41 37 -2 47 0 44 10 -2 7 -29 86 -58 176 -43
131 -57 162 -72 162 -10 0 -18 -7 -18 -15 0 -8 -4 -15 -8 -15 -4 0 -9 -12 -10
-26 -1 -15 -8 -34 -15 -42 -6 -8 -11 -17 -9 -19 6 -6 -52 -178 -60 -181 -5 -2
-6 -8 -2 -13 3 -5 0 -9 -5 -9 -6 0 -11 2 -11 4 0 4 28 86 37 106 3 8 5 21 4
28 -1 6 3 12 9 12 5 0 9 3 8 8 -1 4 5 30 14 57 28 87 30 105 14 105 -8 0 -17
-3 -19 -7z m88 -94 c-3 -4 -1 -10 5 -14 5 -3 10 -17 10 -30 0 -13 5 -27 10
-30 16 -10 12 -25 -5 -19 -8 3 -19 21 -25 40 -7 19 -15 32 -19 30 -4 -3 -8 1
-8 9 0 8 4 15 8 15 4 0 6 10 4 23 -4 21 -4 21 10 3 8 -10 12 -22 10 -27z m-38
-60 c2 -16 -1 -19 -9 -11 -5 5 -7 15 -4 21 10 15 12 14 13 -10z m-14 -44 c-3
-9 -8 -14 -10 -11 -3 3 -2 9 2 15 9 16 15 13 8 -4z m94 -12 c-3 -2 4 -27 14
-54 14 -36 16 -50 7 -47 -7 3 -14 9 -14 14 -1 5 -7 24 -15 42 -10 23 -20 32
-37 32 -13 0 -20 4 -17 10 4 6 10 8 15 5 5 -3 11 -1 15 4 3 6 12 8 21 4 8 -3
13 -7 11 -10z"/>
<path d="M146 265 c-3 -9 -6 -31 -6 -48 0 -22 -3 -28 -9 -18 -7 11 -9 11 -14
0 -3 -8 -6 5 -6 27 -1 36 -4 41 -23 40 -22 -1 -23 -5 -23 -86 0 -80 1 -85 23
-88 19 -3 22 1 22 27 0 24 4 31 20 31 11 0 20 -5 20 -11 0 -5 -4 -8 -9 -5 -4
3 -6 -6 -3 -19 3 -18 11 -25 29 -25 24 0 24 1 21 85 -2 47 -7 85 -12 84 -5 0
-12 5 -16 11 -5 8 -9 7 -14 -5z m-54 -83 c1 -34 -1 -65 -5 -68 -4 -4 -7 26 -7
66 0 88 10 89 12 2z m77 -4 c-1 -53 -3 -63 -8 -38 -6 35 -3 110 5 110 2 0 3
-33 3 -72z m-29 -2 c0 -2 -7 -6 -15 -10 -8 -3 -15 -1 -15 4 0 6 7 10 15 10 8
0 15 -2 15 -4z"/>
<path d="M456 272 c-3 -5 -18 -7 -33 -5 -18 3 -37 -2 -52 -14 -20 -17 -24 -28
-23 -79 0 -52 -1 -55 -10 -29 -5 17 -10 36 -10 43 -1 6 -5 12 -10 12 -4 0 -7
3 -6 8 3 14 -14 62 -23 62 -4 0 -13 -17 -19 -37 -5 -21 -15 -45 -21 -53 -9
-12 -10 -11 -4 5 4 11 8 28 10 38 2 9 7 22 11 28 4 7 1 10 -6 7 -12 -4 -58
-126 -60 -155 0 -21 38 -15 45 7 9 27 51 27 60 0 7 -21 41 -28 47 -9 2 6 14 5
32 -5 33 -17 59 -9 76 24 13 25 13 27 -6 34 -10 4 -22 -1 -30 -11 -23 -31 -35
7 -25 80 0 5 6 5 11 2 6 -4 8 -10 6 -14 -3 -4 9 -8 25 -9 23 -2 29 2 29 17 0
11 -5 23 -10 26 -8 5 -7 11 1 21 6 8 9 14 6 14 -3 0 -8 -4 -11 -8z m-22 -28
c9 -3 16 -10 16 -15 0 -5 -8 -4 -19 2 -27 17 -51 4 -52 -28 0 -15 -3 -22 -6
-15 -3 7 -2 24 1 37 6 25 27 32 60 19z m-134 -36 c0 -18 -2 -20 -9 -8 -6 8 -7
18 -5 22 9 14 14 9 14 -14z m20 -66 c0 -10 -3 -10 -14 0 -7 7 -11 19 -8 26 4
11 6 11 13 0 5 -7 9 -19 9 -26z m60 -3 c0 -16 9 -23 30 -21 3 0 14 4 25 8 17
7 18 6 5 -8 -25 -27 -65 -12 -72 27 -3 13 -1 22 3 19 5 -3 9 -14 9 -25z m-148
-21 c-6 -6 -7 0 -4 19 5 21 7 23 10 9 2 -10 0 -22 -6 -28z"/>
<path d="M483 229 c2 -22 1 -39 -2 -39 -3 0 -4 -22 -3 -50 4 -45 6 -50 28 -50
19 0 24 5 24 28 l1 27 17 -27 c10 -18 25 -28 40 -28 13 0 22 3 20 8 -3 4 -10
22 -17 40 -7 17 -18 32 -24 32 -5 0 -2 9 8 20 10 11 15 20 11 20 -4 0 0 10 8
22 22 30 20 38 -6 35 -28 -4 -69 -74 -79 -132 l-6 -40 -2 43 c-1 27 5 49 15
59 23 23 14 68 -13 69 -20 1 -22 -3 -20 -37z m24 -16 c-3 -10 -5 -4 -5 12 0
17 2 24 5 18 2 -7 2 -21 0 -30z m73 29 c0 -5 -7 -17 -15 -28 -14 -18 -14 -17
-4 9 12 27 19 34 19 19z m-39 -79 c-12 -20 -14 -14 -5 12 4 9 9 14 11 11 3 -2
0 -13 -6 -23z m39 -47 c0 -6 -7 -1 -15 10 -8 10 -15 23 -15 28 0 6 7 1 15 -10
8 -10 15 -23 15 -28z"/>
<path d="M616 245 c-9 -13 -16 -27 -16 -30 0 -3 16 -23 36 -45 20 -22 33 -40
29 -40 -4 0 -14 8 -21 18 -9 11 -13 13 -14 4 0 -7 -4 -11 -9 -7 -22 13 -20
-17 2 -39 45 -45 107 2 77 59 -7 13 -17 22 -21 19 -5 -3 -3 -14 4 -24 8 -15 9
-25 1 -37 -15 -24 -27 -26 -49 -8 -19 16 -19 16 3 5 12 -6 27 -8 32 -5 13 8
13 42 0 50 -6 4 -8 11 -4 16 3 5 1 16 -5 23 -8 10 -4 12 19 8 35 -5 41 15 12
41 -26 24 -57 21 -76 -8z m70 -6 c4 -8 -1 -9 -16 -4 -28 9 -42 -11 -29 -39 10
-20 10 -20 -5 -2 -11 14 -13 24 -5 37 11 21 44 25 55 8z"/>
</g>
</svg>
